<svg width="147" height="147" viewBox="0 0 147 147" fill="none" xmlns="http://www.w3.org/2000/svg">
<path d="M140.938 119.104C140.938 119.179 140.905 119.248 140.841 119.31C140.789 119.361 140.725 119.386 140.647 119.386H138.868C138.79 119.386 138.72 119.361 138.655 119.31C138.603 119.248 138.578 119.179 138.578 119.104V114.126C138.165 114.414 137.669 114.652 137.088 114.84C136.508 115.015 135.831 115.134 135.057 115.196L131.788 115.422C131.75 115.422 131.711 115.428 131.672 115.441C131.633 115.441 131.595 115.441 131.556 115.441C131.182 115.441 130.911 115.359 130.744 115.196C130.576 115.034 130.492 114.815 130.492 114.539V105.315C130.492 105.24 130.518 105.178 130.57 105.128C130.634 105.065 130.705 105.034 130.782 105.034H136.759C136.837 105.034 136.901 105.065 136.953 105.128C137.017 105.178 137.05 105.24 137.05 105.315V106.705C137.05 106.781 137.017 106.85 136.953 106.912C136.901 106.962 136.837 106.987 136.759 106.987H132.852V113.412L135.077 113.262C136.25 113.186 137.127 112.967 137.707 112.604C138.288 112.241 138.578 111.871 138.578 111.496V104.846C138.578 104.771 138.603 104.708 138.655 104.658C138.72 104.595 138.79 104.564 138.868 104.564H140.647C140.725 104.564 140.789 104.595 140.841 104.658C140.905 104.708 140.938 104.771 140.938 104.846V108.885H142.64V104.846C142.64 104.771 142.666 104.708 142.717 104.658C142.782 104.595 142.853 104.564 142.93 104.564H144.709C144.787 104.564 144.851 104.595 144.903 104.658C144.967 104.708 145 104.771 145 104.846V119.104C145 119.179 144.967 119.248 144.903 119.31C144.851 119.361 144.787 119.386 144.709 119.386H142.93C142.853 119.386 142.782 119.361 142.717 119.31C142.666 119.248 142.64 119.179 142.64 119.104V110.876H140.938V119.104Z" fill="#B32C5B"/>
<path d="M126.461 104.845C126.538 104.845 126.603 104.877 126.654 104.939C126.719 104.989 126.751 105.052 126.751 105.127V109.091C126.751 109.617 126.648 110.049 126.442 110.387C126.248 110.713 125.932 110.982 125.494 111.195C125.068 111.395 124.507 111.546 123.811 111.646C123.127 111.746 122.302 111.827 121.335 111.89C121.18 111.902 121.025 111.915 120.871 111.928C120.729 111.928 120.58 111.928 120.426 111.928C120.271 111.928 120.116 111.928 119.962 111.928C119.82 111.915 119.671 111.902 119.517 111.89C118.549 111.827 117.718 111.746 117.021 111.646C116.338 111.546 115.777 111.395 115.338 111.195C114.913 110.982 114.597 110.713 114.391 110.387C114.197 110.049 114.1 109.617 114.1 109.091V105.127C114.1 105.052 114.126 104.989 114.178 104.939C114.242 104.877 114.313 104.845 114.391 104.845H126.461ZM119.401 114.839H113.075C112.998 114.839 112.927 114.814 112.863 114.764C112.811 114.702 112.785 114.633 112.785 114.557V113.205C112.785 113.13 112.811 113.067 112.863 113.017C112.927 112.954 112.998 112.923 113.075 112.923H127.776C127.854 112.923 127.918 112.954 127.97 113.017C128.034 113.067 128.066 113.13 128.066 113.205V114.557C128.066 114.633 128.034 114.702 127.97 114.764C127.918 114.814 127.854 114.839 127.776 114.839H121.838V117.45C121.838 117.526 121.806 117.594 121.741 117.657C121.69 117.707 121.625 117.732 121.548 117.732H119.691C119.613 117.732 119.542 117.707 119.478 117.657C119.426 117.594 119.401 117.526 119.401 117.45V114.839ZM114.352 121.602C114.275 121.602 114.204 121.571 114.139 121.508C114.088 121.458 114.062 121.395 114.062 121.32V116.398C114.062 116.323 114.088 116.261 114.139 116.211C114.204 116.148 114.275 116.117 114.352 116.117H116.248C116.325 116.117 116.389 116.148 116.441 116.211C116.506 116.261 116.538 116.323 116.538 116.398V119.686H126.558C126.635 119.686 126.699 119.711 126.751 119.761C126.815 119.824 126.848 119.893 126.848 119.968V121.32C126.848 121.395 126.815 121.458 126.751 121.508C126.699 121.571 126.635 121.602 126.558 121.602H114.352ZM120.426 110.105C121.818 110.105 122.811 110.018 123.405 109.842C124.011 109.667 124.314 109.392 124.314 109.016V106.668H116.538V109.016C116.538 109.392 116.834 109.667 117.428 109.842C118.034 110.018 119.033 110.105 120.426 110.105Z" fill="#B32C5B"/>
<path d="M101.616 108.415V109.392C101.616 109.63 101.739 109.918 101.984 110.256C102.229 110.594 102.526 110.939 102.874 111.29C103.235 111.64 103.615 111.978 104.015 112.304C104.428 112.617 104.795 112.874 105.118 113.074C105.208 113.124 105.253 113.206 105.253 113.318C105.253 113.406 105.227 113.475 105.176 113.525L104.073 114.69C104.009 114.752 103.944 114.784 103.88 114.784C103.802 114.784 103.738 114.759 103.686 114.708C102.887 114.12 102.19 113.544 101.597 112.98C101.004 112.404 100.604 111.916 100.398 111.515C100.282 111.715 100.101 111.96 99.8562 112.248C99.6241 112.523 99.3533 112.817 99.0438 113.13C98.7343 113.444 98.4054 113.763 98.0572 114.089C97.7091 114.402 97.3738 114.69 97.0514 114.953C96.9998 115.003 96.9289 115.028 96.8386 115.028C96.7613 115.028 96.6968 115.003 96.6452 114.953L95.5039 113.844C95.4395 113.794 95.4072 113.719 95.4072 113.619C95.4072 113.519 95.4459 113.437 95.5233 113.375C95.9617 113.049 96.3937 112.705 96.8193 112.341C97.2577 111.978 97.6446 111.621 97.9799 111.271C98.3281 110.92 98.6053 110.588 98.8116 110.275C99.0309 109.949 99.1405 109.668 99.1405 109.43V108.415H95.9102C95.8328 108.415 95.7618 108.39 95.6974 108.34C95.6458 108.278 95.62 108.209 95.62 108.134V106.819C95.62 106.743 95.6458 106.681 95.6974 106.631C95.7618 106.568 95.8328 106.537 95.9102 106.537H99.1405V104.715C99.1405 104.64 99.1663 104.577 99.2178 104.527C99.2823 104.464 99.3532 104.433 99.4306 104.433H101.326C101.404 104.433 101.468 104.464 101.52 104.527C101.584 104.577 101.616 104.64 101.616 104.715V106.537H104.847C104.924 106.537 104.989 106.568 105.04 106.631C105.105 106.681 105.137 106.743 105.137 106.819V108.134C105.137 108.209 105.105 108.278 105.04 108.34C104.989 108.39 104.924 108.415 104.847 108.415H101.616ZM107.4 104.846C107.4 104.771 107.426 104.708 107.477 104.658C107.542 104.596 107.613 104.564 107.69 104.564H109.586C109.663 104.564 109.728 104.596 109.779 104.658C109.844 104.708 109.876 104.771 109.876 104.846V116.662C109.876 116.737 109.844 116.806 109.779 116.869C109.728 116.919 109.663 116.944 109.586 116.944H107.69C107.613 116.944 107.542 116.919 107.477 116.869C107.426 116.806 107.4 116.737 107.4 116.662V110.933C107.232 111.07 107.052 111.158 106.858 111.196C106.678 111.233 106.478 111.258 106.259 111.271L104.847 111.327C104.769 111.327 104.698 111.302 104.634 111.252C104.569 111.202 104.537 111.139 104.537 111.064L104.479 109.674C104.479 109.599 104.505 109.536 104.557 109.486C104.621 109.424 104.692 109.392 104.769 109.392L105.93 109.336C106.446 109.311 106.813 109.242 107.033 109.129C107.252 109.016 107.374 108.835 107.4 108.584V104.846ZM98.6956 121.603C98.6182 121.603 98.5473 121.571 98.4828 121.509C98.4312 121.459 98.4054 121.396 98.4054 121.321V116.399C98.4054 116.324 98.4312 116.261 98.4828 116.211C98.5473 116.149 98.6182 116.117 98.6956 116.117H100.591C100.669 116.117 100.733 116.149 100.785 116.211C100.849 116.261 100.881 116.324 100.881 116.399V119.687H110.147C110.224 119.687 110.289 119.712 110.34 119.762C110.405 119.824 110.437 119.893 110.437 119.968V121.321C110.437 121.396 110.405 121.459 110.34 121.509C110.289 121.571 110.224 121.603 110.147 121.603H98.6956Z" fill="#B32C5B"/>
<path d="M89.6571 116.869C89.7344 116.869 89.7989 116.9 89.8505 116.963C89.915 117.013 89.9472 117.075 89.9472 117.15V118.541C89.9472 118.616 89.915 118.685 89.8505 118.747C89.7989 118.797 89.7344 118.822 89.6571 118.822H74.9562C74.8788 118.822 74.8079 118.797 74.7434 118.747C74.6918 118.685 74.666 118.616 74.666 118.541V117.15C74.666 117.075 74.6918 117.013 74.7434 116.963C74.8079 116.9 74.8788 116.869 74.9562 116.869H77.2774V111.289C77.2774 111.214 77.3031 111.152 77.3547 111.102C77.4192 111.039 77.4901 111.008 77.5675 111.008H79.4245C79.5018 111.008 79.5663 111.039 79.6179 111.102C79.6824 111.152 79.7146 111.214 79.7146 111.289V116.869H81.6876V111.289C81.6876 111.214 81.7134 111.152 81.765 111.102C81.8295 111.039 81.9004 111.008 81.9778 111.008H83.8347C83.9121 111.008 83.9766 111.039 84.0282 111.102C84.0926 111.152 84.1249 111.214 84.1249 111.289V116.869H89.6571ZM86.0399 114.671C85.8722 114.633 85.7884 114.546 85.7884 114.408C85.7884 114.37 85.7948 114.339 85.8077 114.314C85.9496 113.8 86.0592 113.231 86.1366 112.604C86.214 111.966 86.2526 111.195 86.2526 110.294V106.856H76.1748C76.0974 106.856 76.0265 106.831 75.962 106.781C75.9104 106.718 75.8846 106.649 75.8846 106.574V105.222C75.8846 105.147 75.9104 105.084 75.962 105.034C76.0265 104.971 76.0974 104.94 76.1748 104.94H88.4384C88.5158 104.94 88.5803 104.971 88.6319 105.034C88.6963 105.084 88.7286 105.147 88.7286 105.222V109.993C88.7286 110.532 88.7092 111.102 88.6705 111.703C88.6319 112.291 88.5738 112.836 88.4965 113.337C88.4191 113.825 88.3224 114.232 88.2063 114.558C88.1031 114.871 87.9806 115.028 87.8388 115.028C87.8259 115.028 87.813 115.028 87.8001 115.028C87.8001 115.015 87.7937 115.009 87.7808 115.009L86.0399 114.671Z" fill="#B32C5B"/>
<path d="M66.1279 110.388C66.1279 110.901 66.0183 111.396 65.799 111.872C65.5927 112.335 65.2961 112.748 64.9093 113.112C64.5224 113.462 64.0581 113.75 63.5165 113.976C62.9749 114.189 62.3817 114.295 61.737 114.295C61.0922 114.295 60.499 114.189 59.9574 113.976C59.4158 113.75 58.9515 113.456 58.5647 113.093C58.1778 112.73 57.8747 112.316 57.6555 111.853C57.4492 111.377 57.346 110.889 57.346 110.388C57.346 109.924 57.417 109.498 57.5588 109.11C57.7136 108.722 57.9199 108.371 58.1778 108.058H56.7657C56.6884 108.058 56.6174 108.033 56.553 107.983C56.5014 107.921 56.4756 107.852 56.4756 107.776V106.462C56.4756 106.386 56.5014 106.324 56.553 106.274C56.6174 106.211 56.6884 106.18 56.7657 106.18H60.3829V104.47C60.3829 104.395 60.4087 104.332 60.4603 104.282C60.5248 104.22 60.5957 104.188 60.6731 104.188H62.53C62.6074 104.188 62.6719 104.22 62.7235 104.282C62.7879 104.332 62.8202 104.395 62.8202 104.47V106.18H66.7082C66.7855 106.18 66.85 106.211 66.9016 106.274C66.9661 106.324 66.9983 106.386 66.9983 106.462V107.776C66.9983 107.852 66.9661 107.921 66.9016 107.983C66.85 108.033 66.7855 108.058 66.7082 108.058H65.2768C65.5476 108.371 65.7539 108.722 65.8958 109.11C66.0505 109.498 66.1279 109.924 66.1279 110.388ZM58.7968 115.929C58.7968 115.854 58.8226 115.792 58.8741 115.741C58.9386 115.679 59.0096 115.648 59.0869 115.648H70.6929C70.7703 115.648 70.8347 115.679 70.8863 115.741C70.9508 115.792 70.983 115.854 70.983 115.929V121.603C70.983 121.678 70.9508 121.74 70.8863 121.79C70.8347 121.853 70.7703 121.884 70.6929 121.884H68.7972C68.7199 121.884 68.649 121.853 68.5845 121.79C68.5329 121.74 68.5071 121.678 68.5071 121.603V117.564H59.0869C59.0096 117.564 58.9386 117.539 58.8741 117.489C58.8226 117.426 58.7968 117.357 58.7968 117.282V115.929ZM70.983 114.614C70.983 114.689 70.9508 114.758 70.8863 114.821C70.8347 114.871 70.7703 114.896 70.6929 114.896H68.7972C68.7199 114.896 68.649 114.871 68.5845 114.821C68.5329 114.758 68.5071 114.689 68.5071 114.614V104.846C68.5071 104.771 68.5329 104.708 68.5845 104.658C68.649 104.595 68.7199 104.564 68.7972 104.564H70.6929C70.7703 104.564 70.8347 104.595 70.8863 104.658C70.9508 104.708 70.983 104.771 70.983 104.846V108.171C71.3054 107.833 71.7245 107.645 72.2404 107.607L73.0334 107.551C73.1108 107.551 73.1753 107.57 73.2269 107.607C73.2913 107.645 73.33 107.708 73.3429 107.795L73.459 109.317C73.459 109.492 73.3687 109.592 73.1882 109.617L72.3951 109.674C72.0082 109.699 71.6794 109.805 71.4086 109.993C71.1507 110.181 71.0088 110.394 70.983 110.632V114.614ZM61.737 112.529C62.3559 112.529 62.846 112.335 63.207 111.947C63.581 111.546 63.768 111.026 63.768 110.388C63.768 110.075 63.7164 109.78 63.6133 109.505C63.523 109.229 63.3876 108.985 63.207 108.772C63.0265 108.559 62.8137 108.39 62.5687 108.265C62.3237 108.14 62.0464 108.077 61.737 108.077C61.4275 108.077 61.1502 108.14 60.9052 108.265C60.6602 108.39 60.4474 108.559 60.2669 108.772C60.0863 108.985 59.9445 109.229 59.8413 109.505C59.751 109.78 59.7059 110.075 59.7059 110.388C59.7059 111.026 59.8864 111.546 60.2475 111.947C60.6215 112.335 61.118 112.529 61.737 112.529Z" fill="#B32C5B"/>
<path d="M50.5684 119.104C50.5684 119.179 50.5362 119.248 50.4717 119.31C50.4201 119.361 50.3556 119.386 50.2783 119.386H48.4987C48.4213 119.386 48.3504 119.361 48.2859 119.31C48.2343 119.248 48.2085 119.179 48.2085 119.104V114.126C47.7959 114.414 47.2994 114.652 46.7191 114.84C46.1388 115.015 45.4618 115.134 44.6881 115.196L41.419 115.422C41.3804 115.422 41.3417 115.428 41.303 115.441C41.2643 115.441 41.2256 115.441 41.1869 115.441C40.813 115.441 40.5422 115.359 40.3745 115.196C40.2069 115.034 40.123 114.815 40.123 114.539V105.315C40.123 105.24 40.1488 105.178 40.2004 105.128C40.2649 105.065 40.3358 105.034 40.4132 105.034H46.3903C46.4676 105.034 46.5321 105.065 46.5837 105.128C46.6482 105.178 46.6804 105.24 46.6804 105.315V106.705C46.6804 106.781 46.6482 106.85 46.5837 106.912C46.5321 106.962 46.4676 106.987 46.3903 106.987H42.4829V113.412L44.7074 113.262C45.8809 113.186 46.7578 112.967 47.3381 112.604C47.9184 112.241 48.2085 111.871 48.2085 111.496V104.846C48.2085 104.771 48.2343 104.708 48.2859 104.658C48.3504 104.595 48.4213 104.564 48.4987 104.564H50.2783C50.3556 104.564 50.4201 104.595 50.4717 104.658C50.5362 104.708 50.5684 104.771 50.5684 104.846V108.885H52.2706V104.846C52.2706 104.771 52.2964 104.708 52.348 104.658C52.4125 104.595 52.4834 104.564 52.5608 104.564H54.3404C54.4177 104.564 54.4822 104.595 54.5338 104.658C54.5983 104.708 54.6305 104.771 54.6305 104.846V119.104C54.6305 119.179 54.5983 119.248 54.5338 119.31C54.4822 119.361 54.4177 119.386 54.3404 119.386H52.5608C52.4834 119.386 52.4125 119.361 52.348 119.31C52.2964 119.248 52.2706 119.179 52.2706 119.104V110.876H50.5684V119.104Z" fill="#B32C5B"/>
<path d="M33.9456 105.035C33.9456 104.96 33.9714 104.897 34.023 104.847C34.0874 104.784 34.1584 104.753 34.2357 104.753H36.0927C36.1701 104.753 36.2345 104.784 36.2861 104.847C36.3506 104.897 36.3828 104.96 36.3828 105.035V108.754C36.3828 109.268 36.2861 109.706 36.0927 110.069C35.8993 110.432 35.5769 110.739 35.1255 110.99C34.6742 111.228 34.0745 111.422 33.3266 111.572C32.5916 111.722 31.6824 111.854 30.5992 111.967C30.496 111.979 30.3993 111.992 30.309 112.004C30.2317 112.004 30.1479 112.004 30.0576 112.004C29.9673 112.004 29.877 112.004 29.7868 112.004C29.7094 111.992 29.6191 111.979 29.516 111.967C28.4328 111.854 27.5172 111.722 26.7692 111.572C26.0342 111.422 25.441 111.228 24.9896 110.99C24.5383 110.739 24.2159 110.439 24.0225 110.088C23.8291 109.725 23.7323 109.28 23.7323 108.754V105.035C23.7323 104.96 23.7581 104.897 23.8097 104.847C23.8742 104.784 23.9451 104.753 24.0225 104.753H25.8794C25.9568 104.753 26.0213 104.784 26.0729 104.847C26.1373 104.897 26.1696 104.96 26.1696 105.035V106.368H33.9456V105.035ZM37.6982 114.371C37.6982 114.446 37.6659 114.515 37.6015 114.578C37.5499 114.628 37.4854 114.653 37.408 114.653H31.2956V116.024H36.0927C36.1701 116.024 36.2345 116.055 36.2861 116.118C36.3506 116.168 36.3828 116.231 36.3828 116.306V121.603C36.3828 121.679 36.3506 121.741 36.2861 121.791C36.2345 121.854 36.1701 121.885 36.0927 121.885H34.197C34.1197 121.885 34.0487 121.854 33.9843 121.791C33.9327 121.741 33.9069 121.679 33.9069 121.603V117.94H23.9258C23.8484 117.94 23.7775 117.915 23.713 117.865C23.6614 117.802 23.6356 117.734 23.6356 117.658V116.306C23.6356 116.231 23.6614 116.168 23.713 116.118C23.7775 116.055 23.8484 116.024 23.9258 116.024H28.8196V114.653H22.7071C22.6298 114.653 22.5588 114.628 22.4944 114.578C22.4428 114.515 22.417 114.446 22.417 114.371V113.018C22.417 112.943 22.4428 112.881 22.4944 112.831C22.5588 112.768 22.6298 112.737 22.7071 112.737H37.408C37.4854 112.737 37.5499 112.768 37.6015 112.831C37.6659 112.881 37.6982 112.943 37.6982 113.018V114.371ZM33.9456 108.247H26.1696V108.754C26.1696 108.967 26.2341 109.149 26.363 109.299C26.5049 109.449 26.7305 109.581 27.04 109.693C27.3495 109.806 27.7493 109.9 28.2393 109.975C28.7422 110.05 29.3483 110.113 30.0576 110.163C30.7668 110.113 31.3665 110.05 31.8565 109.975C32.3594 109.9 32.7656 109.806 33.0751 109.693C33.3846 109.581 33.6039 109.449 33.7328 109.299C33.8747 109.149 33.9456 108.967 33.9456 108.754V108.247Z" fill="#B32C5B"/>
<path d="M17.4184 118.653C17.4184 119.179 17.3023 119.667 17.0702 120.118C16.8381 120.569 16.5092 120.963 16.0837 121.301C15.671 121.639 15.1681 121.902 14.5749 122.09C13.9946 122.278 13.3498 122.372 12.6406 122.372C11.9313 122.372 11.2801 122.272 10.6869 122.072C10.1066 121.884 9.6037 121.621 9.17815 121.283C8.76549 120.957 8.4431 120.569 8.21098 120.118C7.97886 119.667 7.8628 119.179 7.8628 118.653C7.8628 118.214 7.94662 117.801 8.11427 117.413C8.28191 117.012 8.52048 116.655 8.82997 116.342C9.13946 116.029 9.50698 115.76 9.93253 115.534C10.371 115.309 10.861 115.146 11.4026 115.046V114.332H5.29015C5.21278 114.332 5.14185 114.307 5.07737 114.257C5.02579 114.194 5 114.125 5 114.05V112.698C5 112.622 5.02579 112.56 5.07737 112.51C5.14185 112.447 5.21278 112.416 5.29015 112.416H19.991C20.0684 112.416 20.1329 112.447 20.1845 112.51C20.2489 112.56 20.2812 112.622 20.2812 112.698V114.05C20.2812 114.125 20.2489 114.194 20.1845 114.257C20.1329 114.307 20.0684 114.332 19.991 114.332H13.8786V115.046C14.4073 115.146 14.8909 115.309 15.3293 115.534C15.7678 115.76 16.1417 116.029 16.4512 116.342C16.7607 116.655 16.9993 117.012 17.1669 117.413C17.3346 117.801 17.4184 118.214 17.4184 118.653ZM18.9658 105.597C19.0432 105.597 19.1077 105.628 19.1593 105.691C19.2238 105.741 19.256 105.803 19.256 105.879V107.194C19.256 107.269 19.2238 107.338 19.1593 107.4C19.1077 107.45 19.0432 107.475 18.9658 107.475H13.8979V107.588C13.8979 107.813 13.9817 108.014 14.1494 108.189C14.3299 108.364 14.6265 108.54 15.0392 108.715C15.4647 108.878 16.0257 109.041 16.722 109.204C17.4313 109.366 18.3211 109.542 19.3914 109.73C19.5719 109.78 19.6622 109.874 19.6622 110.011C19.6622 110.036 19.6558 110.055 19.6429 110.068C19.6429 110.068 19.6429 110.08 19.6429 110.105L19.2753 111.401C19.2366 111.552 19.1399 111.627 18.9852 111.627C18.9723 111.627 18.9594 111.627 18.9465 111.627C18.9336 111.614 18.9207 111.608 18.9078 111.608C17.7343 111.358 16.7801 111.145 16.045 110.969C15.3229 110.782 14.7361 110.612 14.2848 110.462C13.8463 110.299 13.511 110.143 13.2789 109.993C13.0468 109.83 12.834 109.648 12.6406 109.448C12.4343 109.673 12.2021 109.874 11.9442 110.049C11.6992 110.212 11.351 110.381 10.8997 110.556C10.4484 110.719 9.86161 110.9 9.13946 111.101C8.43021 111.289 7.50818 111.514 6.37337 111.777C6.34758 111.79 6.30889 111.796 6.25731 111.796C6.11546 111.796 6.03164 111.727 6.00585 111.589L5.61898 110.274C5.61898 110.262 5.61254 110.249 5.59964 110.237C5.59964 110.224 5.59964 110.212 5.59964 110.199C5.59964 110.036 5.68991 109.936 5.87045 109.899C6.96657 109.673 7.86925 109.467 8.57851 109.279C9.28776 109.091 9.84871 108.909 10.2614 108.734C10.6869 108.546 10.9771 108.364 11.1318 108.189C11.2995 108.001 11.3833 107.801 11.3833 107.588V107.475H6.31534C6.23797 107.475 6.16704 107.45 6.10257 107.4C6.05098 107.338 6.02519 107.269 6.02519 107.194V105.879C6.02519 105.803 6.05098 105.741 6.10257 105.691C6.16704 105.628 6.23797 105.597 6.31534 105.597H11.4026V104.282C11.4026 104.207 11.4284 104.144 11.48 104.094C11.5445 104.031 11.6154 104 11.6928 104H13.5884C13.6658 104 13.7303 104.031 13.7818 104.094C13.8463 104.144 13.8786 104.207 13.8786 104.282V105.597H18.9658ZM12.6406 120.569C13.3756 120.569 13.9559 120.387 14.3815 120.024C14.807 119.673 15.0198 119.216 15.0198 118.653C15.0198 118.102 14.807 117.644 14.3815 117.281C13.9559 116.918 13.3756 116.736 12.6406 116.736C11.9055 116.736 11.3252 116.918 10.8997 117.281C10.4741 117.644 10.2614 118.102 10.2614 118.653C10.2614 119.216 10.4741 119.673 10.8997 120.024C11.3252 120.387 11.9055 120.569 12.6406 120.569Z" fill="#B32C5B"/>
<path d="M57.7113 88.9377L64.7724 85.4743C65.5271 85.1021 66.0026 84.3474 66.0026 83.51V70.1735C66.0026 65.3558 69.9209 61.4479 74.7385 61.4479C79.5562 61.4479 83.4745 65.3558 83.4745 70.1735V83.51C83.4745 84.3474 83.95 85.1125 84.7047 85.4743L91.7658 88.9377C92.6343 89.3719 93.6578 88.7309 93.6578 87.7591V70.1735C93.6578 59.7318 85.1906 51.2646 74.7385 51.2646C64.2865 51.2646 55.8193 59.7318 55.8193 70.1735V87.7591C55.8193 88.7309 56.8428 89.3719 57.7113 88.9377Z" fill="#B32C5B"/>
<path d="M83.2991 40.8952L90.3603 44.3586C91.115 44.7308 91.5905 45.4855 91.5905 46.3229V59.6594C91.5905 64.477 95.5088 68.3849 100.326 68.3849C105.144 68.3849 109.062 64.477 109.062 59.6594V46.3229C109.062 45.4855 109.538 44.7204 110.293 44.3586L117.354 40.8952C118.222 40.4714 119.246 41.102 119.246 42.0738V59.6594C119.246 70.1115 110.779 78.5682 100.326 78.5682C89.8743 78.5682 81.4072 70.1011 81.4072 59.6594V42.0738C81.4072 41.102 82.4307 40.461 83.2991 40.8952Z" fill="#B32C5B"/>
<path d="M23.6567 51.2534C12.9565 51.2534 4.33428 60.1341 4.75815 70.917C5.13033 80.6351 12.9978 88.5853 22.7056 89.0608C29.0533 89.371 34.7498 86.5589 38.3992 82.0204C38.9058 81.3898 38.73 80.4386 38.0167 80.0561C35.825 78.8569 33.84 77.3164 32.1445 75.4969C31.6793 74.9903 30.8832 75.0317 30.4593 75.5693C28.7122 77.7817 25.9105 79.1153 22.8089 78.8258C18.7563 78.4433 15.4584 75.2074 15.0138 71.1651C14.4349 65.9236 18.5289 61.4781 23.6567 61.4781C27.089 61.4781 30.0458 63.463 31.4518 66.3474L40.6116 61.8606C37.5308 55.5852 31.1107 51.2638 23.6567 51.2638V51.2534Z" fill="#B32C5B"/>
<path d="M50.4016 40.7803C46.8038 40.5426 43.4025 41.3283 40.4561 42.8584V26.317C40.4561 25.3452 39.4326 24.7042 38.5642 25.1384L31.4617 28.6224C30.707 28.9946 30.2314 29.7493 30.2314 30.5867V59.6479C30.2314 70.1 38.6986 78.5671 49.1507 78.5671C59.6027 78.5671 68.4421 69.7174 68.0595 58.9552C67.7184 49.3302 60.0163 41.3903 50.4016 40.77V40.7803ZM49.1507 68.3838C44.3226 68.3838 40.4147 64.4759 40.4147 59.6479C40.4147 54.8198 44.3226 50.9119 49.1507 50.9119C53.9787 50.9119 57.8866 54.8198 57.8866 59.6479C57.8866 64.4759 53.9787 68.3838 49.1507 68.3838Z" fill="#B32C5B"/>
<path d="M41.2212 81.5035C40.9627 81.4104 40.6836 81.5035 40.5285 81.7206C39.8255 82.7441 39.0191 83.7262 38.1093 84.636C34.1187 88.6266 28.8875 90.6219 23.646 90.6219C18.4044 90.6219 13.1732 88.6266 9.18258 84.636C1.2117 76.6651 1.2117 63.6801 9.18258 55.7093C13.1732 51.7186 18.4044 49.7233 23.646 49.7233C28.8875 49.7233 34.1187 51.7186 38.1093 55.7093L38.9571 54.8615C34.739 50.6434 29.1873 48.5344 23.646 48.5344C18.1046 48.5344 12.5632 50.6434 8.33484 54.8615C-0.111612 63.2976 -0.111612 77.0373 8.33484 85.4838C12.5529 89.7018 18.0943 91.8108 23.646 91.8108C29.1977 91.8108 34.7287 89.7018 38.9571 85.4838C39.9185 84.5223 40.7663 83.4781 41.5003 82.3926C41.7174 82.0721 41.583 81.6379 41.2212 81.5035C41.2212 81.5035 41.2212 81.5035 41.2108 81.5035H41.2212Z" fill="#B32C5B"/>
<path d="M30.2314 52.4312V59.6578C30.2314 62.0149 30.6657 64.2687 31.4514 66.3467L39.4119 62.4388C40.0942 62.1079 40.363 61.2602 39.9805 60.6089C37.7888 56.8664 34.3461 53.951 30.2314 52.4209V52.4312Z" fill="#891441"/>
<path d="M81.4072 52.4734V59.6689C81.4072 67.7638 86.4937 74.6699 93.6479 77.3682V70.1727C93.6479 62.0777 88.5614 55.1717 81.4072 52.4734Z" fill="#891441"/>
<path d="M68.0699 59.6581C68.0699 57.3009 67.6357 55.0575 66.85 52.9795C60.3368 55.9673 55.8086 62.5321 55.8086 70.1722V77.3677C62.9627 74.6694 68.0596 67.7634 68.0596 59.6581H68.0699Z" fill="#891441"/>
<path d="M125.245 53C135.739 53 144.245 61.5066 144.245 72C144.245 82.4934 135.739 91 125.245 91C114.752 91 106.245 82.4934 106.245 72C106.245 61.5066 114.752 53 125.245 53ZM125.245 64C120.827 64 117.245 67.5817 117.245 72C117.245 76.4183 120.827 80 125.245 80C129.663 80 133.245 76.4183 133.245 72C133.245 67.5817 129.663 64 125.245 64Z" fill="#B32C5B"/>
<mask id="mask0_59_2754" style="mask-type:alpha" maskUnits="userSpaceOnUse" x="2" y="25" width="118" height="67">
<path d="M57.7113 88.9377L64.7724 85.4743C65.5271 85.1021 66.0026 84.3474 66.0026 83.51V70.1735C66.0026 65.3558 69.9209 61.4479 74.7385 61.4479C79.5562 61.4479 83.4745 65.3558 83.4745 70.1735V83.51C83.4745 84.3474 83.95 85.1125 84.7047 85.4743L91.7658 88.9377C92.6343 89.3719 93.6578 88.7309 93.6578 87.7591V70.1735C93.6578 59.7318 85.1906 51.2646 74.7385 51.2646C64.2865 51.2646 55.8193 59.7318 55.8193 70.1735V87.7591C55.8193 88.7309 56.8428 89.3719 57.7113 88.9377Z" fill="#891441"/>
<path d="M83.2991 40.8952L90.3603 44.3586C91.115 44.7308 91.5905 45.4855 91.5905 46.3229V59.6594C91.5905 64.477 95.5088 68.3849 100.326 68.3849C105.144 68.3849 109.062 64.477 109.062 59.6594V46.3229C109.062 45.4855 109.538 44.7204 110.293 44.3586L117.354 40.8952C118.222 40.4714 119.246 41.102 119.246 42.0738V59.6594C119.246 70.1115 110.779 78.5682 100.326 78.5682C89.8743 78.5682 81.4072 70.1011 81.4072 59.6594V42.0738C81.4072 41.102 82.4307 40.461 83.2991 40.8952Z" fill="#891441"/>
<path d="M23.6567 51.2534C12.9565 51.2534 4.33428 60.1341 4.75815 70.917C5.13033 80.6351 12.9978 88.5853 22.7056 89.0608C29.0533 89.371 34.7498 86.5589 38.3992 82.0204C38.9058 81.3898 38.73 80.4386 38.0167 80.0561C35.825 78.8569 33.84 77.3164 32.1445 75.4969C31.6793 74.9903 30.8832 75.0317 30.4593 75.5693C28.7122 77.7817 25.9105 79.1153 22.8089 78.8258C18.7563 78.4433 15.4584 75.2074 15.0138 71.1651C14.4349 65.9236 18.5289 61.4781 23.6567 61.4781C27.089 61.4781 30.0458 63.463 31.4518 66.3474L40.6116 61.8606C37.5308 55.5852 31.1107 51.2638 23.6567 51.2638V51.2534Z" fill="#891441"/>
<path d="M50.4016 40.7803C46.8038 40.5426 43.4025 41.3283 40.4561 42.8584V26.317C40.4561 25.3452 39.4326 24.7042 38.5642 25.1384L31.4617 28.6224C30.707 28.9946 30.2314 29.7493 30.2314 30.5867V59.6479C30.2314 70.1 38.6986 78.5671 49.1507 78.5671C59.6027 78.5671 68.4421 69.7174 68.0595 58.9552C67.7184 49.3302 60.0163 41.3903 50.4016 40.77V40.7803ZM49.1507 68.3838C44.3226 68.3838 40.4147 64.4759 40.4147 59.6479C40.4147 54.8198 44.3226 50.9119 49.1507 50.9119C53.9787 50.9119 57.8866 54.8198 57.8866 59.6479C57.8866 64.4759 53.9787 68.3838 49.1507 68.3838Z" fill="#891441"/>
<path d="M41.2212 81.5035C40.9627 81.4104 40.6836 81.5035 40.5285 81.7206C39.8255 82.7441 39.0191 83.7262 38.1093 84.636C34.1187 88.6266 28.8875 90.6219 23.646 90.6219C18.4044 90.6219 13.1732 88.6266 9.18258 84.636C1.2117 76.6651 1.2117 63.6801 9.18258 55.7093C13.1732 51.7186 18.4044 49.7233 23.646 49.7233C28.8875 49.7233 34.1187 51.7186 38.1093 55.7093L38.9571 54.8615C34.739 50.6434 29.1873 48.5344 23.646 48.5344C18.1046 48.5344 12.5632 50.6434 8.33484 54.8615C-0.111612 63.2976 -0.111612 77.0373 8.33484 85.4838C12.5529 89.7018 18.0943 91.8108 23.646 91.8108C29.1977 91.8108 34.7287 89.7018 38.9571 85.4838C39.9185 84.5223 40.7663 83.4781 41.5003 82.3926C41.7174 82.0721 41.583 81.6379 41.2212 81.5035C41.2212 81.5035 41.2212 81.5035 41.2108 81.5035H41.2212Z" fill="#891441"/>
<path d="M30.2314 52.4312V59.6578C30.2314 62.0149 30.6657 64.2687 31.4514 66.3467L39.4119 62.4388C40.0942 62.1079 40.363 61.2602 39.9805 60.6089C37.7888 56.8664 34.3461 53.951 30.2314 52.4209V52.4312Z" fill="#891441"/>
<path d="M81.4072 52.4734V59.6689C81.4072 67.7638 86.4937 74.6699 93.6479 77.3682V70.1727C93.6479 62.0777 88.5614 55.1717 81.4072 52.4734Z" fill="#891441"/>
<path d="M68.0699 59.6581C68.0699 57.3009 67.6357 55.0575 66.85 52.9795C60.3368 55.9673 55.8086 62.5321 55.8086 70.1722V77.3677C62.9627 74.6694 68.0596 67.7634 68.0596 59.6581H68.0699Z" fill="#891441"/>
</mask>
<g mask="url(#mask0_59_2754)">
<path fill-rule="evenodd" clip-rule="evenodd" d="M125.245 53C135.739 53 144.245 61.5066 144.245 72C144.245 82.4934 135.739 91 125.245 91C114.752 91 106.245 82.4934 106.245 72C106.245 61.5066 114.752 53 125.245 53ZM125.245 64C120.827 64 117.245 67.5817 117.245 72C117.245 76.4183 120.827 80 125.245 80C129.663 80 133.245 76.4183 133.245 72C133.245 67.5817 129.663 64 125.245 64Z" fill="#891441"/>
</g>
</svg>
