<svg width="121" height="121" viewBox="0 0 121 121" fill="none" xmlns="http://www.w3.org/2000/svg">
<path d="M95.676 52.1927C95.676 52.1927 106.476 49.4127 120.566 57.7927C120.566 57.7927 113.536 20.6727 79.936 18.0427C79.936 18.0427 79.936 18.0427 79.936 18.0327C78.896 18.0127 77.816 17.9927 76.716 18.0027C67.406 18.0627 59.596 20.0027 53.126 23.0127C47.856 25.4727 43.476 28.6527 39.926 32.1327C38.816 33.2227 37.776 34.3427 36.826 35.4827C22.996 37.1327 2.09601 43.6227 0.106012 57.7827C-1.05399 65.9927 7.53601 70.4527 14.606 72.6027C18.136 73.8827 23.156 74.5927 27.156 74.9227C27.156 74.9227 27.206 74.9327 27.216 74.9427C27.216 75.0027 27.896 78.9327 28.836 81.4127C31.566 89.7727 36.946 97.7827 46.546 103.393C70.546 117.433 96.676 108.233 106.386 101.053C119.056 91.6827 122.196 73.6327 117.206 67.5727C112.306 61.6127 104.966 58.0927 86.126 59.5027C80.846 59.8927 76.396 60.6727 72.346 61.6327C61.496 64.2127 53.576 68.1527 40.446 69.7227C38.696 69.9327 36.926 70.0527 35.166 70.0527C35.146 70.0527 35.116 70.0527 35.096 70.0527C35.096 70.0527 35.146 70.0527 35.166 70.0527C34.796 67.9727 34.646 67.2327 34.726 65.4327C35.116 56.9227 36.536 48.6627 40.216 41.8627C46.876 42.0227 53.906 44.7027 55.326 49.4227C58.166 54.9027 49.316 56.6827 47.216 55.2227C50.226 64.2527 71.336 61.3527 73.146 51.9827C74.676 44.0527 61.256 35.6827 45.296 35.0927C49.236 31.4727 53.646 28.5227 61.646 27.0227C76.546 24.2327 93.066 30.6527 95.686 52.2027L95.676 52.1927ZM14.256 58.3927C14.616 50.1227 22.926 44.6927 31.876 42.6927C30.836 44.5827 29.986 46.4427 29.336 48.2027C27.426 53.3727 25.926 60.3227 26.656 69.1227C27.186 69.2427 27.736 69.3527 28.286 69.4527C28.076 69.4127 27.876 69.3827 27.676 69.3427C27.676 69.3427 27.666 69.3427 27.656 69.3427C27.316 69.2727 26.986 69.2027 26.656 69.1327C19.436 67.4627 13.986 64.7327 14.266 58.4027L14.256 58.3927ZM30.656 69.7927C30.566 69.7927 30.486 69.7727 30.396 69.7627C30.946 69.8227 31.496 69.8827 32.046 69.9227C31.996 69.9227 31.946 69.9227 31.896 69.9227C31.486 69.8927 31.066 69.8527 30.656 69.8027V69.7927ZM29.506 69.6527C29.166 69.6027 28.836 69.5527 28.506 69.4927C29.036 69.5827 29.576 69.6627 30.116 69.7327C29.996 69.7227 29.886 69.7027 29.766 69.6927C29.676 69.6827 29.586 69.6627 29.506 69.6527ZM60.726 71.6827C63.436 71.1627 66.086 70.6427 68.656 70.1527C86.486 66.7627 97.096 70.7627 97.706 78.3927C98.236 85.1327 95.396 93.9327 85.366 98.4827V71.4527L77.136 76.4127V100.893C76.226 101.043 75.256 101.163 74.266 101.253V77.3427L66.026 82.3027V101.363C65.176 101.283 64.336 101.173 63.526 101.043V82.9327L55.286 87.9027V98.4927C45.146 93.7227 38.726 84.0627 36.076 75.1827C36.066 75.1427 36.056 75.0927 36.036 75.0427C44.176 74.6927 52.666 73.2127 60.716 71.6727L60.726 71.6827ZM35.976 74.7627C35.716 73.7327 35.496 72.1627 35.316 70.9727C35.496 72.1627 35.716 73.7227 35.976 74.7627ZM36.036 74.9927C36.016 74.9227 35.996 74.8527 35.976 74.7727C35.996 74.8427 36.016 74.9227 36.036 74.9927ZM34.016 70.0227C33.496 70.0127 32.986 69.9827 32.466 69.9527C32.406 69.9527 32.346 69.9527 32.286 69.9427C32.866 69.9827 33.436 70.0127 34.026 70.0327L34.016 70.0227Z" fill="#231916"/>
</svg>
