<svg width="118" height="54" viewBox="0 0 118 54" fill="none" xmlns="http://www.w3.org/2000/svg">
<g clip-path="url(#clip0_147_40)">
<path d="M53.491 39.9913C54.5894 39.6925 55.6299 39.2398 56.6124 38.6301C57.6468 37.9842 58.5713 37.1994 59.389 36.2788L63.8865 39.9913C64.1672 40.1422 64.4419 40.1664 64.7104 40.0668C65.0429 39.943 65.3725 39.6382 65.7051 39.1522C65.8698 38.9409 65.94 38.7417 65.9156 38.5546C65.879 38.3675 65.7295 38.2196 65.4762 38.1079L60.0969 35.3281C60.1732 35.2164 60.3258 34.987 60.5576 34.6369C60.7224 34.4015 60.8445 34.2023 60.9207 34.0423C61.0367 33.7435 61.0855 33.5503 61.0733 33.4628C61.0367 33.2636 60.8353 33.1217 60.4783 33.0342H57.778C57.4332 33.0342 57.2288 33.173 57.1647 33.4447C57.1006 33.7193 57.2135 33.8793 57.5095 33.9306C57.8665 33.9548 58.0312 34.0664 58.0068 34.2656C57.9916 34.4286 57.8421 34.7123 57.5461 35.1228C56.884 36.0162 56.0327 36.8764 54.9983 37.6974C54.0158 38.4792 53.1798 38.9832 52.4902 39.2066C51.584 39.4299 51.2453 39.6985 51.4772 40.0094C51.7183 40.3203 52.3895 40.3143 53.488 39.9913H53.491Z" fill="white" fill-opacity="0.7"/>
<path d="M66.7944 40.9814H51.3827C51.166 40.9814 50.9921 41.0448 50.867 41.1686C50.7389 41.2803 50.6748 41.4432 50.6748 41.6545C50.6748 41.8658 50.7389 42.0348 50.867 42.1586C50.9952 42.2823 51.166 42.3457 51.3827 42.3457H57.7201V43.4896H53.1432C52.9632 43.4896 52.8107 43.547 52.6825 43.6587C52.5544 43.7824 52.4903 43.9333 52.4903 44.1054C52.4903 44.2925 52.5544 44.4404 52.6825 44.5521C52.8107 44.6758 52.9632 44.7392 53.1432 44.7392H62.7912V46.6679H52.6062C52.4933 46.6679 52.4079 46.6981 52.3591 46.7614C52.295 46.8128 52.2645 46.8973 52.2645 47.021C52.2645 47.1327 52.295 47.2263 52.3591 47.3017C52.411 47.3892 52.4933 47.4375 52.6062 47.4526L53.1432 47.5462V50.1268C53.1432 50.4377 53.2439 50.6882 53.4484 50.8723C53.6528 51.0715 53.9183 51.1711 54.2539 51.1711H65.5495C65.7662 51.1711 65.9401 51.1078 66.0682 50.984C66.1964 50.8603 66.2605 50.6912 66.2605 50.48C66.2605 50.2687 66.1964 50.0997 66.0682 49.9759C65.9401 49.8642 65.7692 49.8069 65.5495 49.8069H55.5201V47.9748H64.1521C64.4846 47.9748 64.7532 47.8752 64.9576 47.676C65.162 47.4889 65.2627 47.2414 65.2627 46.9305V44.537C65.2627 44.2261 65.159 43.9726 64.9576 43.7734C64.7532 43.5862 64.4877 43.4927 64.1521 43.4927H60.1519V42.3487H66.7944C67.0111 42.3487 67.188 42.2884 67.3314 42.1616C67.4596 42.0378 67.5237 41.8688 67.5237 41.6575C67.5237 41.4583 67.4596 41.2984 67.3314 41.1716C67.1911 41.0478 67.0111 40.9845 66.7944 40.9845V40.9814Z" fill="white" fill-opacity="0.7"/>
<path d="M80.3693 32.9436H78.3768C78.2761 32.9044 78.1602 33.0644 78.0381 33.1127C77.9283 33.1519 78.0076 33.1217 77.9374 33.2183C77.8672 33.2968 77.9374 33.3934 77.9588 33.4809C77.9771 33.5684 78.4104 33.5775 78.4928 33.6469L78.8589 33.7344V40.8485C78.6972 40.9179 78.5324 40.9662 78.3616 40.9964C78.1815 41.0356 77.9985 41.0537 77.8184 41.0537H69.0065C68.8356 41.0537 68.6983 41.102 68.6007 41.2016C68.5 41.2892 68.4512 41.419 68.4512 41.585C68.4512 41.751 68.5 41.8838 68.6007 41.9834C68.7014 42.08 68.8387 42.1313 69.0065 42.1313H77.8184C77.9985 42.1313 78.1693 42.1162 78.331 42.086C78.5416 42.0377 78.7185 41.9683 78.8589 41.8808V45.6295H79.9299C80.2228 45.6295 80.4333 45.5208 80.5645 45.3065C80.7263 45.062 80.8056 44.6485 80.8056 44.072V33.4839C80.8056 33.3571 80.7659 33.2424 80.6835 33.1459C80.6042 33.0583 80.4974 32.9889 80.3662 32.9406L80.3693 32.9436Z" fill="white" fill-opacity="0.7"/>
<path d="M70.5442 38.8172C71.2582 39.4541 72.2193 39.774 73.4276 39.774C74.6359 39.774 75.6153 39.4541 76.3385 38.8172C77.0036 38.2498 77.3332 37.5465 77.3332 36.7165C77.3728 35.9921 77.086 35.3432 76.4727 34.7757C75.8594 34.2264 75.0905 33.8884 74.166 33.7616V33.5563C74.166 33.4296 74.1141 33.3209 74.0134 33.2334C73.9127 33.1459 73.7785 33.1006 73.6046 33.1006C73.4307 33.1006 73.2994 33.1459 73.1988 33.2334C73.0981 33.3209 73.0462 33.4296 73.0462 33.5563V33.7616C71.6884 33.9306 70.712 34.3834 70.1201 35.1289C69.7082 35.639 69.5251 36.1672 69.577 36.7165C69.577 37.5495 69.9004 38.2498 70.5442 38.8172ZM72.0545 35.3341C72.4176 34.9417 72.9058 34.7455 73.5191 34.7455C74.1324 34.7455 74.6206 34.9417 74.9837 35.3341C75.3163 35.6963 75.4811 36.134 75.4811 36.644C75.4811 37.1541 75.3163 37.6039 74.9837 37.966C74.6206 38.3765 74.1324 38.5818 73.5191 38.5818C72.9058 38.5818 72.4176 38.3765 72.0545 37.966C71.7342 37.6039 71.5725 37.1632 71.5725 36.644C71.5725 36.1249 71.7342 35.6993 72.0545 35.3341Z" fill="white" fill-opacity="0.7"/>
<path d="M94.0295 36.3182C93.8129 36.3182 93.6329 36.3755 93.4925 36.4872C93.3644 36.611 93.3003 36.774 93.3003 36.9732C93.3003 37.1844 93.3644 37.3535 93.4925 37.4772C93.6329 37.601 93.8099 37.6644 94.0295 37.6644H96.2691V42.4423H97.5903C97.9473 42.4423 98.2158 42.3185 98.3928 42.068C98.5972 41.7692 98.6979 41.2923 98.6979 40.6313V33.0192C98.6979 32.8562 98.646 32.7204 98.5453 32.6087C98.4447 32.485 98.3074 32.4095 98.1426 32.3854H95.7291C95.6009 32.3733 95.4728 32.3854 95.3477 32.4216C95.2195 32.4578 95.1219 32.5152 95.0608 32.5906C94.9571 32.7265 94.9083 32.8502 94.9083 32.9649C94.9083 33.0645 94.9602 33.152 95.0608 33.2275L96.3424 33.3211V36.3242H94.0265L94.0295 36.3182Z" fill="white" fill-opacity="0.7"/>
<path d="M90.661 38.5364L93.0928 41.9501C93.3339 42.1251 93.5658 42.1915 93.7824 42.1553C94.0387 42.107 94.2492 41.932 94.414 41.6332C94.8351 41.111 95.067 40.7005 95.1036 40.4017C95.1402 40.1421 95.0395 39.9429 94.7985 39.8041L91.6008 37.6581C92.1866 36.8884 92.6412 36.2365 92.9616 35.6992C93.3308 35.1016 93.5932 34.5553 93.7458 34.0573C93.8617 33.7223 93.9044 33.4989 93.88 33.3842C93.8434 33.1971 93.6512 33.1035 93.3064 33.1035H85.1688C84.9522 33.1035 84.7782 33.1669 84.6501 33.2906C84.5219 33.4144 84.4578 33.5834 84.4578 33.7917C84.4578 33.9999 84.5219 34.172 84.6501 34.2957C84.7782 34.4074 84.9491 34.4648 85.1688 34.4648H90.7769C90.0996 35.995 89.1293 37.3442 87.8661 38.5123C86.8836 39.4328 85.6905 40.2659 84.287 41.0114C83.4967 41.2468 83.1458 41.5064 83.2343 41.7962C83.3106 42.0829 83.8262 42.1131 84.7843 41.8897C86.1116 41.4792 87.2406 40.9933 88.1742 40.4349C88.9126 40.0003 89.7426 39.3664 90.661 38.5334V38.5364Z" fill="white" fill-opacity="0.7"/>
<path d="M99.1222 47.6822H90.0295V43.2604C90.0295 43.1005 89.9777 42.9737 89.877 42.8892C89.7885 42.7896 89.6603 42.7383 89.4925 42.7383H86.3528C86.2125 42.7383 86.0904 42.7836 85.9897 42.8681C85.9012 42.9556 85.8555 43.0612 85.8555 43.185C85.8555 43.3238 85.9012 43.4446 85.9897 43.5562C86.0935 43.6679 86.2125 43.7434 86.3528 43.7826L87.616 43.8762V47.9599C87.616 48.2708 87.7167 48.5183 87.9211 48.7054C88.1256 48.9046 88.388 49.0042 88.7053 49.0042H99.1191C99.3114 49.0042 99.47 48.9439 99.5982 48.8171C99.7263 48.6933 99.7904 48.5454 99.7904 48.3704C99.7904 48.1712 99.7263 48.0022 99.5982 47.8663C99.47 47.7426 99.3114 47.6792 99.1191 47.6792L99.1222 47.6822Z" fill="white" fill-opacity="0.7"/>
<path d="M117.808 38.8511C117.695 38.7274 117.533 38.664 117.329 38.664H114.897V32.9655C114.897 32.8055 114.851 32.6607 114.763 32.5369C114.674 32.4132 114.558 32.3256 114.418 32.2773H111.815C111.69 32.229 111.547 32.2321 111.394 32.2954C111.254 32.3468 111.138 32.4252 111.049 32.5369C110.961 32.6365 110.927 32.7482 110.955 32.8719C110.967 32.9836 111.031 33.0832 111.147 33.1708L112.428 33.2643V41.0334C112.148 41.2205 111.815 41.3563 111.434 41.4438C111.013 41.5314 110.387 41.6008 109.557 41.6491H103.623V36.9496H109.118C109.334 36.9496 109.508 36.8863 109.633 36.7625C109.762 36.6508 109.826 36.4878 109.826 36.2766C109.826 36.0653 109.762 35.8993 109.633 35.7725C109.505 35.6488 109.334 35.5854 109.118 35.5854H100.657C100.529 35.5854 100.416 35.6306 100.312 35.7152C100.224 35.8027 100.178 35.9144 100.178 36.0502C100.178 36.186 100.224 36.3098 100.312 36.4245C100.4 36.5361 100.516 36.6237 100.657 36.684L101.383 36.9466V42.0747C101.383 42.3855 101.487 42.633 101.688 42.8202C101.893 43.0194 102.155 43.119 102.472 43.119H109.554C110.28 43.119 110.851 43.0767 111.257 42.9892C111.653 42.9017 112.041 42.7357 112.425 42.4852V44.3686H113.805C114.137 44.3686 114.399 44.275 114.589 44.0879C114.793 43.8887 114.897 42.5968 114.897 42.2859V39.9649H117.329C117.533 39.9649 117.692 39.9075 117.808 39.7959C117.936 39.6721 118 39.5212 118 39.3461C118 39.1349 117.936 38.9689 117.808 38.8421V38.8511Z" fill="white" fill-opacity="0.7"/>
<path d="M15.4667 39.0138C15.3935 39.0802 15.2959 39.1103 15.1708 39.1103H11.2133V40.7131C11.2133 40.8821 11.1554 41.0149 11.0394 41.1115C10.9235 41.2141 10.7709 41.2654 10.5787 41.2654H9.8891V39.1103H5.75774C5.63569 39.1103 5.53195 39.0802 5.45262 39.0138C5.37939 38.9504 5.34277 38.8628 5.34277 38.7512C5.34277 38.6486 5.37939 38.564 5.45262 38.5007C5.53195 38.4343 5.63569 38.4041 5.75774 38.4041H12.5132C12.5772 38.235 12.6291 38.063 12.6657 37.8879C12.7023 37.7068 12.7206 37.5258 12.7206 37.3447V35.5488H6.83787C6.70667 35.5488 6.59988 35.5126 6.52055 35.4431C6.43206 35.3647 6.38934 35.2711 6.38934 35.1624C6.38934 35.0538 6.43206 34.9632 6.52055 34.8908C6.59988 34.8214 6.70667 34.7852 6.83787 34.7852H13.4865C13.6757 34.7852 13.8252 34.8365 13.935 34.9391C14.051 35.0357 14.1089 35.1685 14.1089 35.3375V37.23C14.1089 37.4624 14.0815 37.6797 14.0235 37.8819C13.9777 38.0509 13.9076 38.226 13.8038 38.4071H15.1708C15.2959 38.4071 15.3935 38.4403 15.4667 38.5037C15.54 38.561 15.5766 38.6455 15.5766 38.7542C15.5766 38.8628 15.54 38.9534 15.4667 39.0168V39.0138ZM14.7344 43.013C14.6612 43.0824 14.5636 43.1216 14.4385 43.1216H7.55186C7.36268 43.1216 7.21012 43.0733 7.09418 42.9768C6.97823 42.8711 6.91721 42.7413 6.91721 42.5784V40.5018L6.34968 40.4535C6.2917 40.4324 6.25204 40.4082 6.22763 40.375C6.18491 40.3237 6.16355 40.2543 6.16355 40.1698C6.16355 40.1185 6.18491 40.0732 6.22763 40.0339C6.27035 40.0007 6.32527 39.9856 6.39239 39.9856H7.97598C8.06447 39.9856 8.13464 40.0128 8.19567 40.0641C8.25364 40.1094 8.2811 40.1728 8.2811 40.2573V42.3822H14.4354C14.5605 42.3822 14.6582 42.4154 14.7314 42.4787C14.8046 42.5421 14.8412 42.6297 14.8412 42.7413C14.8412 42.859 14.8046 42.9496 14.7314 43.013H14.7344Z" fill="white" fill-opacity="0.7"/>
<path d="M22.6889 39.6743C22.5364 39.7256 22.3777 39.7135 22.2191 39.6351L20.2724 37.0816C19.8116 37.7939 19.3784 38.313 18.9695 38.636C18.6339 38.8956 18.164 39.128 17.5598 39.3362C16.9313 39.5053 16.5529 39.5083 16.4217 39.3453C16.2905 39.1763 16.4828 39.0344 17.0015 38.9167C17.4012 38.7628 17.7765 38.4911 18.1274 38.1018C18.5149 37.6671 18.9542 37.0091 19.4485 36.1218C19.5645 35.7415 19.6225 35.5242 19.6225 35.4728C19.6225 35.3431 19.5248 35.2736 19.3265 35.2585C19.1587 35.2253 19.0946 35.1408 19.1312 35.005C19.1678 34.8692 19.2838 34.7998 19.4821 34.7998H21.023C21.2335 34.845 21.3464 34.9145 21.3617 35.0141C21.3708 35.0593 21.3403 35.1559 21.2732 35.3038C21.142 35.5242 21.0657 35.657 21.0443 35.7022C20.9345 35.9226 20.8155 36.2214 20.6843 36.5956L23.1344 38.6541C23.2717 38.7115 23.3511 38.7899 23.3755 38.8865C23.3968 38.9831 23.3572 39.0887 23.2565 39.1974C23.0673 39.4509 22.8781 39.6079 22.6889 39.6743ZM25.9232 43.0216C25.85 43.0849 25.7585 43.1181 25.6486 43.1181H19.5492C19.3662 43.1181 19.2166 43.0668 19.1007 42.9642C18.9848 42.8676 18.9268 42.7378 18.9268 42.5748V40.4681L18.1945 40.4017C18.1152 40.3806 18.048 40.3443 17.9992 40.284C17.9473 40.2266 17.9229 40.1602 17.9229 40.0908C17.9229 40.0274 17.9473 39.9701 17.9992 39.9248C18.0572 39.8795 18.1213 39.8554 18.1945 39.8554H19.9856C20.0801 39.8554 20.1564 39.8825 20.2144 39.9339C20.2724 39.9791 20.3029 40.0425 20.3029 40.127V42.427H25.6486C25.7585 42.427 25.847 42.4602 25.9232 42.5235C25.9873 42.596 26.0209 42.6835 26.0209 42.7861C26.0209 42.8767 25.9873 42.9552 25.9232 43.0185V43.0216ZM26.9515 37.6369C26.8874 37.7003 26.7959 37.7335 26.6799 37.7335H25.3038V39.6954C25.3038 39.9912 25.2459 40.2296 25.1299 40.4047C25.014 40.5858 24.8614 40.6764 24.6722 40.6764H23.8972V35.0744L23.1649 35.0352C23.107 35.002 23.0703 34.9537 23.0551 34.8903C23.0398 34.8269 23.0581 34.7666 23.11 34.7153C23.168 34.6489 23.2351 34.6006 23.3053 34.5704C23.3938 34.5311 23.4731 34.5221 23.5463 34.5402L25.0231 34.5493C25.1055 34.5825 25.1696 34.6277 25.2215 34.6851C25.2794 34.7545 25.3099 34.83 25.3099 34.9084V37.0544H26.686C26.802 37.0544 26.8935 37.0846 26.9576 37.142C27.0308 37.2053 27.0674 37.2838 27.0674 37.3744C27.0674 37.483 27.0308 37.5736 26.9576 37.6369H26.9515Z" fill="white" fill-opacity="0.7"/>
<path d="M107.171 49.4145C107.171 50.8361 107.983 52.309 110.265 52.3483C112.654 52.3875 113.405 50.815 113.237 49.4417C113.057 47.9416 111.001 48.0895 110.607 48.7927C110.607 48.7927 110.119 49.4175 110.485 50.0091C110.714 50.3743 110.714 50.4437 109.933 50.3079C109.087 50.16 107.989 48.829 109.64 47.4134C111.327 45.9646 115.147 46.6558 115.645 49.0493C116.142 51.4428 113.878 54.0415 110.479 54.0023C106.671 53.957 104.495 51.9318 104.678 49.2545C104.858 46.5743 107.306 45.4787 110.345 45.0742C111.483 44.9233 112.09 44.5672 112.386 43.9243C112.874 42.8498 112.52 41.3014 112.52 40.9482H114.879V43.1244C114.879 43.8971 114.455 45.5873 111.602 45.8711C108.746 46.1548 107.174 47.7122 107.174 49.4175L107.171 49.4145Z" fill="white" fill-opacity="0.7"/>
<path d="M103.11 40.0371L103.626 40.6408C103.626 40.6408 103.437 41.7213 104.681 41.6519C106.46 41.5493 103.806 42.2918 103.806 42.2918C103.806 42.2918 103.443 42.3944 103.293 42.1891C103.141 41.9809 103.11 40.0371 103.11 40.0371Z" fill="white" fill-opacity="0.7"/>
<path d="M43.1169 37.031C43.1169 37.5773 42.6012 38.021 41.9605 38.021C41.3197 38.021 40.8071 37.5773 40.8071 37.031C40.8071 36.4847 41.3228 36.041 41.9605 36.041C42.5982 36.041 43.1169 36.4847 43.1169 37.031Z" fill="white" fill-opacity="0.7"/>
<path d="M43.1169 40.656C43.1169 41.2023 42.6012 41.646 41.9605 41.646C41.3197 41.646 40.8071 41.2023 40.8071 40.656C40.8071 40.1097 41.3228 39.666 41.9605 39.666C42.5982 39.666 43.1169 40.1067 43.1169 40.656Z" fill="white" fill-opacity="0.7"/>
<path d="M34.5703 27.7314C33.7404 27.7314 33.4078 28.7124 33.8411 29.5877C34.2743 30.463 33.9051 31.0485 33.1484 31.6884C32.3917 32.3283 28.7638 33.1523 28.7547 37.393C28.7425 42.0079 32.6328 43.2062 35.1134 43.0251C37.89 42.8228 40.2517 40.9907 40.3341 37.4654C40.4012 34.6041 37.771 33.3907 36.3309 33.3907C34.8907 33.3907 32.8158 34.4622 33.0477 36.6897C33.24 38.5218 34.8419 37.9785 34.8419 37.9785C34.8419 37.9785 35.0829 37.7883 34.8144 37.3628C34.6588 37.1123 34.5123 35.9895 35.5955 35.6212C36.6756 35.25 37.7649 35.8174 38.0731 37.2752C38.3569 38.6244 37.5178 41.4405 34.7168 41.2624C31.4672 41.0541 30.5549 37.6827 31.4581 35.1926C32.3612 32.6995 34.9578 32.4068 35.7145 31.7759C36.8953 30.795 36.9411 29.1983 36.1844 28.4226C35.565 27.7314 34.5673 27.7314 34.5673 27.7314H34.5703Z" fill="white" fill-opacity="0.7"/>
<path d="M45.634 32.7931H43.1564C43.1564 32.7931 42.8391 32.7719 42.8391 33.1734C42.8391 33.7951 43.9559 33.5869 43.9559 34.3505V49.5445H45.0451C45.0451 49.5445 45.9971 49.4147 46.1039 48.4157C46.2107 47.4196 46.1039 45.334 46.1039 45.334V33.9098C46.1039 33.4842 46.1772 33.0315 45.634 32.79V32.7931Z" fill="white" fill-opacity="0.7"/>
<path d="M49.3506 32.7931H46.873C46.873 32.7931 46.5557 32.772 46.5557 33.1735C46.5557 33.8465 47.6755 33.587 47.6755 34.3506V51.2529H48.7617C48.7617 51.2529 49.7137 51.1231 49.8174 50.1241C49.9242 49.1281 49.8174 45.3311 49.8174 45.3311V33.9069C49.8174 33.4813 49.8907 33.0286 49.3475 32.7871L49.3506 32.7931Z" fill="white" fill-opacity="0.7"/>
<path d="M78.8742 34.4166V40.4411H80.8026V34.0001C80.8026 33.5956 80.8697 33.167 80.3815 32.9406H78.1541C78.1541 32.9406 77.8704 32.9195 77.8704 33.3028C77.8704 33.8914 78.8742 33.6952 78.8742 34.4196V34.4166Z" fill="white" fill-opacity="0.7"/>
<path d="M2.39826 47.3077C1.96194 47.4315 1.55002 47.4918 1.16252 47.4918C0.814677 47.4918 0.533964 47.3983 0.320379 47.2141C0.106793 47.03 0 46.7674 0 46.4294C0 46.1095 0.0884855 45.8016 0.268508 45.5028C0.445479 45.207 0.683474 44.9716 0.976392 44.7995C1.26931 44.6275 1.6202 44.543 2.02296 44.543C2.28537 44.543 2.59354 44.5762 2.95053 44.6396L2.8712 44.9806C2.50811 44.8871 2.20604 44.8388 1.96499 44.8388C1.68428 44.8388 1.44018 44.9052 1.22659 45.041C1.01606 45.1738 0.839087 45.37 0.69873 45.6295C0.558374 45.8861 0.488196 46.1517 0.488196 46.4234C0.488196 46.6497 0.558374 46.8338 0.69873 46.9757C0.839087 47.1176 1.06488 47.19 1.37915 47.19C1.56223 47.19 1.76361 47.1568 1.9894 47.0904L2.18773 46.2241H2.64236L2.39826 47.3017V47.3077Z" fill="white" fill-opacity="0.7"/>
<path d="M5.34874 45.3643L4.8758 47.4257H4.44253L4.63475 46.5836C4.47609 46.8372 4.30522 47.0485 4.11299 47.2175C3.92382 47.3865 3.72854 47.471 3.53326 47.471C3.42952 47.471 3.34409 47.4408 3.27391 47.3805C3.20373 47.3201 3.17017 47.2175 3.17017 47.0756C3.17017 46.9911 3.17932 46.9126 3.19763 46.8402L3.53631 45.3643H3.97264L3.6309 46.8523C3.6248 46.8824 3.6187 46.9157 3.6187 46.9549C3.6187 47.0002 3.6309 47.0364 3.65226 47.0605C3.67667 47.0877 3.70413 47.0998 3.74074 47.0998C3.84754 47.0998 3.98179 47.0153 4.14351 46.8462C4.30522 46.6772 4.5066 46.4267 4.74765 46.0917L4.91547 45.3643H5.34874Z" fill="white" fill-opacity="0.7"/>
<path d="M5.87671 47.4222L6.34965 45.3607H6.78292L6.5907 46.2028C6.76156 45.9493 6.95379 45.738 7.16127 45.569C7.36876 45.3999 7.57929 45.3154 7.79593 45.3154C7.91188 45.3154 8.00341 45.3456 8.07664 45.406C8.14987 45.4663 8.18649 45.569 8.18649 45.7048C8.18649 45.7923 8.17733 45.8738 8.16208 45.9462L7.82339 47.4192H7.39012L7.73185 45.9312C7.73796 45.898 7.74406 45.8648 7.74406 45.8285C7.74406 45.7863 7.73185 45.7501 7.70439 45.7229C7.67693 45.6957 7.64642 45.6837 7.60675 45.6837C7.49081 45.6837 7.34435 45.7621 7.17043 45.9221C6.99651 46.0821 6.76461 46.3386 6.4778 46.6918L6.30998 47.4162H5.87671V47.4222Z" fill="white" fill-opacity="0.7"/>
<path d="M8.57397 47.3134L8.6472 46.9995C8.94622 47.1263 9.19642 47.1927 9.3978 47.1927C9.51985 47.1927 9.61444 47.1686 9.68157 47.1173C9.7487 47.069 9.78531 47.0026 9.78531 46.9271C9.78531 46.8788 9.77005 46.8335 9.74259 46.7943C9.71513 46.7551 9.66021 46.6977 9.58393 46.6283L9.3856 46.4502C9.21778 46.2993 9.11099 46.1876 9.06827 46.1092C9.02556 46.0307 9.00115 45.9552 9.00115 45.8798C9.00115 45.747 9.06827 45.6202 9.20253 45.4995C9.33678 45.3787 9.54426 45.3184 9.82192 45.3184C9.90431 45.3184 9.98974 45.3244 10.0782 45.3335C10.1667 45.3455 10.304 45.3787 10.4871 45.4361L10.4139 45.75C10.2338 45.6775 10.1057 45.6323 10.0264 45.6172C9.94703 45.6021 9.87075 45.596 9.79752 45.596C9.67242 45.596 9.57783 45.6202 9.51985 45.6655C9.46188 45.7138 9.43137 45.7711 9.43137 45.8345C9.43137 45.8767 9.44357 45.919 9.47103 45.9613C9.4985 46.0005 9.56257 46.0699 9.66936 46.1605L9.886 46.3506C10.005 46.4563 10.0904 46.5498 10.1423 46.6313C10.1942 46.7128 10.2186 46.8003 10.2186 46.8939C10.2186 47.0659 10.1423 47.2048 9.98974 47.3104C9.83718 47.4161 9.6297 47.4704 9.36424 47.4704C9.28796 47.4704 9.20863 47.4644 9.12625 47.4553C9.04386 47.4432 8.96453 47.4281 8.88825 47.41C8.81197 47.3919 8.70823 47.3587 8.57703 47.3134H8.57397Z" fill="white" fill-opacity="0.7"/>
<path d="M12.2873 47.4222L12.4796 46.5801C12.2965 46.8487 12.0951 47.063 11.8754 47.226C11.6557 47.389 11.4513 47.4705 11.2591 47.4705C11.1218 47.4705 11.0089 47.4192 10.9265 47.3165C10.8441 47.2139 10.8044 47.0992 10.8044 46.9725C10.8044 46.7189 10.8868 46.4563 11.0485 46.1817C11.2103 45.907 11.4086 45.6927 11.6466 45.5418C11.8815 45.3909 12.1348 45.3154 12.4033 45.3154C12.4552 45.3154 12.5101 45.3184 12.5681 45.3275C12.6291 45.3335 12.6932 45.3456 12.7572 45.3637H13.1905L12.7206 47.4252H12.2873V47.4222ZM12.5803 46.1334L12.6901 45.6565C12.6382 45.6324 12.5833 45.6142 12.5284 45.6022C12.4735 45.5901 12.4155 45.5841 12.3575 45.5841C12.1928 45.5841 12.0249 45.6444 11.8541 45.7621C11.6832 45.8798 11.5428 46.0549 11.4299 46.2813C11.317 46.5107 11.2621 46.7159 11.2621 46.9C11.2621 46.9574 11.2774 47.0057 11.3079 47.0449C11.3384 47.0841 11.3842 47.1053 11.4421 47.1053C11.6588 47.1053 12.0371 46.7823 12.5803 46.1334Z" fill="white" fill-opacity="0.7"/>
<path d="M13.584 47.4222L14.0569 45.3607H14.4902L14.298 46.2028C14.4688 45.9493 14.6611 45.738 14.8685 45.569C15.076 45.3999 15.2866 45.3154 15.5032 45.3154C15.6192 45.3154 15.7137 45.3456 15.787 45.406C15.8602 45.4663 15.8968 45.569 15.8968 45.7048C15.8968 45.7923 15.8877 45.8738 15.8724 45.9462L15.5337 47.4192H15.1004L15.4422 45.9312C15.4483 45.898 15.4544 45.8648 15.4544 45.8285C15.4544 45.7863 15.4422 45.7501 15.4147 45.7229C15.3873 45.6957 15.3567 45.6837 15.3171 45.6837C15.2011 45.6837 15.0547 45.7621 14.8808 45.9221C14.7068 46.0821 14.478 46.3386 14.1881 46.6918L14.0203 47.4162H13.587L13.584 47.4222Z" fill="white" fill-opacity="0.7"/>
<path d="M17.4377 47.4222L19.3051 44.6152H19.7658L20.3944 47.4222H19.9306L19.7628 46.7009H18.3684L17.8924 47.4222H17.4408H17.4377ZM18.5606 46.4021H19.6957L19.3936 45.1344L18.5606 46.4021Z" fill="white" fill-opacity="0.7"/>
<path d="M20.8704 47.4223L21.3433 45.3608H21.7766L21.5843 46.2029C21.6972 46.0339 21.8284 45.8739 21.9841 45.729C22.1366 45.5841 22.2739 45.4755 22.396 45.4121C22.518 45.3457 22.6523 45.3125 22.7987 45.3125C22.8292 45.3125 22.8659 45.3125 22.9086 45.3185L22.814 45.729C22.7499 45.7109 22.695 45.7019 22.6462 45.7019C22.5058 45.7019 22.3563 45.7683 22.1976 45.9041C22.042 46.0369 21.7979 46.3025 21.4715 46.6979L21.3036 47.4223H20.8704Z" fill="white" fill-opacity="0.7"/>
<path d="M24.1473 47.4316C24.0435 47.4557 23.949 47.4678 23.8605 47.4678C23.656 47.4678 23.5004 47.4255 23.3906 47.344C23.2807 47.2626 23.2258 47.1569 23.2258 47.0301C23.2258 46.9487 23.238 46.849 23.2655 46.7313L23.5157 45.6387H23.1587L23.2228 45.358H23.5798L23.6652 44.9837L24.1076 44.9385L24.013 45.358H24.6202L24.55 45.6387H23.949L23.6896 46.7736C23.6652 46.8792 23.653 46.9487 23.653 46.9819C23.653 47.0362 23.6743 47.0845 23.7171 47.1237C23.7598 47.166 23.8391 47.1871 23.952 47.1871C24.0283 47.1871 24.1137 47.175 24.2083 47.1479L24.1442 47.4286L24.1473 47.4316Z" fill="white" fill-opacity="0.7"/>
<path d="M28.6267 47.2594C28.169 47.4164 27.754 47.4918 27.3848 47.4918C27.0156 47.4918 26.7349 47.3983 26.5244 47.2081C26.3138 47.021 26.207 46.7614 26.207 46.4294C26.207 46.0974 26.2986 45.8076 26.4786 45.5118C26.6586 45.216 26.8966 44.9776 27.1926 44.8056C27.4885 44.6305 27.8455 44.543 28.2605 44.543C28.5473 44.543 28.8524 44.5762 29.1698 44.6396L29.0904 44.9867C28.7792 44.9052 28.5656 44.8599 28.4558 44.8508C28.3429 44.8418 28.2605 44.8388 28.2056 44.8388C27.9188 44.8388 27.6655 44.9052 27.4489 45.0349C27.2322 45.1647 27.0522 45.3609 26.9088 45.6175C26.7654 45.877 26.6922 46.1336 26.6922 46.3932C26.6922 46.6346 26.7685 46.8248 26.921 46.9606C27.0736 47.0964 27.2933 47.1659 27.5801 47.1659C27.6869 47.1659 27.8059 47.1568 27.9371 47.1417C28.0713 47.1236 28.3246 47.0572 28.6968 46.9395L28.6236 47.2564L28.6267 47.2594Z" fill="white" fill-opacity="0.7"/>
<path d="M31.0219 47.2169C30.6466 47.386 30.2896 47.4705 29.957 47.4705C29.7068 47.4705 29.5146 47.4071 29.3773 47.2803C29.24 47.1536 29.1729 46.9815 29.1729 46.7642C29.1729 46.5288 29.2369 46.2994 29.362 46.076C29.4871 45.8557 29.658 45.6716 29.8716 45.5297C30.0882 45.3879 30.3201 45.3154 30.5734 45.3154C30.7473 45.3154 30.8815 45.3516 30.9761 45.4241C31.0707 45.4965 31.1165 45.5991 31.1165 45.7289C31.1165 45.8859 31.0585 46.0277 30.9456 46.1605C30.8297 46.2903 30.6618 46.402 30.433 46.4926C30.2042 46.5831 29.9296 46.6405 29.6061 46.6646C29.6061 46.8397 29.6488 46.9694 29.7373 47.0509C29.8258 47.1324 29.9418 47.1747 30.0821 47.1747C30.195 47.1747 30.3445 47.1475 30.5337 47.0992C30.7229 47.0479 30.912 46.9694 31.1012 46.8608L31.0188 47.22L31.0219 47.2169ZM29.6458 46.3809C29.9082 46.3598 30.1065 46.3235 30.2469 46.2692C30.3872 46.2179 30.4971 46.1485 30.5764 46.0609C30.6588 45.9734 30.6985 45.8919 30.6985 45.8104C30.6985 45.7591 30.6741 45.7138 30.6283 45.6686C30.5795 45.6263 30.5184 45.6022 30.4452 45.6022C30.3445 45.6022 30.2438 45.6293 30.1431 45.6837C30.0608 45.7289 29.9845 45.7863 29.9174 45.8587C29.8624 45.9161 29.8136 45.9764 29.7709 46.0459C29.7282 46.1123 29.6885 46.2239 29.6458 46.3748V46.3809Z" fill="white" fill-opacity="0.7"/>
<path d="M31.574 47.4222L32.0469 45.3607H32.4802L32.288 46.2028C32.4588 45.9493 32.6511 45.738 32.8585 45.569C33.066 45.3999 33.2766 45.3154 33.4932 45.3154C33.6091 45.3154 33.7037 45.3456 33.777 45.406C33.8502 45.4663 33.8868 45.569 33.8868 45.7048C33.8868 45.7923 33.8776 45.8738 33.8624 45.9462L33.5237 47.4192H33.0904L33.4322 45.9312C33.4383 45.898 33.4444 45.8648 33.4444 45.8285C33.4444 45.7863 33.4322 45.7501 33.4047 45.7229C33.3803 45.6957 33.3467 45.6837 33.3071 45.6837C33.1911 45.6837 33.0447 45.7621 32.8707 45.9221C32.6968 46.0821 32.4649 46.3386 32.1781 46.6918L32.0133 47.4162H31.5801L31.574 47.4222Z" fill="white" fill-opacity="0.7"/>
<path d="M35.4887 47.4316C35.385 47.4557 35.2904 47.4678 35.2019 47.4678C34.9975 47.4678 34.8419 47.4255 34.732 47.344C34.6222 47.2626 34.5672 47.1569 34.5672 47.0301C34.5672 46.9487 34.5795 46.849 34.6069 46.7313L34.8571 45.6387H34.5032L34.5672 45.358H34.9242L35.0097 44.9837L35.4521 44.9385L35.3545 45.358H35.9617L35.8915 45.6387H35.2904L35.031 46.7736C35.0066 46.8792 34.9944 46.9487 34.9944 46.9819C34.9944 47.0362 35.0158 47.0845 35.0585 47.1237C35.1012 47.166 35.1805 47.1871 35.2934 47.1871C35.3697 47.1871 35.4552 47.175 35.5497 47.1479L35.4857 47.4286L35.4887 47.4316Z" fill="white" fill-opacity="0.7"/>
<path d="M37.8993 47.2169C37.524 47.386 37.167 47.4705 36.8345 47.4705C36.5843 47.4705 36.392 47.4071 36.2547 47.2803C36.1174 47.1536 36.0503 46.9815 36.0503 46.7642C36.0503 46.5288 36.1144 46.2994 36.2395 46.076C36.3646 45.8557 36.5354 45.6716 36.7521 45.5297C36.9687 45.3879 37.2006 45.3154 37.4539 45.3154C37.6278 45.3154 37.762 45.3516 37.8566 45.4241C37.9512 45.4965 37.997 45.5991 37.997 45.7289C37.997 45.8859 37.939 46.0277 37.8261 46.1605C37.7102 46.2903 37.5423 46.402 37.3135 46.4926C37.0877 46.5831 36.81 46.6405 36.4866 46.6646C36.4866 46.8397 36.5293 46.9694 36.6178 47.0509C36.7063 47.1324 36.8223 47.1747 36.9626 47.1747C37.0755 47.1747 37.225 47.1475 37.4142 47.0992C37.6034 47.0479 37.7925 46.9694 37.9817 46.8608L37.8993 47.22V47.2169ZM36.5232 46.3809C36.7856 46.3598 36.984 46.3235 37.1243 46.2692C37.2647 46.2179 37.3745 46.1485 37.4569 46.0609C37.5393 45.9734 37.579 45.8919 37.579 45.8104C37.579 45.7591 37.5545 45.7138 37.5088 45.6686C37.46 45.6263 37.3989 45.6022 37.3257 45.6022C37.225 45.6022 37.1243 45.6293 37.0236 45.6837C36.9412 45.7289 36.865 45.7863 36.7978 45.8587C36.7429 45.9161 36.6941 45.9764 36.6514 46.0459C36.6087 46.1123 36.5659 46.2239 36.5263 46.3748L36.5232 46.3809Z" fill="white" fill-opacity="0.7"/>
<path d="M38.4485 47.4223L38.9214 45.3608H39.3547L39.1625 46.2029C39.2754 46.0339 39.4096 45.8739 39.5622 45.729C39.7147 45.5841 39.852 45.4755 39.9741 45.4121C40.0961 45.3457 40.2304 45.3125 40.3769 45.3125C40.4104 45.3125 40.444 45.3125 40.4867 45.3185L40.3921 45.729C40.328 45.7109 40.2731 45.7019 40.2243 45.7019C40.0839 45.7019 39.9344 45.7683 39.7758 45.9041C39.6202 46.0369 39.3761 46.3025 39.0496 46.6979L38.8818 47.4223H38.4485Z" fill="white" fill-opacity="0.7"/>
<path d="M69.7998 10.3193C69.7998 10.3193 73.0952 9.48024 77.3943 12.0096C77.3943 12.0096 75.2493 0.805706 64.9972 0.0118994C64.9972 0.0118994 64.9972 0.0118994 64.9972 0.00888109C64.6799 0.00284454 64.3503 -0.00319202 64.0147 -0.000173742C61.174 0.0179359 58.791 0.603482 56.8169 1.51198C55.2089 2.25448 53.8724 3.21429 52.7893 4.26465C52.4506 4.59364 52.1332 4.93169 51.8434 5.27578C47.6235 5.77379 41.2465 7.73265 40.6393 12.0065C40.2853 14.4845 42.9063 15.8307 45.0636 16.4796C46.1406 16.866 47.6724 17.0803 48.8928 17.1799C48.8928 17.1799 48.9081 17.1829 48.9111 17.1859C48.9111 17.204 49.1186 18.3902 49.4054 19.1387C50.2384 21.662 51.88 24.0796 54.8092 25.7729C62.1321 30.0106 70.105 27.2337 73.0677 25.0666C76.9336 22.2385 77.8917 16.7905 76.3691 14.9614C74.874 13.1625 72.6344 12.1001 66.8859 12.5257C65.2749 12.6434 63.9171 12.8788 62.6813 13.1686C59.3707 13.9473 56.9542 15.1365 52.9479 15.6104C52.414 15.6737 51.8739 15.71 51.3369 15.71C51.3308 15.71 51.3216 15.71 51.3155 15.71C51.3155 15.71 51.3308 15.71 51.3369 15.71C51.224 15.0822 51.1782 14.8588 51.2026 14.3155C51.3216 11.747 51.7549 9.25386 52.8777 7.20144C54.9099 7.24973 57.0549 8.05863 57.4881 9.48325C58.3547 11.1373 55.6544 11.6745 55.0136 11.2339C55.932 13.9594 62.3731 13.0841 62.9254 10.2559C63.3923 7.86244 59.2975 5.33614 54.4278 5.15806C55.6299 4.06545 56.9755 3.17505 59.4165 2.72231C63.9628 1.88021 69.0035 3.81795 69.8029 10.3223L69.7998 10.3193ZM44.9568 12.1906C45.0666 9.69453 47.6022 8.05561 50.333 7.45195C50.0157 8.02241 49.7563 8.58381 49.558 9.11502C48.9752 10.6755 48.5175 12.7732 48.7403 15.4293C48.902 15.4655 49.0698 15.4987 49.2376 15.5289C49.1736 15.5168 49.1125 15.5077 49.0515 15.4957C49.0515 15.4957 49.0485 15.4957 49.0454 15.4957C48.9417 15.4745 48.841 15.4534 48.7403 15.4323C46.5373 14.9282 44.8744 14.1042 44.9598 12.1937L44.9568 12.1906ZM49.9608 15.6315C49.9333 15.6315 49.9089 15.6254 49.8814 15.6224C50.0493 15.6405 50.2171 15.6586 50.3849 15.6707C50.3696 15.6707 50.3544 15.6707 50.3391 15.6707C50.214 15.6617 50.0859 15.6496 49.9608 15.6345V15.6315ZM49.6099 15.5892C49.5061 15.5741 49.4054 15.559 49.3048 15.5409C49.4665 15.5681 49.6312 15.5922 49.796 15.6134C49.7594 15.6104 49.7258 15.6043 49.6892 15.6013C49.6618 15.5983 49.6343 15.5922 49.6099 15.5892ZM59.1358 16.2019C59.9627 16.045 60.7713 15.888 61.5554 15.7401C66.9958 14.7169 70.2331 15.9243 70.4192 18.2272C70.5809 20.2615 69.7144 22.9176 66.654 24.2909V16.1325L64.1429 17.6296V25.0183C63.8652 25.0636 63.5692 25.0998 63.2672 25.127V17.9103L60.753 19.4074V25.1602C60.4936 25.136 60.2373 25.1028 59.9901 25.0636V19.5975L57.4759 21.0976V24.2939C54.382 22.8542 52.4231 19.9386 51.6145 17.2583C51.6115 17.2463 51.6084 17.2312 51.6023 17.2161C54.086 17.1104 56.6765 16.6637 59.1328 16.1989L59.1358 16.2019ZM51.584 17.1316C51.5047 16.8207 51.4376 16.3468 51.3826 15.9876C51.4376 16.3468 51.5047 16.8177 51.584 17.1316ZM51.6023 17.201C51.5962 17.1799 51.5901 17.1587 51.584 17.1346C51.5901 17.1557 51.5962 17.1799 51.6023 17.201ZM50.986 15.7009C50.8273 15.6979 50.6717 15.6888 50.513 15.6798C50.4947 15.6798 50.4764 15.6798 50.4581 15.6768C50.6351 15.6888 50.809 15.6979 50.989 15.7039L50.986 15.7009Z" fill="white" fill-opacity="0.7"/>
</g>
<defs>
<clipPath id="clip0_147_40">
<rect width="118" height="54" fill="white"/>
</clipPath>
</defs>
</svg>
