<svg width="126" height="58" viewBox="0 0 126 58" fill="none" xmlns="http://www.w3.org/2000/svg">
<path d="M57.1174 43.2249C58.2904 42.904 59.4014 42.4177 60.4505 41.7628C61.555 41.0691 62.5422 40.2262 63.4153 39.2374L68.2177 43.2249C68.5175 43.387 68.8107 43.4129 69.0974 43.306C69.4526 43.173 69.8044 42.8456 70.1596 42.3237C70.3355 42.0967 70.4104 41.8828 70.3844 41.6818C70.3453 41.4808 70.1856 41.3219 69.9152 41.202L64.1712 38.2163C64.2527 38.0963 64.4156 37.8499 64.6632 37.4739C64.8391 37.221 64.9694 37.007 65.0509 36.8352C65.1747 36.5143 65.2268 36.3068 65.2138 36.2128C65.1747 35.9988 64.9597 35.8465 64.5785 35.7524H61.6951C61.3269 35.7524 61.1086 35.9016 61.0402 36.1933C60.9718 36.4883 61.0923 36.6602 61.4083 36.7153C61.7895 36.7412 61.9655 36.8612 61.9394 37.0751C61.9231 37.2502 61.7635 37.5549 61.4474 37.9958C60.7404 38.9554 59.8314 39.8793 58.7269 40.7611C57.6778 41.6007 56.7851 42.1421 56.0488 42.382C55.0811 42.6219 54.7195 42.9105 54.9671 43.2444C55.2245 43.5783 55.9413 43.5718 57.1142 43.2249H57.1174Z" fill="#231916"/>
<path d="M71.3228 44.2886H54.8662C54.6349 44.2886 54.4492 44.3567 54.3156 44.4896C54.1788 44.6095 54.1104 44.7846 54.1104 45.0115C54.1104 45.2384 54.1788 45.42 54.3156 45.5529C54.4525 45.6858 54.6349 45.7539 54.8662 45.7539H61.6333V46.9826H56.7461C56.5539 46.9826 56.391 47.0441 56.2542 47.1641C56.1173 47.297 56.0489 47.4591 56.0489 47.6439C56.0489 47.8449 56.1173 48.0037 56.2542 48.1237C56.391 48.2566 56.5539 48.3247 56.7461 48.3247H67.0482V50.3962H56.1727C56.0522 50.3962 55.9609 50.4286 55.9088 50.4967C55.8404 50.5518 55.8078 50.6426 55.8078 50.7755C55.8078 50.8955 55.8404 50.996 55.9088 51.077C55.9642 51.171 56.0522 51.2229 56.1727 51.2391L56.7461 51.3396V54.1114C56.7461 54.4453 56.8537 54.7144 57.072 54.9121C57.2902 55.1261 57.5737 55.2331 57.9321 55.2331H69.9935C70.2248 55.2331 70.4106 55.165 70.5474 55.0321C70.6842 54.8992 70.7527 54.7176 70.7527 54.4907C70.7527 54.2638 70.6842 54.0822 70.5474 53.9493C70.4106 53.8293 70.2281 53.7678 69.9935 53.7678H59.2842V51.7999H68.5013C68.8565 51.7999 69.1432 51.693 69.3615 51.479C69.5797 51.278 69.6873 51.0122 69.6873 50.6783V48.1075C69.6873 47.7736 69.5765 47.5013 69.3615 47.2873C69.1432 47.0863 68.8597 46.9858 68.5013 46.9858H64.23V45.7571H71.3228C71.5541 45.7571 71.7431 45.6923 71.8962 45.5561C72.0331 45.4232 72.1015 45.2417 72.1015 45.0148C72.1015 44.8008 72.0331 44.629 71.8962 44.4928C71.7464 44.3599 71.5541 44.2918 71.3228 44.2918V44.2886Z" fill="#231916"/>
<path d="M85.8179 35.6555H83.6904C83.5828 35.6134 83.459 35.7852 83.3287 35.8371C83.2114 35.8792 83.2961 35.8468 83.2212 35.9505C83.1463 36.0348 83.2212 36.1386 83.244 36.2326C83.2635 36.3266 83.7262 36.3363 83.8142 36.4109L84.2051 36.5049V44.1459C84.0325 44.2205 83.8565 44.2724 83.6741 44.3048C83.4818 44.3469 83.2864 44.3664 83.0941 44.3664H73.6848C73.5023 44.3664 73.3557 44.4182 73.2514 44.5252C73.1439 44.6192 73.0918 44.7586 73.0918 44.9369C73.0918 45.1152 73.1439 45.2579 73.2514 45.3649C73.359 45.4686 73.5056 45.5237 73.6848 45.5237H83.0941C83.2864 45.5237 83.4688 45.5075 83.6415 45.4751C83.8663 45.4232 84.0553 45.3487 84.2051 45.2546V49.281H85.3487C85.6615 49.281 85.8863 49.1643 86.0264 48.9341C86.1991 48.6716 86.2838 48.2274 86.2838 47.6082V36.2358C86.2838 36.0996 86.2414 35.9765 86.1535 35.8727C86.0688 35.7787 85.9547 35.7041 85.8146 35.6523L85.8179 35.6555Z" fill="#231916"/>
<path d="M75.3269 41.9638C76.0893 42.6478 77.1156 42.9915 78.4058 42.9915C79.696 42.9915 80.7418 42.6478 81.514 41.9638C82.2243 41.3543 82.5761 40.599 82.5761 39.7075C82.6185 38.9294 82.3122 38.2324 81.6574 37.623C81.0025 37.0329 80.1815 36.6699 79.1943 36.5337V36.3133C79.1943 36.1771 79.1389 36.0604 79.0314 35.9664C78.9238 35.8724 78.7805 35.8237 78.5948 35.8237C78.4091 35.8237 78.269 35.8724 78.1614 35.9664C78.0539 36.0604 77.9985 36.1771 77.9985 36.3133V36.5337C76.5487 36.7152 75.5061 37.2015 74.874 38.0023C74.4342 38.5501 74.2387 39.1175 74.2941 39.7075C74.2941 40.6022 74.6394 41.3543 75.3269 41.9638ZM76.9397 38.2227C77.3274 37.8013 77.8487 37.5905 78.5035 37.5905C79.1584 37.5905 79.6797 37.8013 80.0674 38.2227C80.4226 38.6117 80.5985 39.0818 80.5985 39.6297C80.5985 40.1775 80.4226 40.6606 80.0674 41.0496C79.6797 41.4905 79.1584 41.7109 78.5035 41.7109C77.8487 41.7109 77.3274 41.4905 76.9397 41.0496C76.5976 40.6606 76.4249 40.1873 76.4249 39.6297C76.4249 39.0721 76.5976 38.615 76.9397 38.2227Z" fill="#231916"/>
<path d="M100.404 39.2798C100.173 39.2798 99.9809 39.3414 99.831 39.4613C99.6942 39.5942 99.6257 39.7693 99.6257 39.9833C99.6257 40.2102 99.6942 40.3917 99.831 40.5246C99.9809 40.6576 100.17 40.7256 100.404 40.7256H102.796V45.8575H104.207C104.588 45.8575 104.875 45.7246 105.063 45.4555C105.282 45.1346 105.389 44.6224 105.389 43.9124V35.7364C105.389 35.5614 105.334 35.4155 105.226 35.2955C105.119 35.1626 104.972 35.0816 104.796 35.0556H102.219C102.082 35.0427 101.945 35.0556 101.812 35.0945C101.675 35.1334 101.571 35.195 101.506 35.2761C101.395 35.422 101.343 35.5549 101.343 35.6781C101.343 35.7851 101.398 35.8791 101.506 35.9601L102.874 36.0606V39.2863H100.401L100.404 39.2798Z" fill="#231916"/>
<path d="M96.8075 41.6625L99.4042 45.329C99.6616 45.5171 99.9092 45.5884 100.141 45.5495C100.414 45.4976 100.639 45.3096 100.815 44.9886C101.265 44.4278 101.512 43.9869 101.551 43.666C101.59 43.3872 101.483 43.1732 101.225 43.0241L97.811 40.7191C98.4365 39.8924 98.922 39.1922 99.2641 38.6151C99.6583 37.9733 99.9385 37.3865 100.101 36.8516C100.225 36.4917 100.271 36.2518 100.245 36.1286C100.206 35.9276 100 35.8271 99.6322 35.8271H90.9429C90.7116 35.8271 90.5259 35.8952 90.3891 36.0281C90.2522 36.1611 90.1838 36.3426 90.1838 36.5663C90.1838 36.79 90.2522 36.9748 90.3891 37.1077C90.5259 37.2276 90.7084 37.2892 90.9429 37.2892H96.9313C96.208 38.9328 95.1719 40.382 93.8231 41.6365C92.774 42.6253 91.5001 43.5201 90.0013 44.3208C89.1575 44.5737 88.7828 44.8525 88.8773 45.1637C88.9588 45.4717 89.5094 45.5041 90.5324 45.2642C91.9497 44.8233 93.1552 44.3014 94.1522 43.7016C94.9406 43.2348 95.8268 42.554 96.8075 41.6592V41.6625Z" fill="#231916"/>
<path d="M105.842 51.4854H96.1331V46.7361C96.1331 46.5643 96.0777 46.4282 95.9702 46.3374C95.8757 46.2304 95.7389 46.1753 95.5597 46.1753H92.2071C92.0572 46.1753 91.9269 46.2239 91.8194 46.3147C91.7249 46.4087 91.676 46.5222 91.676 46.6551C91.676 46.8042 91.7249 46.9339 91.8194 47.0538C91.9302 47.1738 92.0572 47.2548 92.2071 47.297L93.5559 47.3975V51.7837C93.5559 52.1176 93.6635 52.3834 93.8817 52.5844C94.1 52.7984 94.3802 52.9054 94.7191 52.9054H105.839C106.044 52.9054 106.214 52.8405 106.35 52.7044C106.487 52.5715 106.556 52.4126 106.556 52.2246C106.556 52.0106 106.487 51.8291 106.35 51.6832C106.214 51.5503 106.044 51.4822 105.839 51.4822L105.842 51.4854Z" fill="#231916"/>
<path d="M125.795 41.9997C125.674 41.8668 125.501 41.7987 125.283 41.7987H122.686V35.6781C122.686 35.5063 122.638 35.3507 122.543 35.2178C122.449 35.0849 122.325 34.9908 122.175 34.939H119.396C119.262 34.8871 119.109 34.8904 118.946 34.9584C118.796 35.0135 118.673 35.0978 118.578 35.2178C118.484 35.3248 118.448 35.4447 118.477 35.5776C118.49 35.6976 118.558 35.8046 118.682 35.8986L120.051 35.9991V44.3436C119.751 44.5446 119.396 44.6905 118.989 44.7845C118.539 44.8785 117.871 44.9531 116.985 45.0049H110.648V39.9574H116.516C116.747 39.9574 116.933 39.8893 117.066 39.7564C117.203 39.6364 117.272 39.4614 117.272 39.2344C117.272 39.0075 117.203 38.8292 117.066 38.693C116.929 38.5601 116.747 38.4921 116.516 38.4921H107.481C107.344 38.4921 107.224 38.5407 107.113 38.6315C107.018 38.7255 106.969 38.8454 106.969 38.9913C106.969 39.1372 107.018 39.2701 107.113 39.3933C107.207 39.5132 107.331 39.6072 107.481 39.6721L108.256 39.9541V45.462C108.256 45.7959 108.367 46.0618 108.582 46.2628C108.801 46.4767 109.081 46.5837 109.42 46.5837H116.982C117.757 46.5837 118.366 46.5383 118.8 46.4443C119.223 46.3503 119.637 46.172 120.047 45.9029V47.9258H121.52C121.875 47.9258 122.155 47.8253 122.357 47.6244C122.576 47.4104 122.686 46.0229 122.686 45.689V43.196H125.283C125.501 43.196 125.671 43.1344 125.795 43.0144C125.932 42.8815 126 42.7194 126 42.5314C126 42.3045 125.932 42.1262 125.795 41.99V41.9997Z" fill="#231916"/>
<path d="M16.5152 42.1746C16.437 42.246 16.3327 42.2784 16.1991 42.2784H11.9734V43.9998C11.9734 44.1814 11.9115 44.324 11.7877 44.4277C11.6639 44.538 11.501 44.5931 11.2957 44.5931H10.5594V42.2784H6.14793C6.01761 42.2784 5.90684 42.246 5.82213 42.1746C5.74393 42.1066 5.70483 42.0126 5.70483 41.8926C5.70483 41.7824 5.74393 41.6916 5.82213 41.6235C5.90684 41.5522 6.01761 41.5198 6.14793 41.5198H13.3613C13.4298 41.3382 13.4851 41.1535 13.5242 40.9654C13.5633 40.7709 13.5829 40.5764 13.5829 40.3819V38.453H7.3013C7.1612 38.453 7.04717 38.4141 6.96246 38.3395C6.86797 38.2552 6.82236 38.1548 6.82236 38.038C6.82236 37.9213 6.86797 37.8241 6.96246 37.7463C7.04717 37.6717 7.1612 37.6328 7.3013 37.6328H14.4007C14.6027 37.6328 14.7623 37.6879 14.8796 37.7981C15.0034 37.9019 15.0653 38.0445 15.0653 38.2261V40.2587C15.0653 40.5083 15.036 40.7418 14.9741 40.959C14.9252 41.1405 14.8503 41.3285 14.7395 41.523H16.1991C16.3327 41.523 16.437 41.5587 16.5152 41.6268C16.5934 41.6884 16.6325 41.7791 16.6325 41.8958C16.6325 42.0126 16.5934 42.1098 16.5152 42.1779V42.1746ZM15.7332 46.4701C15.655 46.5447 15.5508 46.5868 15.4172 46.5868H8.06369C7.86169 46.5868 7.69878 46.5349 7.57498 46.4312C7.45117 46.3177 7.38601 46.1783 7.38601 46.0033V43.7729L6.78 43.721C6.7181 43.6983 6.67574 43.6724 6.64968 43.6367C6.60407 43.5816 6.58126 43.507 6.58126 43.4163C6.58126 43.3612 6.60407 43.3125 6.64968 43.2704C6.69529 43.2347 6.75394 43.2185 6.82562 43.2185H8.51656C8.61105 43.2185 8.68598 43.2477 8.75115 43.3028C8.81305 43.3514 8.84237 43.4195 8.84237 43.5103V45.7926H15.4139C15.5475 45.7926 15.6518 45.8282 15.73 45.8963C15.8082 45.9644 15.8473 46.0584 15.8473 46.1783C15.8473 46.3048 15.8082 46.402 15.73 46.4701H15.7332Z" fill="#231916"/>
<path d="M24.2271 42.8848C24.0642 42.94 23.8948 42.927 23.7254 42.8427L21.6467 40.1001C21.1548 40.8652 20.6921 41.4228 20.2555 41.7696C19.8971 42.0484 19.3954 42.2981 18.7503 42.5218C18.0791 42.7033 17.6751 42.7065 17.535 42.5315C17.3949 42.3499 17.6002 42.1976 18.1541 42.0711C18.5809 41.9058 18.9816 41.614 19.3563 41.1958C19.7701 40.729 20.2392 40.0223 20.7671 39.0692C20.8909 38.6607 20.9528 38.4273 20.9528 38.3722C20.9528 38.2328 20.8485 38.1582 20.6367 38.142C20.4575 38.1063 20.3891 38.0156 20.4282 37.8697C20.4673 37.7238 20.5911 37.6492 20.8029 37.6492H22.4482C22.673 37.6979 22.7936 37.7724 22.8099 37.8794C22.8196 37.928 22.7871 38.0318 22.7154 38.1906C22.5753 38.4273 22.4938 38.5699 22.471 38.6186C22.3537 38.8552 22.2267 39.1762 22.0866 39.5781L24.7028 41.7891C24.8494 41.8507 24.9341 41.935 24.9602 42.0387C24.983 42.1425 24.9407 42.2559 24.8331 42.3726C24.6311 42.6449 24.4291 42.8135 24.2271 42.8848ZM27.6807 46.4801C27.6025 46.5481 27.5048 46.5838 27.3875 46.5838H20.8746C20.6791 46.5838 20.5194 46.5287 20.3956 46.4185C20.2718 46.3147 20.2099 46.1753 20.2099 46.0003V43.7374L19.428 43.6661C19.3433 43.6434 19.2716 43.6045 19.2195 43.5397C19.1641 43.4781 19.138 43.4068 19.138 43.3322C19.138 43.2641 19.1641 43.2025 19.2195 43.1539C19.2814 43.1053 19.3498 43.0794 19.428 43.0794H21.3405C21.4415 43.0794 21.5229 43.1085 21.5848 43.1636C21.6467 43.2123 21.6793 43.2803 21.6793 43.3711V45.8414H27.3875C27.5048 45.8414 27.5993 45.8771 27.6807 45.9451C27.7491 46.023 27.785 46.117 27.785 46.2272C27.785 46.3244 27.7491 46.4087 27.6807 46.4768V46.4801ZM28.7787 40.6966C28.7103 40.7647 28.6125 40.8003 28.4887 40.8003H27.0193V42.9075C27.0193 43.2252 26.9574 43.4813 26.8336 43.6694C26.7098 43.8639 26.5469 43.9611 26.3449 43.9611H25.5173V37.9443L24.7354 37.9021C24.6735 37.8665 24.6344 37.8146 24.6181 37.7465C24.6018 37.6784 24.6214 37.6136 24.6768 37.5585C24.7387 37.4872 24.8103 37.4353 24.8853 37.4029C24.9798 37.3607 25.0645 37.351 25.1427 37.3704L26.7196 37.3802C26.8075 37.4158 26.876 37.4645 26.9314 37.5261C26.9933 37.6006 27.0258 37.6817 27.0258 37.766V40.0709H28.4952C28.619 40.0709 28.7168 40.1033 28.7852 40.1649C28.8634 40.233 28.9025 40.3173 28.9025 40.4145C28.9025 40.5313 28.8634 40.6285 28.7852 40.6966H28.7787Z" fill="#231916"/>
<path d="M114.437 53.3463C114.437 54.8732 115.304 56.4553 117.741 56.4974C120.292 56.5396 121.093 54.8505 120.914 53.3755C120.722 51.7643 118.526 51.9232 118.106 52.6785C118.106 52.6785 117.584 53.3496 117.975 53.985C118.22 54.3772 118.22 54.4518 117.386 54.3059C116.483 54.1471 115.31 52.7174 117.073 51.197C118.874 49.6409 122.954 50.3833 123.485 52.9541C124.016 55.5249 121.598 58.3161 117.969 58.2739C113.903 58.2253 111.58 56.05 111.775 53.1745C111.967 50.2957 114.58 49.119 117.825 48.6845C119.041 48.5225 119.689 48.1399 120.005 47.4494C120.526 46.2953 120.148 44.6322 120.148 44.2529H122.667V46.5903C122.667 47.4202 122.214 49.2357 119.168 49.5404C116.118 49.8451 114.44 51.5179 114.44 53.3496L114.437 53.3463Z" fill="#231916"/>
<path d="M110.101 43.2734L110.651 43.9218C110.651 43.9218 110.449 45.0824 111.778 45.0078C113.678 44.8976 110.843 45.6951 110.843 45.6951C110.843 45.6951 110.456 45.8053 110.296 45.5849C110.133 45.3612 110.101 43.2734 110.101 43.2734Z" fill="#231916"/>
<path d="M46.0401 40.0448C46.0401 40.6315 45.4895 41.1081 44.8053 41.1081C44.1211 41.1081 43.5737 40.6315 43.5737 40.0448C43.5737 39.458 44.1243 38.9814 44.8053 38.9814C45.4862 38.9814 46.0401 39.458 46.0401 40.0448Z" fill="#231916"/>
<path d="M46.0401 43.9383C46.0401 44.5251 45.4895 45.0017 44.8053 45.0017C44.1211 45.0017 43.5737 44.5251 43.5737 43.9383C43.5737 43.3516 44.1243 42.875 44.8053 42.875C45.4862 42.875 46.0401 43.3483 46.0401 43.9383Z" fill="#231916"/>
<path d="M36.914 30.0566C36.0278 30.0566 35.6727 31.1102 36.1354 32.0504C36.598 32.9905 36.2038 33.6194 35.3958 34.3067C34.5878 34.994 30.7139 35.879 30.7041 40.4338C30.6911 45.3906 34.8452 46.6776 37.494 46.4831C40.4588 46.2659 42.9806 44.2981 43.0686 40.5116C43.1403 37.4383 40.3318 36.1351 38.794 36.1351C37.2561 36.1351 35.0406 37.286 35.2883 39.6785C35.4935 41.6463 37.204 41.0627 37.204 41.0627C37.204 41.0627 37.4614 40.8585 37.1747 40.4014C37.0085 40.1323 36.8521 38.9264 38.0088 38.5308C39.1621 38.1321 40.3253 38.7416 40.6543 40.3074C40.9573 41.7565 40.0614 44.7811 37.0704 44.5899C33.6006 44.3662 32.6264 40.745 33.5908 38.0705C34.5552 35.3927 37.3278 35.0783 38.1358 34.4007C39.3967 33.3471 39.4456 31.6322 38.6376 30.799C37.9762 30.0566 36.9108 30.0566 36.9108 30.0566H36.914Z" fill="#231916"/>
<path d="M48.7281 35.493H46.0825C46.0825 35.493 45.7437 35.4703 45.7437 35.9015C45.7437 36.5693 46.9361 36.3456 46.9361 37.1658V53.4853H48.0993C48.0993 53.4853 49.1158 53.3459 49.2298 52.2728C49.3438 51.203 49.2298 48.9629 49.2298 48.9629V36.6925C49.2298 36.2354 49.308 35.7491 48.7281 35.4897V35.493Z" fill="#231916"/>
<path d="M52.6963 35.4933H50.0508C50.0508 35.4933 49.7119 35.4706 49.7119 35.9018C49.7119 36.6247 50.9076 36.3459 50.9076 37.1661V55.3205H52.0675C52.0675 55.3205 53.084 55.1811 53.1948 54.108C53.3088 53.0382 53.1948 48.96 53.1948 48.96V36.6895C53.1948 36.2324 53.273 35.7462 52.6931 35.4868L52.6963 35.4933Z" fill="#231916"/>
<path d="M84.2216 37.2373V43.7081H86.2807V36.79C86.2807 36.3556 86.3524 35.8952 85.8311 35.6521H83.4527C83.4527 35.6521 83.1497 35.6294 83.1497 36.0411C83.1497 36.6733 84.2216 36.4625 84.2216 37.2406V37.2373Z" fill="#231916"/>
<path d="M2.56086 51.0833C2.09495 51.2162 1.65511 51.2811 1.24133 51.2811C0.869909 51.2811 0.570165 51.1806 0.342099 50.9828C0.114033 50.7851 0 50.503 0 50.1399C0 49.7963 0.0944845 49.4656 0.286712 49.1447C0.475681 48.827 0.729811 48.5741 1.04259 48.3893C1.35536 48.2045 1.73004 48.1138 2.16011 48.1138C2.44031 48.1138 2.76937 48.1494 3.15057 48.2175L3.06586 48.5838C2.67815 48.4833 2.3556 48.4315 2.09821 48.4315C1.79846 48.4315 1.53782 48.5028 1.30975 48.6487C1.08494 48.7913 0.895974 49.002 0.746102 49.2808C0.59623 49.5564 0.521294 49.8417 0.521294 50.1334C0.521294 50.3766 0.59623 50.5743 0.746102 50.7267C0.895974 50.8791 1.13707 50.9569 1.47266 50.9569C1.66814 50.9569 1.88317 50.9212 2.12427 50.8499L2.33605 49.9195H2.8215L2.56086 51.0768V51.0833Z" fill="#231916"/>
<path d="M5.71153 48.9956L5.20652 51.2098H4.74388L4.94914 50.3053C4.77971 50.5776 4.59726 50.8046 4.392 50.9861C4.19 51.1676 3.98148 51.2584 3.77297 51.2584C3.66219 51.2584 3.57096 51.226 3.49603 51.1612C3.42109 51.0963 3.38525 50.9861 3.38525 50.8337C3.38525 50.743 3.39503 50.6587 3.41458 50.5809L3.77622 48.9956H4.24213L3.87722 50.5938C3.87071 50.6263 3.86419 50.6619 3.86419 50.7041C3.86419 50.7527 3.87723 50.7916 3.90003 50.8175C3.9261 50.8467 3.95542 50.8597 3.99452 50.8597C4.10855 50.8597 4.2519 50.7689 4.42458 50.5874C4.59726 50.4058 4.8123 50.1367 5.06968 49.7769L5.24888 48.9956H5.71153Z" fill="#231916"/>
<path d="M6.27515 51.2067L6.78015 48.9925H7.2428L7.03754 49.897C7.21999 49.6246 7.42525 49.3977 7.6468 49.2162C7.86835 49.0346 8.09316 48.9438 8.32448 48.9438C8.44829 48.9438 8.54603 48.9763 8.62423 49.0411C8.70242 49.1059 8.74152 49.2162 8.74152 49.362C8.74152 49.4561 8.73174 49.5436 8.71545 49.6214L8.35381 51.2034H7.89116L8.25606 49.6052C8.26258 49.5695 8.2691 49.5339 8.2691 49.495C8.2691 49.4496 8.25606 49.4107 8.22674 49.3815C8.19742 49.3523 8.16484 49.3394 8.12248 49.3394C7.99867 49.3394 7.84229 49.4236 7.65658 49.5955C7.47086 49.7673 7.22325 50.0428 6.91699 50.4221L6.73779 51.2002H6.27515V51.2067Z" fill="#231916"/>
<path d="M9.15527 51.0896L9.23347 50.7525C9.55276 50.8886 9.81992 50.96 10.035 50.96C10.1653 50.96 10.2663 50.934 10.338 50.8789C10.4096 50.8271 10.4487 50.7557 10.4487 50.6747C10.4487 50.6228 10.4324 50.5742 10.4031 50.532C10.3738 50.4899 10.3152 50.4283 10.2337 50.3537L10.0219 50.1625C9.84273 50.0004 9.7287 49.8804 9.68308 49.7961C9.63747 49.7119 9.61141 49.6308 9.61141 49.5498C9.61141 49.4071 9.68308 49.271 9.82644 49.1413C9.96979 49.0116 10.1913 48.9468 10.4878 48.9468C10.5758 48.9468 10.667 48.9533 10.7615 48.963C10.856 48.976 11.0026 49.0116 11.1981 49.0732L11.1199 49.4104C10.9277 49.3326 10.7908 49.2839 10.7061 49.2677C10.6214 49.2515 10.54 49.245 10.4618 49.245C10.3282 49.245 10.2272 49.271 10.1653 49.3196C10.1034 49.3715 10.0708 49.4331 10.0708 49.5011C10.0708 49.5465 10.0838 49.5919 10.1132 49.6373C10.1425 49.6794 10.2109 49.754 10.3249 49.8513L10.5563 50.0555C10.6833 50.169 10.7745 50.2695 10.8299 50.357C10.8853 50.4445 10.9114 50.5385 10.9114 50.639C10.9114 50.8238 10.8299 50.9729 10.667 51.0864C10.5041 51.1999 10.2826 51.2582 9.99912 51.2582C9.91767 51.2582 9.83296 51.2517 9.74499 51.242C9.65702 51.229 9.57231 51.2128 9.49086 51.1934C9.4094 51.1739 9.29863 51.1383 9.15853 51.0896H9.15527Z" fill="#231916"/>
<path d="M13.1203 51.2067L13.3256 50.3022C13.1301 50.5907 12.915 50.8209 12.6805 50.9959C12.4459 51.171 12.2276 51.2585 12.0223 51.2585C11.8757 51.2585 11.7552 51.2034 11.6672 51.0932C11.5792 50.983 11.5369 50.8598 11.5369 50.7236C11.5369 50.4513 11.6248 50.1693 11.7975 49.8743C11.9702 49.5792 12.182 49.3491 12.4361 49.187C12.687 49.0249 12.9574 48.9438 13.2441 48.9438C13.2995 48.9438 13.3581 48.9471 13.42 48.9568C13.4852 48.9633 13.5536 48.9763 13.622 48.9957H14.0847L13.5829 51.2099H13.1203V51.2067ZM13.4331 49.8224L13.5504 49.3102C13.495 49.2842 13.4363 49.2648 13.3777 49.2518C13.319 49.2389 13.2571 49.2324 13.1952 49.2324C13.0193 49.2324 12.8401 49.2972 12.6576 49.4236C12.4752 49.5501 12.3253 49.7381 12.2048 49.9812C12.0842 50.2276 12.0256 50.4481 12.0256 50.6458C12.0256 50.7074 12.0419 50.7593 12.0745 50.8014C12.107 50.8436 12.1559 50.8663 12.2178 50.8663C12.4491 50.8663 12.8531 50.5194 13.4331 49.8224Z" fill="#231916"/>
<path d="M14.5049 51.2067L15.0099 48.9925H15.4725L15.2673 49.897C15.4497 49.6246 15.655 49.3977 15.8765 49.2162C16.0981 49.0346 16.3229 48.9438 16.5542 48.9438C16.678 48.9438 16.779 48.9763 16.8572 49.0411C16.9354 49.1059 16.9745 49.2162 16.9745 49.362C16.9745 49.4561 16.9647 49.5436 16.9484 49.6214L16.5868 51.2034H16.1242L16.4891 49.6052C16.4956 49.5695 16.5021 49.5339 16.5021 49.495C16.5021 49.4496 16.4891 49.4107 16.4597 49.3815C16.4304 49.3523 16.3978 49.3394 16.3555 49.3394C16.2317 49.3394 16.0753 49.4236 15.8896 49.5955C15.7039 49.7673 15.4595 50.0428 15.15 50.4221L14.9708 51.2002H14.5081L14.5049 51.2067Z" fill="#231916"/>
<path d="M18.6199 51.2063L20.6138 48.1914H21.1058L21.777 51.2063H21.2817L21.1025 50.4315H19.6136L19.1053 51.2063H18.6231H18.6199ZM19.8188 50.1106H21.0309L20.7083 48.749L19.8188 50.1106Z" fill="#231916"/>
<path d="M22.2854 51.2065L22.7904 48.9923H23.2531L23.0478 49.8968C23.1683 49.7152 23.3084 49.5434 23.4746 49.3878C23.6375 49.2322 23.7841 49.1155 23.9144 49.0474C24.0448 48.9761 24.1881 48.9404 24.3445 48.9404C24.3771 48.9404 24.4162 48.9404 24.4618 48.9469L24.3608 49.3878C24.2924 49.3684 24.2337 49.3586 24.1816 49.3586C24.0317 49.3586 23.8721 49.4299 23.7027 49.5758C23.5365 49.7185 23.2759 50.0038 22.9272 50.4284L22.748 51.2065H22.2854Z" fill="#231916"/>
<path d="M25.7844 51.2163C25.6736 51.2423 25.5726 51.2552 25.4781 51.2552C25.2598 51.2552 25.0937 51.2099 24.9764 51.1223C24.8591 51.0348 24.8004 50.9213 24.8004 50.7852C24.8004 50.6977 24.8135 50.5907 24.8428 50.4642L25.11 49.2907H24.7288L24.7972 48.9892H25.1784L25.2696 48.5872L25.742 48.5386L25.641 48.9892H26.2894L26.2144 49.2907H25.5726L25.2957 50.5096C25.2696 50.6231 25.2566 50.6977 25.2566 50.7333C25.2566 50.7917 25.2794 50.8435 25.325 50.8857C25.3706 50.9311 25.4553 50.9538 25.5759 50.9538C25.6573 50.9538 25.7485 50.9408 25.8495 50.9116L25.7811 51.2131L25.7844 51.2163Z" fill="#231916"/>
<path d="M30.5673 51.0314C30.0786 51.2 29.6355 51.2811 29.2413 51.2811C28.847 51.2811 28.5473 51.1806 28.3225 50.9763C28.0977 50.7753 27.9836 50.4965 27.9836 50.1399C27.9836 49.7833 28.0814 49.4721 28.2736 49.1544C28.4658 48.8367 28.72 48.5806 29.036 48.3958C29.352 48.2078 29.7332 48.1138 30.1763 48.1138C30.4826 48.1138 30.8084 48.1494 31.1472 48.2175L31.0625 48.5903C30.7302 48.5028 30.5021 48.4542 30.3849 48.4444C30.2643 48.4347 30.1763 48.4315 30.1177 48.4315C29.8114 48.4315 29.541 48.5028 29.3097 48.6422C29.0784 48.7816 28.8861 48.9923 28.733 49.2679C28.5799 49.5467 28.5017 49.8222 28.5017 50.101C28.5017 50.3604 28.5831 50.5646 28.746 50.7105C28.9089 50.8564 29.1435 50.9309 29.4498 50.9309C29.5638 50.9309 29.6909 50.9212 29.831 50.905C29.9743 50.8856 30.2448 50.8142 30.6422 50.6878L30.564 51.0282L30.5673 51.0314Z" fill="#231916"/>
<path d="M33.125 50.9862C32.7243 51.1678 32.3431 51.2585 31.988 51.2585C31.7208 51.2585 31.5155 51.1905 31.3689 51.0543C31.2223 50.9181 31.1506 50.7334 31.1506 50.4999C31.1506 50.2471 31.2191 50.0007 31.3526 49.7608C31.4862 49.5241 31.6687 49.3264 31.8967 49.174C32.1281 49.0217 32.3757 48.9438 32.6461 48.9438C32.8318 48.9438 32.9752 48.9828 33.0762 49.0606C33.1772 49.1384 33.226 49.2486 33.226 49.388C33.226 49.5566 33.1641 49.7089 33.0436 49.8516C32.9198 49.991 32.7406 50.1109 32.4962 50.2082C32.2519 50.3054 31.9586 50.367 31.6133 50.393C31.6133 50.581 31.6589 50.7204 31.7534 50.8079C31.8479 50.8954 31.9717 50.9408 32.1215 50.9408C32.2421 50.9408 32.4017 50.9117 32.6037 50.8598C32.8057 50.8047 33.0077 50.7204 33.2097 50.6037L33.1218 50.9895L33.125 50.9862ZM31.6556 50.0882C31.9358 50.0655 32.1476 50.0266 32.2975 49.9683C32.4474 49.9132 32.5646 49.8386 32.6494 49.7446C32.7373 49.6506 32.7797 49.563 32.7797 49.4755C32.7797 49.4204 32.7536 49.3718 32.7047 49.3231C32.6526 49.2778 32.5875 49.2518 32.5093 49.2518C32.4017 49.2518 32.2942 49.281 32.1867 49.3394C32.0987 49.388 32.0173 49.4496 31.9456 49.5274C31.887 49.589 31.8348 49.6538 31.7892 49.7284C31.7436 49.7997 31.7013 49.9196 31.6556 50.0817V50.0882Z" fill="#231916"/>
<path d="M33.7146 51.2067L34.2196 48.9925H34.6822L34.477 49.897C34.6594 49.6246 34.8647 49.3977 35.0863 49.2162C35.3078 49.0346 35.5326 48.9438 35.7639 48.9438C35.8877 48.9438 35.9887 48.9763 36.0669 49.0411C36.1451 49.1059 36.1842 49.2162 36.1842 49.362C36.1842 49.4561 36.1745 49.5436 36.1582 49.6214L35.7965 51.2034H35.3339L35.6988 49.6052C35.7053 49.5695 35.7118 49.5339 35.7118 49.495C35.7118 49.4496 35.6988 49.4107 35.6695 49.3815C35.6434 49.3523 35.6075 49.3394 35.5652 49.3394C35.4414 49.3394 35.285 49.4236 35.0993 49.5955C34.9136 49.7673 34.666 50.0428 34.3597 50.4221L34.1838 51.2002H33.7211L33.7146 51.2067Z" fill="#231916"/>
<path d="M37.8949 51.2163C37.7841 51.2423 37.6831 51.2552 37.5886 51.2552C37.3703 51.2552 37.2042 51.2099 37.0869 51.1223C36.9696 51.0348 36.9109 50.9213 36.9109 50.7852C36.9109 50.6977 36.924 50.5907 36.9533 50.4642L37.2205 49.2907H36.8425L36.9109 48.9892H37.2921L37.3834 48.5872L37.8558 48.5386L37.7515 48.9892H38.3999L38.325 49.2907H37.6831L37.4062 50.5096C37.3801 50.6231 37.3671 50.6977 37.3671 50.7333C37.3671 50.7917 37.3899 50.8435 37.4355 50.8857C37.4811 50.9311 37.5658 50.9538 37.6864 50.9538C37.7678 50.9538 37.8591 50.9408 37.9601 50.9116L37.8916 51.2131L37.8949 51.2163Z" fill="#231916"/>
<path d="M40.4688 50.9862C40.068 51.1678 39.6868 51.2585 39.3317 51.2585C39.0645 51.2585 38.8593 51.1905 38.7127 51.0543C38.5661 50.9181 38.4944 50.7334 38.4944 50.4999C38.4944 50.2471 38.5628 50.0007 38.6964 49.7608C38.83 49.5241 39.0124 49.3264 39.2437 49.174C39.4751 49.0217 39.7227 48.9438 39.9931 48.9438C40.1788 48.9438 40.3222 48.9828 40.4232 49.0606C40.5242 49.1384 40.573 49.2486 40.573 49.388C40.573 49.5566 40.5111 49.7089 40.3906 49.8516C40.2668 49.991 40.0876 50.1109 39.8432 50.2082C39.6021 50.3054 39.3056 50.367 38.9603 50.393C38.9603 50.581 39.0059 50.7204 39.1004 50.8079C39.1949 50.8954 39.3187 50.9408 39.4686 50.9408C39.5891 50.9408 39.7487 50.9117 39.9508 50.8598C40.1528 50.8047 40.3548 50.7204 40.5568 50.6037L40.4688 50.9895V50.9862ZM38.9994 50.0882C39.2796 50.0655 39.4914 50.0266 39.6412 49.9683C39.7911 49.9132 39.9084 49.8386 39.9964 49.7446C40.0843 49.6506 40.1267 49.563 40.1267 49.4755C40.1267 49.4204 40.1006 49.3718 40.0517 49.3231C39.9996 49.2778 39.9345 49.2518 39.8563 49.2518C39.7487 49.2518 39.6412 49.281 39.5337 49.3394C39.4457 49.388 39.3643 49.4496 39.2926 49.5274C39.234 49.589 39.1818 49.6538 39.1362 49.7284C39.0906 49.7997 39.045 49.9196 39.0026 50.0817L38.9994 50.0882Z" fill="#231916"/>
<path d="M41.0552 51.2065L41.5602 48.9923H42.0228L41.8176 49.8968C41.9381 49.7152 42.0815 49.5434 42.2444 49.3878C42.4073 49.2322 42.5539 49.1155 42.6842 49.0474C42.8145 48.9761 42.9579 48.9404 43.1143 48.9404C43.1501 48.9404 43.186 48.9404 43.2316 48.9469L43.1306 49.3878C43.0622 49.3684 43.0035 49.3586 42.9514 49.3586C42.8015 49.3586 42.6419 49.4299 42.4724 49.5758C42.3063 49.7185 42.0456 50.0038 41.697 50.4284L41.5178 51.2065H41.0552Z" fill="#231916"/>
<path d="M74.5319 11.0838C74.5319 11.0838 78.0507 10.1825 82.6413 12.8992C82.6413 12.8992 80.3509 0.865461 69.4037 0.0128531C69.4037 0.0128531 69.4037 0.0128531 69.4037 0.00961129C69.0649 0.00312758 68.713 -0.00335613 68.3546 -0.000114274C65.3213 0.0193368 62.7768 0.648256 60.6688 1.62405C58.9518 2.42155 57.5247 3.45246 56.3681 4.58062C56.0065 4.93399 55.6676 5.29707 55.3581 5.66665C50.8522 6.20155 44.0428 8.30551 43.3944 12.896C43.0165 15.5575 45.8152 17.0034 48.1186 17.7004C49.2687 18.1154 50.9043 18.3455 52.2075 18.4525C52.2075 18.4525 52.2238 18.4558 52.2271 18.459C52.2271 18.4784 52.4486 19.7525 52.7549 20.5565C53.6443 23.2667 55.3972 25.8634 58.525 27.6821C66.3444 32.2336 74.8577 29.2511 78.0214 26.9235C82.1493 23.8859 83.1724 18.0343 81.5466 16.0698C79.9501 14.1376 77.5587 12.9965 71.4205 13.4536C69.7002 13.58 68.2503 13.8329 66.9308 14.1441C63.3958 14.9805 60.8154 16.2578 56.5375 16.7668C55.9674 16.8348 55.3907 16.8737 54.8173 16.8737C54.8107 16.8737 54.801 16.8737 54.7944 16.8737C54.7944 16.8737 54.8107 16.8737 54.8173 16.8737C54.6967 16.1994 54.6478 15.9595 54.6739 15.376C54.801 12.6172 55.2636 9.93941 56.4626 7.73495C58.6325 7.78682 60.9229 8.65563 61.3856 10.1858C62.3109 11.9623 59.4274 12.5394 58.7433 12.0661C59.7239 14.9935 66.6018 14.0533 67.1915 11.0157C67.69 8.44491 63.3176 5.73148 58.1177 5.54021C59.4014 4.36666 60.8382 3.41032 63.4447 2.92404C68.2992 2.01956 73.6816 4.10083 74.5352 11.087L74.5319 11.0838ZM48.0046 13.0937C48.1219 10.4127 50.8294 8.65239 53.7453 8.00402C53.4065 8.61673 53.1296 9.21972 52.9178 9.79028C52.2955 11.4663 51.8068 13.7194 52.0446 16.5722C52.2173 16.6111 52.3965 16.6468 52.5757 16.6792C52.5073 16.6663 52.4421 16.6565 52.3769 16.6436C52.3769 16.6436 52.3737 16.6436 52.3704 16.6436C52.2597 16.6209 52.1521 16.5982 52.0446 16.5755C49.6923 16.0341 47.9166 15.1491 48.0079 13.097L48.0046 13.0937ZM53.3479 16.7894C53.3185 16.7894 53.2925 16.783 53.2631 16.7797C53.4423 16.7992 53.6215 16.8186 53.8007 16.8316C53.7844 16.8316 53.7681 16.8316 53.7519 16.8316C53.6183 16.8219 53.4814 16.8089 53.3479 16.7927V16.7894ZM52.9732 16.7441C52.8624 16.7278 52.7549 16.7116 52.6474 16.6922C52.82 16.7214 52.996 16.7473 53.1719 16.77C53.1328 16.7668 53.097 16.7603 53.0579 16.757C53.0286 16.7538 52.9992 16.7473 52.9732 16.7441ZM63.1449 17.4022C64.0279 17.2336 64.8913 17.065 65.7286 16.9062C71.5378 15.8072 74.9946 17.1039 75.1933 19.5774C75.366 21.7624 74.4407 24.6153 71.1729 26.0903V17.3276L68.4914 18.9356V26.8716C68.195 26.9202 67.8789 26.9591 67.5564 26.9883V19.237L64.8717 20.845V27.024C64.5948 26.998 64.3211 26.9624 64.0572 26.9202V21.0492L61.3725 22.6604V26.0936C58.0688 24.5472 55.9771 21.4156 55.1137 18.5368C55.1105 18.5238 55.1072 18.5076 55.1007 18.4914C57.7528 18.378 60.5189 17.8982 63.1417 17.3989L63.1449 17.4022ZM55.0812 18.4006C54.9964 18.0667 54.9248 17.5578 54.8661 17.172C54.9248 17.5578 54.9964 18.0635 55.0812 18.4006ZM55.1007 18.4752C55.0942 18.4525 55.0877 18.4298 55.0812 18.4039C55.0877 18.4266 55.0942 18.4525 55.1007 18.4752ZM54.4426 16.864C54.2732 16.8608 54.107 16.851 53.9376 16.8413C53.918 16.8413 53.8985 16.8413 53.8789 16.8381C54.0679 16.851 54.2536 16.8608 54.4458 16.8672L54.4426 16.864Z" fill="#231916"/>
</svg>
