<svg width="202" height="43" viewBox="0 0 202 43" fill="none" xmlns="http://www.w3.org/2000/svg">
<path d="M198.62 21.2179C198.62 21.2805 198.594 21.3378 198.542 21.3899C198.5 21.4316 198.448 21.4525 198.385 21.4525H196.947C196.884 21.4525 196.827 21.4316 196.775 21.3899C196.733 21.3378 196.712 21.2805 196.712 21.2179V17.0741C196.379 17.3138 195.977 17.5119 195.508 17.6683C195.039 17.8142 194.492 17.9133 193.866 17.9654L191.223 18.153C191.192 18.153 191.161 18.1582 191.13 18.1687C191.098 18.1687 191.067 18.1687 191.036 18.1687C190.734 18.1687 190.515 18.1009 190.379 17.9654C190.244 17.8299 190.176 17.6474 190.176 17.4181V9.74018C190.176 9.67763 190.197 9.6255 190.238 9.5838C190.29 9.53168 190.348 9.50562 190.41 9.50562H195.242C195.305 9.50562 195.357 9.53168 195.399 9.5838C195.451 9.6255 195.477 9.67763 195.477 9.74018V10.8973C195.477 10.9599 195.451 11.0172 195.399 11.0693C195.357 11.111 195.305 11.1319 195.242 11.1319H192.084V16.4798L193.882 16.3547C194.83 16.2922 195.539 16.1098 196.008 15.8074C196.478 15.5051 196.712 15.1976 196.712 14.8848V9.34924C196.712 9.2867 196.733 9.23457 196.775 9.19287C196.827 9.14075 196.884 9.11469 196.947 9.11469H198.385C198.448 9.11469 198.5 9.14075 198.542 9.19287C198.594 9.23457 198.62 9.2867 198.62 9.34924V12.7113H199.996V9.34924C199.996 9.2867 200.017 9.23457 200.059 9.19287C200.111 9.14075 200.168 9.11469 200.231 9.11469H201.669C201.732 9.11469 201.784 9.14075 201.826 9.19287C201.878 9.23457 201.904 9.2867 201.904 9.34924V21.2179C201.904 21.2805 201.878 21.3378 201.826 21.3899C201.784 21.4316 201.732 21.4525 201.669 21.4525H200.231C200.168 21.4525 200.111 21.4316 200.059 21.3899C200.017 21.3378 199.996 21.2805 199.996 21.2179V14.3688H198.62V21.2179Z" fill="white"/>
<path d="M186.917 9.34924C186.979 9.34924 187.032 9.37531 187.073 9.42743C187.125 9.46913 187.151 9.52125 187.151 9.5838V12.8833C187.151 13.3211 187.068 13.6808 186.901 13.9622C186.745 14.2333 186.489 14.4574 186.135 14.6346C185.791 14.8014 185.338 14.9265 184.775 15.0099C184.222 15.0933 183.555 15.1611 182.773 15.2132C182.648 15.2236 182.523 15.2341 182.398 15.2445C182.283 15.2445 182.163 15.2445 182.038 15.2445C181.913 15.2445 181.788 15.2445 181.663 15.2445C181.548 15.2341 181.428 15.2236 181.303 15.2132C180.521 15.1611 179.849 15.0933 179.286 15.0099C178.733 14.9265 178.28 14.8014 177.925 14.6346C177.581 14.4574 177.326 14.2333 177.159 13.9622C177.003 13.6808 176.925 13.3211 176.925 12.8833V9.5838C176.925 9.52125 176.946 9.46913 176.987 9.42743C177.039 9.37531 177.097 9.34924 177.159 9.34924H186.917ZM181.209 17.6683H176.096C176.033 17.6683 175.976 17.6474 175.924 17.6057C175.882 17.5536 175.861 17.4963 175.861 17.4337V16.3078C175.861 16.2453 175.882 16.1932 175.924 16.1515C175.976 16.0993 176.033 16.0733 176.096 16.0733H187.98C188.043 16.0733 188.095 16.0993 188.137 16.1515C188.189 16.1932 188.215 16.2453 188.215 16.3078V17.4337C188.215 17.4963 188.189 17.5536 188.137 17.6057C188.095 17.6474 188.043 17.6683 187.98 17.6683H183.18V19.8419C183.18 19.9044 183.154 19.9617 183.101 20.0139C183.06 20.0556 183.008 20.0764 182.945 20.0764H181.444C181.381 20.0764 181.324 20.0556 181.272 20.0139C181.23 19.9617 181.209 19.9044 181.209 19.8419V17.6683ZM177.128 23.2977C177.065 23.2977 177.008 23.2716 176.956 23.2195C176.914 23.1778 176.893 23.1257 176.893 23.0631V18.9662C176.893 18.9036 176.914 18.8515 176.956 18.8098C177.008 18.7577 177.065 18.7316 177.128 18.7316H178.66C178.723 18.7316 178.775 18.7577 178.817 18.8098C178.869 18.8515 178.895 18.9036 178.895 18.9662V21.7027H186.995C187.058 21.7027 187.11 21.7235 187.151 21.7652C187.204 21.8174 187.23 21.8747 187.23 21.9373V23.0631C187.23 23.1257 187.204 23.1778 187.151 23.2195C187.11 23.2716 187.058 23.2977 186.995 23.2977H177.128ZM182.038 13.7277C183.164 13.7277 183.967 13.6547 184.446 13.5088C184.936 13.3628 185.181 13.1335 185.181 12.8207V10.8661H178.895V12.8207C178.895 13.1335 179.135 13.3628 179.614 13.5088C180.104 13.6547 180.912 13.7277 182.038 13.7277Z" fill="white"/>
<path d="M166.833 12.321V13.1341C166.833 13.3322 166.932 13.572 167.13 13.8534C167.328 14.1349 167.568 14.4216 167.849 14.7135C168.141 15.0054 168.449 15.2869 168.772 15.5579C169.106 15.8185 169.403 16.0322 169.663 16.199C169.736 16.2407 169.773 16.3085 169.773 16.4023C169.773 16.4753 169.752 16.5326 169.71 16.5743L168.819 17.5438C168.767 17.596 168.715 17.622 168.663 17.622C168.6 17.622 168.548 17.6012 168.506 17.5595C167.86 17.0695 167.297 16.59 166.817 16.1208C166.338 15.6413 166.015 15.2347 165.848 14.9011C165.754 15.0679 165.608 15.2712 165.41 15.511C165.222 15.7403 165.003 15.9853 164.753 16.2459C164.503 16.5066 164.237 16.7724 163.956 17.0434C163.674 17.3041 163.403 17.5438 163.143 17.7628C163.101 17.8045 163.044 17.8253 162.971 17.8253C162.908 17.8253 162.856 17.8045 162.814 17.7628L161.892 16.8402C161.84 16.7985 161.813 16.7359 161.813 16.6525C161.813 16.5691 161.845 16.5014 161.907 16.4492C162.262 16.1782 162.611 15.8915 162.955 15.5892C163.309 15.2869 163.622 14.9898 163.893 14.6979C164.175 14.406 164.399 14.1297 164.566 13.8691C164.743 13.598 164.831 13.3635 164.831 13.1654V12.321H162.22C162.157 12.321 162.1 12.3001 162.048 12.2584C162.006 12.2063 161.985 12.149 161.985 12.0864V10.9918C161.985 10.9293 162.006 10.8771 162.048 10.8355C162.1 10.7833 162.157 10.7573 162.22 10.7573H164.831V9.24045C164.831 9.1779 164.852 9.12578 164.894 9.08408C164.946 9.03195 165.003 9.00589 165.066 9.00589H166.598C166.661 9.00589 166.713 9.03195 166.755 9.08408C166.807 9.12578 166.833 9.1779 166.833 9.24045V10.7573H169.444C169.507 10.7573 169.559 10.7833 169.601 10.8355C169.653 10.8771 169.679 10.9293 169.679 10.9918V12.0864C169.679 12.149 169.653 12.2063 169.601 12.2584C169.559 12.3001 169.507 12.321 169.444 12.321H166.833ZM171.509 9.34991C171.509 9.28736 171.529 9.23524 171.571 9.19354C171.623 9.14141 171.681 9.11535 171.743 9.11535H173.276C173.338 9.11535 173.39 9.14141 173.432 9.19354C173.484 9.23524 173.51 9.28736 173.51 9.34991V19.1858C173.51 19.2483 173.484 19.3056 173.432 19.3578C173.39 19.3995 173.338 19.4203 173.276 19.4203H171.743C171.681 19.4203 171.623 19.3995 171.571 19.3578C171.529 19.3056 171.509 19.2483 171.509 19.1858V14.4164C171.373 14.5311 171.227 14.604 171.071 14.6353C170.925 14.6666 170.763 14.6874 170.586 14.6979L169.444 14.7448C169.382 14.7448 169.325 14.7239 169.272 14.6822C169.22 14.6405 169.194 14.5884 169.194 14.5258L169.147 13.3687C169.147 13.3061 169.168 13.254 169.21 13.2123C169.262 13.1602 169.319 13.1341 169.382 13.1341L170.32 13.0872C170.737 13.0664 171.034 13.009 171.211 12.9152C171.389 12.8214 171.488 12.6702 171.509 12.4617V9.34991ZM164.472 23.2984C164.409 23.2984 164.352 23.2723 164.3 23.2202C164.258 23.1785 164.237 23.1263 164.237 23.0638V18.9668C164.237 18.9043 164.258 18.8522 164.3 18.8105C164.352 18.7583 164.409 18.7323 164.472 18.7323H166.004C166.067 18.7323 166.119 18.7583 166.161 18.8105C166.213 18.8522 166.239 18.9043 166.239 18.9668V21.7034H173.729C173.792 21.7034 173.844 21.7242 173.885 21.7659C173.938 21.818 173.964 21.8754 173.964 21.9379V23.0638C173.964 23.1263 173.938 23.1785 173.885 23.2202C173.844 23.2723 173.792 23.2984 173.729 23.2984H164.472Z" fill="white"/>
<path d="M157.165 19.3575C157.227 19.3575 157.279 19.3836 157.321 19.4357C157.373 19.4774 157.399 19.5295 157.399 19.5921V20.7492C157.399 20.8118 157.373 20.8691 157.321 20.9212C157.279 20.9629 157.227 20.9838 157.165 20.9838H145.28C145.218 20.9838 145.161 20.9629 145.108 20.9212C145.067 20.8691 145.046 20.8118 145.046 20.7492V19.5921C145.046 19.5295 145.067 19.4774 145.108 19.4357C145.161 19.3836 145.218 19.3575 145.28 19.3575H147.157V14.7132C147.157 14.6507 147.178 14.5986 147.219 14.5569C147.272 14.5047 147.329 14.4787 147.391 14.4787H148.893C148.955 14.4787 149.007 14.5047 149.049 14.5569C149.101 14.5986 149.127 14.6507 149.127 14.7132V19.3575H150.722V14.7132C150.722 14.6507 150.743 14.5986 150.785 14.5569C150.837 14.5047 150.894 14.4787 150.957 14.4787H152.458C152.521 14.4787 152.573 14.5047 152.614 14.5569C152.666 14.5986 152.693 14.6507 152.693 14.7132V19.3575H157.165ZM154.241 17.5279C154.105 17.4967 154.037 17.4237 154.037 17.309C154.037 17.2777 154.043 17.2517 154.053 17.2308C154.168 16.8034 154.256 16.3291 154.319 15.8078C154.381 15.2762 154.413 14.635 154.413 13.8844V11.0228H146.266C146.203 11.0228 146.146 11.002 146.094 10.9603C146.052 10.9082 146.031 10.8508 146.031 10.7883V9.66238C146.031 9.59984 146.052 9.54771 146.094 9.50601C146.146 9.45389 146.203 9.42783 146.266 9.42783H156.18C156.242 9.42783 156.294 9.45389 156.336 9.50601C156.388 9.54771 156.414 9.59984 156.414 9.66238V13.6343C156.414 14.0825 156.399 14.5569 156.367 15.0572C156.336 15.5472 156.289 16.0007 156.227 16.4177C156.164 16.8243 156.086 17.1631 155.992 17.4341C155.909 17.6947 155.81 17.825 155.695 17.825C155.684 17.825 155.674 17.825 155.664 17.825C155.664 17.8146 155.658 17.8094 155.648 17.8094L154.241 17.5279Z" fill="white"/>
<path d="M138.143 13.9623C138.143 14.3898 138.054 14.8015 137.877 15.1977C137.71 15.5834 137.47 15.9274 137.158 16.2297C136.845 16.5216 136.47 16.7614 136.032 16.9491C135.594 17.1263 135.114 17.2149 134.593 17.2149C134.072 17.2149 133.592 17.1263 133.155 16.9491C132.717 16.7614 132.341 16.5164 132.029 16.2141C131.716 15.9118 131.471 15.5678 131.294 15.182C131.127 14.7859 131.044 14.3793 131.044 13.9623C131.044 13.5766 131.101 13.2222 131.216 12.899C131.341 12.5758 131.507 12.2839 131.716 12.0233H130.574C130.512 12.0233 130.455 12.0025 130.402 11.9608C130.361 11.9086 130.34 11.8513 130.34 11.7888V10.6941C130.34 10.6316 130.361 10.5795 130.402 10.5378C130.455 10.4856 130.512 10.4596 130.574 10.4596H133.499V9.03659C133.499 8.97404 133.519 8.92192 133.561 8.88022C133.613 8.82809 133.671 8.80203 133.733 8.80203H135.234C135.297 8.80203 135.349 8.82809 135.391 8.88022C135.443 8.92192 135.469 8.97404 135.469 9.03659V10.4596H138.612C138.675 10.4596 138.727 10.4856 138.768 10.5378C138.82 10.5795 138.847 10.6316 138.847 10.6941V11.7888C138.847 11.8513 138.82 11.9086 138.768 11.9608C138.727 12.0025 138.675 12.0233 138.612 12.0233H137.455C137.674 12.2839 137.841 12.5758 137.955 12.899C138.08 13.2222 138.143 13.5766 138.143 13.9623ZM132.216 18.5753C132.216 18.5128 132.237 18.4607 132.279 18.419C132.331 18.3668 132.388 18.3408 132.451 18.3408H141.833C141.896 18.3408 141.948 18.3668 141.99 18.419C142.042 18.4607 142.068 18.5128 142.068 18.5753V23.2978C142.068 23.3603 142.042 23.4125 141.99 23.4542C141.948 23.5063 141.896 23.5323 141.833 23.5323H140.301C140.238 23.5323 140.181 23.5063 140.129 23.4542C140.087 23.4125 140.066 23.3603 140.066 23.2978V19.9358H132.451C132.388 19.9358 132.331 19.9149 132.279 19.8732C132.237 19.8211 132.216 19.7638 132.216 19.7012V18.5753ZM142.068 17.4807C142.068 17.5433 142.042 17.6006 141.99 17.6527C141.948 17.6944 141.896 17.7153 141.833 17.7153H140.301C140.238 17.7153 140.181 17.6944 140.129 17.6527C140.087 17.6006 140.066 17.5433 140.066 17.4807V9.34934C140.066 9.28679 140.087 9.23466 140.129 9.19296C140.181 9.14084 140.238 9.11478 140.301 9.11478H141.833C141.896 9.11478 141.948 9.14084 141.99 9.19296C142.042 9.23466 142.068 9.28679 142.068 9.34934V12.1171C142.328 11.8357 142.667 11.6793 143.084 11.648L143.725 11.6011C143.788 11.6011 143.84 11.6167 143.882 11.648C143.934 11.6793 143.965 11.7314 143.976 11.8044L144.069 13.071C144.069 13.217 143.996 13.3004 143.85 13.3212L143.209 13.3681C142.897 13.389 142.631 13.4776 142.412 13.634C142.203 13.7903 142.089 13.9675 142.068 14.1656V17.4807ZM134.593 15.745C135.094 15.745 135.49 15.5834 135.782 15.2602C136.084 14.9266 136.235 14.494 136.235 13.9623C136.235 13.7017 136.193 13.4567 136.11 13.2274C136.037 12.998 135.928 12.7947 135.782 12.6175C135.636 12.4403 135.464 12.2996 135.266 12.1953C135.068 12.0911 134.843 12.0389 134.593 12.0389C134.343 12.0389 134.119 12.0911 133.921 12.1953C133.723 12.2996 133.551 12.4403 133.405 12.6175C133.259 12.7947 133.144 12.998 133.061 13.2274C132.988 13.4567 132.951 13.7017 132.951 13.9623C132.951 14.494 133.097 14.9266 133.389 15.2602C133.691 15.5834 134.093 15.745 134.593 15.745Z" fill="white"/>
<path d="M125.564 21.2179C125.564 21.2805 125.538 21.3378 125.486 21.3899C125.444 21.4316 125.392 21.4525 125.33 21.4525H123.891C123.829 21.4525 123.771 21.4316 123.719 21.3899C123.677 21.3378 123.657 21.2805 123.657 21.2179V17.0741C123.323 17.3138 122.922 17.5119 122.452 17.6683C121.983 17.8142 121.436 17.9133 120.811 17.9654L118.168 18.153C118.137 18.153 118.105 18.1582 118.074 18.1687C118.043 18.1687 118.011 18.1687 117.98 18.1687C117.678 18.1687 117.459 18.1009 117.323 17.9654C117.188 17.8299 117.12 17.6474 117.12 17.4181V9.74018C117.12 9.67763 117.141 9.6255 117.183 9.5838C117.235 9.53168 117.292 9.50562 117.355 9.50562H122.187C122.249 9.50562 122.301 9.53168 122.343 9.5838C122.395 9.6255 122.421 9.67763 122.421 9.74018V10.8973C122.421 10.9599 122.395 11.0172 122.343 11.0693C122.301 11.111 122.249 11.1319 122.187 11.1319H119.028V16.4798L120.826 16.3547C121.775 16.2922 122.484 16.1098 122.953 15.8074C123.422 15.5051 123.657 15.1976 123.657 14.8848V9.34924C123.657 9.2867 123.677 9.23457 123.719 9.19287C123.771 9.14075 123.829 9.11469 123.891 9.11469H125.33C125.392 9.11469 125.444 9.14075 125.486 9.19287C125.538 9.23457 125.564 9.2867 125.564 9.34924V12.7113H126.94V9.34924C126.94 9.2867 126.961 9.23457 127.003 9.19287C127.055 9.14075 127.112 9.11469 127.175 9.11469H128.614C128.676 9.11469 128.728 9.14075 128.77 9.19287C128.822 9.23457 128.848 9.2867 128.848 9.34924V21.2179C128.848 21.2805 128.822 21.3378 128.77 21.3899C128.728 21.4316 128.676 21.4525 128.614 21.4525H127.175C127.112 21.4525 127.055 21.4316 127.003 21.3899C126.961 21.3378 126.94 21.2805 126.94 21.2179V14.3688H125.564V21.2179Z" fill="white"/>
<path d="M112.126 9.50672C112.126 9.44417 112.147 9.39204 112.189 9.35034C112.241 9.29822 112.298 9.27216 112.361 9.27216H113.862C113.925 9.27216 113.977 9.29822 114.019 9.35034C114.071 9.39204 114.097 9.44417 114.097 9.50672V12.6029C114.097 13.0303 114.019 13.3952 113.862 13.6975C113.706 13.9998 113.445 14.2552 113.08 14.4637C112.715 14.6618 112.231 14.8234 111.626 14.9485C111.032 15.0736 110.297 15.183 109.421 15.2769C109.338 15.2873 109.26 15.2977 109.187 15.3081C109.124 15.3081 109.056 15.3081 108.983 15.3081C108.91 15.3081 108.837 15.3081 108.764 15.3081C108.702 15.2977 108.629 15.2873 108.546 15.2769C107.67 15.183 106.93 15.0736 106.325 14.9485C105.731 14.8234 105.251 14.6618 104.886 14.4637C104.522 14.2552 104.261 14.005 104.105 13.7131C103.948 13.4108 103.87 13.0407 103.87 12.6029V9.50672C103.87 9.44417 103.891 9.39204 103.933 9.35034C103.985 9.29822 104.042 9.27216 104.105 9.27216H105.606C105.668 9.27216 105.72 9.29822 105.762 9.35034C105.814 9.39204 105.84 9.44417 105.84 9.50672V10.617H112.126V9.50672ZM115.16 17.2784C115.16 17.341 115.134 17.3983 115.082 17.4504C115.04 17.4921 114.988 17.513 114.926 17.513H109.984V18.6545H113.862C113.925 18.6545 113.977 18.6806 114.019 18.7327C114.071 18.7744 114.097 18.8265 114.097 18.8891V23.2988C114.097 23.3613 114.071 23.4135 114.019 23.4552C113.977 23.5073 113.925 23.5333 113.862 23.5333H112.33C112.267 23.5333 112.21 23.5073 112.158 23.4552C112.116 23.4135 112.095 23.3613 112.095 23.2988V20.2495H104.026C103.964 20.2495 103.906 20.2287 103.854 20.187C103.813 20.1348 103.792 20.0775 103.792 20.015V18.8891C103.792 18.8265 103.813 18.7744 103.854 18.7327C103.906 18.6806 103.964 18.6545 104.026 18.6545H107.983V17.513H103.041C102.979 17.513 102.921 17.4921 102.869 17.4504C102.827 17.3983 102.807 17.341 102.807 17.2784V16.1526C102.807 16.09 102.827 16.0379 102.869 15.9962C102.921 15.9441 102.979 15.918 103.041 15.918H114.926C114.988 15.918 115.04 15.9441 115.082 15.9962C115.134 16.0379 115.16 16.09 115.16 16.1526V17.2784ZM112.126 12.1807H105.84V12.6029C105.84 12.7801 105.892 12.9313 105.997 13.0564C106.111 13.1815 106.294 13.2909 106.544 13.3848C106.794 13.4786 107.117 13.5568 107.513 13.6193C107.92 13.6819 108.41 13.734 108.983 13.7757C109.557 13.734 110.041 13.6819 110.438 13.6193C110.844 13.5568 111.173 13.4786 111.423 13.3848C111.673 13.2909 111.85 13.1815 111.954 13.0564C112.069 12.9313 112.126 12.7801 112.126 12.6029V12.1807Z" fill="white"/>
<path d="M98.7657 20.8424C98.7657 21.2802 98.6719 21.6868 98.4842 22.0621C98.2966 22.4374 98.0308 22.7658 97.6867 23.0473C97.3531 23.3287 96.9466 23.5476 96.467 23.704C95.9979 23.8604 95.4767 23.9386 94.9033 23.9386C94.3299 23.9386 93.8035 23.8552 93.3239 23.6884C92.8548 23.532 92.4482 23.3131 92.1042 23.0316C91.7706 22.7606 91.51 22.4374 91.3224 22.0621C91.1347 21.6868 91.0409 21.2802 91.0409 20.8424C91.0409 20.4775 91.1086 20.1335 91.2442 19.8103C91.3797 19.4767 91.5725 19.1796 91.8227 18.919C92.0729 18.6584 92.3701 18.4343 92.7141 18.2466C93.0685 18.059 93.4647 17.9234 93.9025 17.84V17.2458H88.9611C88.8986 17.2458 88.8412 17.225 88.7891 17.1833C88.7474 17.1312 88.7266 17.0738 88.7266 17.0113V15.8854C88.7266 15.8228 88.7474 15.7707 88.7891 15.729C88.8412 15.6769 88.8986 15.6508 88.9611 15.6508H100.845C100.908 15.6508 100.96 15.6769 101.002 15.729C101.054 15.7707 101.08 15.8228 101.08 15.8854V17.0113C101.08 17.0738 101.054 17.1312 101.002 17.1833C100.96 17.225 100.908 17.2458 100.845 17.2458H95.9041V17.84C96.3315 17.9234 96.7224 18.059 97.0769 18.2466C97.4313 18.4343 97.7336 18.6584 97.9838 18.919C98.234 19.1796 98.4269 19.4767 98.5624 19.8103C98.6979 20.1335 98.7657 20.4775 98.7657 20.8424ZM100.017 9.97449C100.079 9.97449 100.131 10.0006 100.173 10.0527C100.225 10.0944 100.251 10.1465 100.251 10.2091V11.3037C100.251 11.3662 100.225 11.4235 100.173 11.4757C100.131 11.5174 100.079 11.5382 100.017 11.5382H95.9197V11.632C95.9197 11.8197 95.9875 11.9865 96.123 12.1324C96.2689 12.2784 96.5087 12.4243 96.8423 12.5703C97.1863 12.7058 97.6398 12.8413 98.2028 12.9768C98.7761 13.1124 99.4954 13.2583 100.361 13.4147C100.507 13.4564 100.58 13.5346 100.58 13.6493C100.58 13.6701 100.574 13.6857 100.564 13.6962C100.564 13.6962 100.564 13.7066 100.564 13.7274L100.267 14.8064C100.236 14.9315 100.157 14.9941 100.032 14.9941C100.022 14.9941 100.011 14.9941 100.001 14.9941C99.9906 14.9836 99.9802 14.9784 99.9698 14.9784C99.0211 14.7699 98.2497 14.5927 97.6555 14.4468C97.0717 14.2904 96.5973 14.1496 96.2325 14.0245C95.878 13.889 95.607 13.7587 95.4193 13.6336C95.2317 13.4981 95.0597 13.3469 94.9033 13.1801C94.7365 13.3678 94.5488 13.5346 94.3403 13.6805C94.1423 13.816 93.8608 13.9568 93.4959 14.1027C93.1311 14.2383 92.6567 14.3894 92.0729 14.5562C91.4996 14.7126 90.7542 14.9002 89.8368 15.1192C89.816 15.1296 89.7847 15.1348 89.743 15.1348C89.6283 15.1348 89.5606 15.0775 89.5397 14.9628L89.227 13.8682C89.227 13.8577 89.2217 13.8473 89.2113 13.8369C89.2113 13.8265 89.2113 13.816 89.2113 13.8056C89.2113 13.6701 89.2843 13.5867 89.4302 13.5554C90.3164 13.3678 91.0461 13.1958 91.6195 13.0394C92.1928 12.883 92.6463 12.7319 92.9799 12.5859C93.3239 12.4295 93.5585 12.2784 93.6836 12.1324C93.8191 11.9761 93.8869 11.8093 93.8869 11.632V11.5382H89.7899C89.7273 11.5382 89.67 11.5174 89.6179 11.4757C89.5762 11.4235 89.5553 11.3662 89.5553 11.3037V10.2091C89.5553 10.1465 89.5762 10.0944 89.6179 10.0527C89.67 10.0006 89.7273 9.97449 89.7899 9.97449H93.9025V8.87988C93.9025 8.81733 93.9234 8.76521 93.9651 8.72351C94.0172 8.67139 94.0745 8.64532 94.1371 8.64532H95.6695C95.7321 8.64532 95.7842 8.67139 95.8259 8.72351C95.878 8.76521 95.9041 8.81733 95.9041 8.87988V9.97449H100.017ZM94.9033 22.4374C95.4975 22.4374 95.9666 22.2862 96.3106 21.9839C96.6547 21.692 96.8267 21.3115 96.8267 20.8424C96.8267 20.3837 96.6547 20.0032 96.3106 19.7009C95.9666 19.3986 95.4975 19.2474 94.9033 19.2474C94.3091 19.2474 93.84 19.3986 93.4959 19.7009C93.1519 20.0032 92.9799 20.3837 92.9799 20.8424C92.9799 21.3115 93.1519 21.692 93.4959 21.9839C93.84 22.2862 94.3091 22.4374 94.9033 22.4374Z" fill="white"/>
<path d="M197.375 36.4732C197.394 36.4408 197.415 36.413 197.438 36.3898C197.461 36.3666 197.493 36.3551 197.535 36.3551H197.987C198.047 36.3551 198.077 36.3829 198.077 36.4385C198.077 36.4524 198.075 36.4639 198.07 36.4732L196.34 39.5729V41.4146C196.34 41.4424 196.328 41.4679 196.305 41.491C196.286 41.5142 196.261 41.5258 196.228 41.5258H195.818C195.786 41.5258 195.758 41.5142 195.735 41.491C195.712 41.4679 195.7 41.4424 195.7 41.4146V39.5381L193.984 36.4732C193.974 36.4547 193.97 36.4431 193.97 36.4385C193.97 36.4153 193.979 36.3968 193.998 36.3829C194.021 36.3643 194.044 36.3551 194.067 36.3551H194.519C194.56 36.3551 194.593 36.3666 194.616 36.3898C194.639 36.413 194.66 36.4408 194.679 36.4732L196.027 38.9821L197.375 36.4732Z" fill="white"/>
<path d="M193.607 41.4007C193.616 41.4285 193.621 41.4493 193.621 41.4632C193.621 41.5049 193.597 41.5258 193.551 41.5258H193.113C193.03 41.5258 192.979 41.4887 192.96 41.4146L192.335 39.83C192.275 39.6817 192.182 39.5682 192.057 39.4895C191.936 39.4061 191.744 39.3644 191.48 39.3644H190.389V41.4146C190.389 41.4424 190.377 41.4679 190.354 41.491C190.331 41.5142 190.303 41.5258 190.271 41.5258H189.895C189.868 41.5258 189.842 41.5142 189.819 41.491C189.796 41.4679 189.784 41.4424 189.784 41.4146V36.4732C189.784 36.4408 189.796 36.413 189.819 36.3898C189.842 36.3666 189.868 36.3551 189.895 36.3551H191.452C191.73 36.3551 191.983 36.3829 192.21 36.4385C192.441 36.4941 192.638 36.5821 192.8 36.7026C192.967 36.823 193.097 36.9782 193.19 37.1682C193.282 37.3535 193.329 37.5782 193.329 37.8423C193.329 38.125 193.259 38.3821 193.12 38.6138C192.981 38.8408 192.77 39.0285 192.488 39.1767C192.65 39.2462 192.798 39.4385 192.932 39.7536L193.607 41.4007ZM192.717 37.8423C192.717 37.4948 192.61 37.24 192.397 37.0778C192.184 36.911 191.89 36.8277 191.515 36.8277H190.389V38.8918H191.529C191.904 38.8918 192.196 38.8084 192.404 38.6416C192.613 38.4701 192.717 38.2037 192.717 37.8423Z" fill="white"/>
<path d="M186.623 41.609C186.318 41.609 186.026 41.5511 185.748 41.4352C185.47 41.3194 185.226 41.148 185.018 40.921C184.81 40.6939 184.643 40.4159 184.518 40.087C184.397 39.7534 184.337 39.3711 184.337 38.9402C184.337 38.5093 184.399 38.1294 184.525 37.8004C184.65 37.4715 184.816 37.1958 185.025 36.9734C185.233 36.751 185.474 36.5842 185.748 36.473C186.026 36.3572 186.318 36.2993 186.623 36.2993C186.925 36.2993 187.212 36.3549 187.485 36.4661C187.763 36.5773 188.006 36.7441 188.215 36.9665C188.428 37.1889 188.597 37.4645 188.722 37.7935C188.847 38.1225 188.91 38.5047 188.91 38.9402C188.91 39.3758 188.847 39.7603 188.722 40.0939C188.597 40.4275 188.43 40.7078 188.222 40.9349C188.013 41.1572 187.77 41.3264 187.492 41.4422C187.219 41.5534 186.929 41.609 186.623 41.609ZM186.623 41.1295C186.892 41.1295 187.131 41.0692 187.339 40.9488C187.548 40.8237 187.724 40.6615 187.867 40.4623C188.011 40.2584 188.118 40.0267 188.187 39.7673C188.261 39.5032 188.298 39.2298 188.298 38.9472C188.298 38.6692 188.261 38.4005 188.187 38.141C188.113 37.8815 188.004 37.6522 187.861 37.453C187.722 37.2491 187.548 37.0869 187.339 36.9665C187.131 36.8414 186.892 36.7788 186.623 36.7788C186.355 36.7788 186.116 36.8414 185.908 36.9665C185.699 37.0869 185.523 37.2491 185.379 37.453C185.24 37.6522 185.134 37.8815 185.06 38.141C184.986 38.4005 184.949 38.6692 184.949 38.9472C184.949 39.2298 184.983 39.5032 185.053 39.7673C185.127 40.0267 185.236 40.2584 185.379 40.4623C185.523 40.6615 185.697 40.8237 185.901 40.9488C186.109 41.0692 186.35 41.1295 186.623 41.1295Z" fill="white"/>
<path d="M183.523 36.3687C183.556 36.3687 183.583 36.3803 183.607 36.4035C183.63 36.4267 183.641 36.4545 183.641 36.4869V36.7579C183.641 36.7904 183.63 36.8182 183.607 36.8413C183.583 36.8599 183.556 36.8691 183.523 36.8691H181.987V41.4144C181.987 41.4422 181.976 41.4677 181.952 41.4908C181.929 41.514 181.902 41.5256 181.869 41.5256H181.501C181.468 41.5256 181.441 41.514 181.417 41.4908C181.394 41.4677 181.383 41.4422 181.383 41.4144V36.8691H179.847C179.814 36.8691 179.786 36.8599 179.763 36.8413C179.74 36.8182 179.729 36.7904 179.729 36.7579V36.4869C179.729 36.4545 179.74 36.4267 179.763 36.4035C179.786 36.3803 179.814 36.3687 179.847 36.3687H183.523Z" fill="white"/>
<path d="M175.661 41.5254C175.6 41.5254 175.57 41.4999 175.57 41.4489C175.57 41.435 175.573 41.4235 175.577 41.4142L177.475 36.4242C177.493 36.35 177.542 36.313 177.621 36.313H177.926C177.954 36.313 177.982 36.3246 178.01 36.3477C178.038 36.3663 178.056 36.3917 178.065 36.4242L179.963 41.4142C179.963 41.4188 179.963 41.4235 179.963 41.4281C179.967 41.4327 179.97 41.4374 179.97 41.442C179.97 41.4652 179.958 41.486 179.935 41.5045C179.916 41.5184 179.895 41.5254 179.872 41.5254H179.462C179.43 41.5254 179.4 41.5138 179.372 41.4906C179.344 41.4675 179.326 41.442 179.316 41.4142L178.858 40.1702H177.009C176.907 40.1702 176.821 40.1933 176.752 40.2397C176.682 40.286 176.627 40.3624 176.585 40.469L176.217 41.4142C176.207 41.442 176.189 41.4675 176.161 41.4906C176.133 41.5138 176.103 41.5254 176.071 41.5254H175.661ZM176.807 39.8157C176.831 39.7787 176.868 39.7509 176.919 39.7323C176.97 39.7092 177.041 39.6976 177.134 39.6976H178.698L177.773 37.1956L176.807 39.8157Z" fill="white"/>
<path d="M172.843 41.5744C172.811 41.5744 172.781 41.5628 172.753 41.5397C172.725 41.5165 172.707 41.4887 172.697 41.4563L170.8 36.4732C170.795 36.4639 170.793 36.4524 170.793 36.4385C170.793 36.3829 170.823 36.3551 170.883 36.3551H171.293C171.335 36.3551 171.367 36.3666 171.391 36.3898C171.414 36.413 171.43 36.4408 171.439 36.4732L173.003 40.7613L174.56 36.4732C174.574 36.4408 174.59 36.413 174.608 36.3898C174.632 36.3666 174.664 36.3551 174.706 36.3551H175.116C175.139 36.3551 175.16 36.3643 175.178 36.3829C175.202 36.4014 175.213 36.4222 175.213 36.4454C175.213 36.45 175.211 36.4547 175.206 36.4593C175.206 36.4639 175.206 36.4686 175.206 36.4732L173.302 41.4563C173.293 41.4887 173.274 41.5165 173.246 41.5397C173.218 41.5628 173.191 41.5744 173.163 41.5744H172.843Z" fill="white"/>
<path d="M170.408 41.4007C170.418 41.4285 170.422 41.4493 170.422 41.4632C170.422 41.5049 170.399 41.5258 170.353 41.5258H169.915C169.832 41.5258 169.781 41.4887 169.762 41.4146L169.137 39.83C169.076 39.6817 168.984 39.5682 168.859 39.4895C168.738 39.4061 168.546 39.3644 168.282 39.3644H167.191V41.4146C167.191 41.4424 167.179 41.4679 167.156 41.491C167.133 41.5142 167.105 41.5258 167.072 41.5258H166.697C166.669 41.5258 166.644 41.5142 166.621 41.491C166.598 41.4679 166.586 41.4424 166.586 41.4146V36.4732C166.586 36.4408 166.598 36.413 166.621 36.3898C166.644 36.3666 166.669 36.3551 166.697 36.3551H168.254C168.532 36.3551 168.784 36.3829 169.011 36.4385C169.243 36.4941 169.44 36.5821 169.602 36.7026C169.769 36.823 169.899 36.9782 169.991 37.1682C170.084 37.3535 170.13 37.5782 170.13 37.8423C170.13 38.125 170.061 38.3821 169.922 38.6138C169.783 38.8408 169.572 39.0285 169.289 39.1767C169.452 39.2462 169.6 39.4385 169.734 39.7536L170.408 41.4007ZM169.519 37.8423C169.519 37.4948 169.412 37.24 169.199 37.0778C168.986 36.911 168.692 36.8277 168.316 36.8277H167.191V38.8918H168.33C168.706 38.8918 168.998 38.8084 169.206 38.6416C169.415 38.4701 169.519 38.2037 169.519 37.8423Z" fill="white"/>
<path d="M162.401 41.5258C162.373 41.5258 162.348 41.5142 162.325 41.491C162.302 41.4679 162.29 41.4424 162.29 41.4146V36.4732C162.29 36.4408 162.302 36.413 162.325 36.3898C162.348 36.3666 162.373 36.3551 162.401 36.3551H165.369C165.397 36.3551 165.422 36.3666 165.445 36.3898C165.468 36.413 165.48 36.4408 165.48 36.4732V36.7304C165.48 36.7582 165.468 36.7836 165.445 36.8068C165.422 36.83 165.397 36.8415 165.369 36.8415H162.895V38.5721H165.16C165.188 38.5721 165.214 38.5837 165.237 38.6068C165.26 38.63 165.272 38.6578 165.272 38.6902V38.9404C165.272 38.9682 165.26 38.9937 165.237 39.0169C165.214 39.04 165.188 39.0516 165.16 39.0516H162.895V41.0393H165.543C165.57 41.0393 165.596 41.0509 165.619 41.074C165.642 41.0972 165.654 41.125 165.654 41.1574V41.4146C165.654 41.4424 165.642 41.4679 165.619 41.491C165.596 41.5142 165.57 41.5258 165.543 41.5258H162.401Z" fill="white"/>
<path d="M159.674 41.1294C160.05 41.1294 160.339 41.0413 160.543 40.8653C160.752 40.6846 160.856 40.4483 160.856 40.1564C160.856 40.0174 160.826 39.8946 160.766 39.788C160.705 39.6768 160.615 39.5772 160.494 39.4892C160.379 39.3965 160.235 39.3131 160.064 39.239C159.897 39.1602 159.702 39.0838 159.48 39.0096C159.285 38.9448 159.095 38.873 158.91 38.7942C158.729 38.7108 158.569 38.6135 158.43 38.5023C158.291 38.3911 158.18 38.2637 158.097 38.12C158.013 37.9764 157.972 37.8096 157.972 37.6197C157.972 37.4204 158.011 37.2397 158.09 37.0776C158.173 36.9154 158.284 36.7787 158.423 36.6675C158.567 36.5517 158.738 36.4637 158.938 36.4034C159.137 36.3386 159.355 36.3061 159.591 36.3061C159.786 36.3061 159.98 36.3339 160.175 36.3895C160.369 36.4405 160.545 36.5193 160.703 36.6258C160.861 36.7277 160.988 36.8575 161.085 37.015C161.187 37.1725 161.238 37.3532 161.238 37.5571C161.238 37.5803 161.233 37.5988 161.224 37.6127C161.215 37.622 161.192 37.6266 161.155 37.6266H160.759C160.722 37.6266 160.696 37.622 160.682 37.6127C160.673 37.5988 160.664 37.5733 160.654 37.5363C160.599 37.2768 160.469 37.0868 160.265 36.9664C160.066 36.8413 159.841 36.7787 159.591 36.7787C159.299 36.7787 159.06 36.8482 158.875 36.9872C158.69 37.1216 158.597 37.3069 158.597 37.5432C158.597 37.6822 158.63 37.8027 158.694 37.9046C158.764 38.0065 158.857 38.0969 158.972 38.1756C159.093 38.2544 159.237 38.3262 159.403 38.3911C159.57 38.456 159.755 38.5231 159.959 38.5926C160.182 38.6714 160.386 38.7548 160.571 38.8428C160.756 38.9309 160.916 39.0328 161.05 39.1486C161.185 39.2645 161.289 39.3988 161.363 39.5517C161.437 39.7046 161.474 39.8807 161.474 40.0799C161.474 40.3208 161.43 40.5363 161.342 40.7263C161.254 40.9116 161.132 41.0691 160.974 41.1989C160.821 41.3286 160.633 41.4282 160.411 41.4977C160.193 41.5672 159.952 41.6019 159.688 41.6019C159.447 41.6019 159.223 41.5718 159.014 41.5116C158.806 41.4467 158.623 41.3564 158.465 41.2406C158.308 41.1201 158.176 40.9718 158.069 40.7958C157.967 40.6197 157.9 40.4181 157.867 40.1911C157.858 40.1633 157.854 40.1448 157.854 40.1355C157.854 40.0938 157.884 40.073 157.944 40.073H158.347C158.384 40.073 158.407 40.0799 158.416 40.0938C158.43 40.1031 158.442 40.1263 158.451 40.1633C158.53 40.4876 158.676 40.7309 158.889 40.8931C159.107 41.0506 159.369 41.1294 159.674 41.1294Z" fill="white"/>
<path d="M155.327 36.3551C155.582 36.3551 155.816 36.3829 156.029 36.4385C156.243 36.4894 156.426 36.5705 156.578 36.6817C156.736 36.7929 156.859 36.9319 156.947 37.0987C157.035 37.2655 157.079 37.4601 157.079 37.6825C157.079 37.9327 157.026 38.1574 156.919 38.3566C156.812 38.5512 156.671 38.6925 156.495 38.7806C156.731 38.8825 156.926 39.0354 157.079 39.2393C157.232 39.4385 157.308 39.698 157.308 40.0177C157.308 40.481 157.153 40.8493 156.843 41.1227C156.532 41.3914 156.039 41.5258 155.362 41.5258H153.632C153.604 41.5258 153.578 41.5142 153.555 41.491C153.532 41.4679 153.521 41.4424 153.521 41.4146V36.4732C153.521 36.4408 153.532 36.413 153.555 36.3898C153.578 36.3666 153.604 36.3551 153.632 36.3551H155.327ZM156.467 37.7103C156.467 37.4462 156.365 37.2354 156.161 37.0778C155.962 36.9157 155.675 36.8346 155.3 36.8346H154.125V38.6068H155.341C155.689 38.6068 155.962 38.535 156.161 38.3914C156.365 38.2431 156.467 38.0161 156.467 37.7103ZM156.69 40.0316C156.69 39.7258 156.576 39.4918 156.349 39.3296C156.122 39.1628 155.763 39.0794 155.272 39.0794H154.125V41.0462H155.473C155.904 41.0462 156.215 40.9513 156.405 40.7613C156.595 40.5713 156.69 40.3281 156.69 40.0316Z" fill="white"/>
<path d="M150.361 41.609C150.055 41.609 149.763 41.5511 149.485 41.4352C149.207 41.3194 148.964 41.148 148.755 40.921C148.547 40.6939 148.38 40.4159 148.255 40.087C148.134 39.7534 148.074 39.3711 148.074 38.9402C148.074 38.5093 148.137 38.1294 148.262 37.8004C148.387 37.4715 148.554 37.1958 148.762 36.9734C148.971 36.751 149.212 36.5842 149.485 36.473C149.763 36.3572 150.055 36.2993 150.361 36.2993C150.662 36.2993 150.949 36.3549 151.223 36.4661C151.501 36.5773 151.744 36.7441 151.952 36.9665C152.165 37.1889 152.335 37.4645 152.46 37.7935C152.585 38.1225 152.647 38.5047 152.647 38.9402C152.647 39.3758 152.585 39.7603 152.46 40.0939C152.335 40.4275 152.168 40.7078 151.959 40.9349C151.751 41.1572 151.507 41.3264 151.229 41.4422C150.956 41.5534 150.667 41.609 150.361 41.609ZM150.361 41.1295C150.629 41.1295 150.868 41.0692 151.077 40.9488C151.285 40.8237 151.461 40.6615 151.605 40.4623C151.748 40.2584 151.855 40.0267 151.924 39.7673C151.999 39.5032 152.036 39.2298 152.036 38.9472C152.036 38.6692 151.999 38.4005 151.924 38.141C151.85 37.8815 151.741 37.6522 151.598 37.453C151.459 37.2491 151.285 37.0869 151.077 36.9665C150.868 36.8414 150.629 36.7788 150.361 36.7788C150.092 36.7788 149.853 36.8414 149.645 36.9665C149.436 37.0869 149.26 37.2491 149.117 37.453C148.978 37.6522 148.871 37.8815 148.797 38.141C148.723 38.4005 148.686 38.6692 148.686 38.9472C148.686 39.2298 148.721 39.5032 148.79 39.7673C148.864 40.0267 148.973 40.2584 149.117 40.4623C149.26 40.6615 149.434 40.8237 149.638 40.9488C149.846 41.0692 150.087 41.1295 150.361 41.1295Z" fill="white"/>
<path d="M143.049 41.5258C143.021 41.5258 142.995 41.5142 142.972 41.491C142.949 41.4679 142.938 41.4424 142.938 41.4146V36.4732C142.938 36.4408 142.949 36.413 142.972 36.3898C142.995 36.3666 143.021 36.3551 143.049 36.3551H143.424C143.456 36.3551 143.484 36.3666 143.507 36.3898C143.531 36.413 143.542 36.4408 143.542 36.4732V41.0254H146.023C146.056 41.0254 146.081 41.037 146.1 41.0601C146.123 41.0833 146.134 41.1111 146.134 41.1435V41.4146C146.134 41.4424 146.123 41.4679 146.1 41.491C146.081 41.5142 146.056 41.5258 146.023 41.5258H143.049Z" fill="white"/>
<path d="M138.007 41.5254C137.947 41.5254 137.917 41.4999 137.917 41.4489C137.917 41.435 137.919 41.4235 137.924 41.4142L139.821 36.4242C139.84 36.35 139.888 36.313 139.967 36.313H140.273C140.301 36.313 140.329 36.3246 140.356 36.3477C140.384 36.3663 140.403 36.3917 140.412 36.4242L142.309 41.4142C142.309 41.4188 142.309 41.4235 142.309 41.4281C142.314 41.4327 142.316 41.4374 142.316 41.442C142.316 41.4652 142.305 41.486 142.282 41.5045C142.263 41.5184 142.242 41.5254 142.219 41.5254H141.809C141.777 41.5254 141.746 41.5138 141.719 41.4906C141.691 41.4675 141.672 41.442 141.663 41.4142L141.204 40.1702H139.356C139.254 40.1702 139.168 40.1933 139.098 40.2397C139.029 40.286 138.973 40.3624 138.932 40.469L138.563 41.4142C138.554 41.442 138.536 41.4675 138.508 41.4906C138.48 41.5138 138.45 41.5254 138.417 41.5254H138.007ZM139.154 39.8157C139.177 39.7787 139.214 39.7509 139.265 39.7323C139.316 39.7092 139.388 39.6976 139.481 39.6976H141.044L140.12 37.1956L139.154 39.8157Z" fill="white"/>
<path d="M137.544 39.9827C137.502 40.2561 137.423 40.4947 137.307 40.6986C137.192 40.9024 137.043 41.0715 136.863 41.2059C136.687 41.3403 136.485 41.4422 136.258 41.5117C136.036 41.5766 135.797 41.609 135.542 41.609C135.236 41.609 134.949 41.5511 134.68 41.4352C134.412 41.3194 134.178 41.1503 133.978 40.9279C133.779 40.7009 133.622 40.4229 133.506 40.0939C133.39 39.7603 133.332 39.3758 133.332 38.9402C133.332 38.5093 133.39 38.1294 133.506 37.8004C133.622 37.4715 133.779 37.1958 133.978 36.9734C134.182 36.751 134.419 36.5842 134.687 36.473C134.956 36.3572 135.241 36.2993 135.542 36.2993C136.038 36.2993 136.462 36.4336 136.814 36.7024C137.166 36.9711 137.402 37.358 137.523 37.863C137.527 37.8723 137.53 37.8862 137.53 37.9047C137.53 37.9557 137.497 37.9811 137.432 37.9811H137.009C136.971 37.9811 136.948 37.9765 136.939 37.9672C136.934 37.9533 136.927 37.9279 136.918 37.8908C136.83 37.5572 136.666 37.2885 136.425 37.0846C136.184 36.8807 135.89 36.7788 135.542 36.7788C135.278 36.7788 135.046 36.839 134.847 36.9595C134.648 37.08 134.481 37.2421 134.347 37.446C134.212 37.6452 134.11 37.8769 134.041 38.141C133.976 38.4005 133.944 38.6692 133.944 38.9472C133.944 39.2298 133.976 39.5032 134.041 39.7673C134.11 40.0267 134.21 40.2584 134.34 40.4623C134.474 40.6615 134.641 40.8237 134.84 40.9488C135.039 41.0692 135.273 41.1295 135.542 41.1295C135.723 41.1295 135.892 41.1017 136.049 41.0461C136.212 40.9905 136.353 40.9117 136.473 40.8098C136.598 40.7078 136.7 40.585 136.779 40.4414C136.863 40.2931 136.918 40.131 136.946 39.9549C136.951 39.9179 136.958 39.8947 136.967 39.8854C136.976 39.8715 136.999 39.8646 137.036 39.8646H137.453C137.518 39.8646 137.551 39.8877 137.551 39.9341C137.551 39.9572 137.548 39.9735 137.544 39.9827Z" fill="white"/>
<path d="M131.83 36.4732C131.83 36.4408 131.842 36.413 131.865 36.3898C131.888 36.3666 131.913 36.3551 131.941 36.3551H132.317C132.349 36.3551 132.377 36.3666 132.4 36.3898C132.423 36.413 132.435 36.4408 132.435 36.4732V41.4146C132.435 41.4424 132.423 41.4679 132.4 41.491C132.377 41.5142 132.349 41.5258 132.317 41.5258H131.941C131.913 41.5258 131.888 41.5142 131.865 41.491C131.842 41.4679 131.83 41.4424 131.83 41.4146V36.4732Z" fill="white"/>
<path d="M126.513 36.3551C126.601 36.3551 126.666 36.4014 126.708 36.4941L128.313 39.9343L129.974 36.4941C130.016 36.4014 130.086 36.3551 130.183 36.3551H130.517C130.544 36.3551 130.57 36.3666 130.593 36.3898C130.616 36.413 130.628 36.4408 130.628 36.4732V41.4146C130.628 41.4424 130.616 41.4679 130.593 41.491C130.57 41.5142 130.544 41.5258 130.517 41.5258H130.141C130.109 41.5258 130.081 41.5142 130.058 41.491C130.035 41.4679 130.023 41.4424 130.023 41.4146V37.6894L128.591 40.6223C128.568 40.6733 128.524 40.6987 128.459 40.6987H128.223C128.154 40.6987 128.107 40.6733 128.084 40.6223L126.659 37.6894V41.4146C126.659 41.4424 126.648 41.4679 126.625 41.491C126.601 41.5142 126.574 41.5258 126.541 41.5258H126.166C126.138 41.5258 126.113 41.5142 126.089 41.491C126.066 41.4679 126.055 41.4424 126.055 41.4146V36.4732C126.055 36.4408 126.066 36.413 126.089 36.3898C126.113 36.3666 126.138 36.3551 126.166 36.3551H126.513Z" fill="white"/>
<path d="M122.867 41.609C122.561 41.609 122.269 41.5511 121.991 41.4352C121.713 41.3194 121.47 41.148 121.261 40.921C121.053 40.6939 120.886 40.4159 120.761 40.087C120.64 39.7534 120.58 39.3711 120.58 38.9402C120.58 38.5093 120.643 38.1294 120.768 37.8004C120.893 37.4715 121.06 37.1958 121.268 36.9734C121.477 36.751 121.718 36.5842 121.991 36.473C122.269 36.3572 122.561 36.2993 122.867 36.2993C123.168 36.2993 123.455 36.3549 123.728 36.4661C124.006 36.5773 124.25 36.7441 124.458 36.9665C124.671 37.1889 124.84 37.4645 124.965 37.7935C125.091 38.1225 125.153 38.5047 125.153 38.9402C125.153 39.3758 125.091 39.7603 124.965 40.0939C124.84 40.4275 124.674 40.7078 124.465 40.9349C124.257 41.1572 124.013 41.3264 123.735 41.4422C123.462 41.5534 123.172 41.609 122.867 41.609ZM122.867 41.1295C123.135 41.1295 123.374 41.0692 123.582 40.9488C123.791 40.8237 123.967 40.6615 124.111 40.4623C124.254 40.2584 124.361 40.0267 124.43 39.7673C124.504 39.5032 124.542 39.2298 124.542 38.9472C124.542 38.6692 124.504 38.4005 124.43 38.141C124.356 37.8815 124.247 37.6522 124.104 37.453C123.965 37.2491 123.791 37.0869 123.582 36.9665C123.374 36.8414 123.135 36.7788 122.867 36.7788C122.598 36.7788 122.359 36.8414 122.151 36.9665C121.942 37.0869 121.766 37.2491 121.623 37.453C121.484 37.6522 121.377 37.8815 121.303 38.141C121.229 38.4005 121.192 38.6692 121.192 38.9472C121.192 39.2298 121.226 39.5032 121.296 39.7673C121.37 40.0267 121.479 40.2584 121.623 40.4623C121.766 40.6615 121.94 40.8237 122.144 40.9488C122.352 41.0692 122.593 41.1295 122.867 41.1295Z" fill="white"/>
<path d="M119.14 36.4732C119.14 36.4408 119.149 36.413 119.168 36.3898C119.191 36.3666 119.219 36.3551 119.251 36.3551H119.626C119.654 36.3551 119.68 36.3666 119.703 36.3898C119.726 36.413 119.738 36.4408 119.738 36.4732V41.4146C119.738 41.4424 119.726 41.4679 119.703 41.491C119.68 41.5142 119.654 41.5258 119.626 41.5258H119.466C119.402 41.5258 119.351 41.5119 119.314 41.4841C119.277 41.4563 119.239 41.4146 119.202 41.359L116.457 37.3628V41.4146C116.457 41.4424 116.446 41.4679 116.422 41.491C116.399 41.5142 116.371 41.5258 116.339 41.5258H115.964C115.936 41.5258 115.91 41.5142 115.887 41.491C115.864 41.4679 115.853 41.4424 115.853 41.4146V36.4732C115.853 36.4408 115.864 36.413 115.887 36.3898C115.91 36.3666 115.936 36.3551 115.964 36.3551H116.263C116.327 36.3551 116.378 36.3713 116.415 36.4037C116.453 36.4315 116.49 36.4732 116.527 36.5288L119.14 40.3165V36.4732Z" fill="white"/>
<path d="M112.693 41.609C112.387 41.609 112.095 41.5511 111.817 41.4352C111.539 41.3194 111.296 41.148 111.087 40.921C110.879 40.6939 110.712 40.4159 110.587 40.087C110.466 39.7534 110.406 39.3711 110.406 38.9402C110.406 38.5093 110.469 38.1294 110.594 37.8004C110.719 37.4715 110.886 37.1958 111.094 36.9734C111.303 36.751 111.544 36.5842 111.817 36.473C112.095 36.3572 112.387 36.2993 112.693 36.2993C112.994 36.2993 113.281 36.3549 113.555 36.4661C113.833 36.5773 114.076 36.7441 114.284 36.9665C114.497 37.1889 114.667 37.4645 114.792 37.7935C114.917 38.1225 114.979 38.5047 114.979 38.9402C114.979 39.3758 114.917 39.7603 114.792 40.0939C114.667 40.4275 114.5 40.7078 114.291 40.9349C114.083 41.1572 113.84 41.3264 113.562 41.4422C113.288 41.5534 112.999 41.609 112.693 41.609ZM112.693 41.1295C112.961 41.1295 113.2 41.0692 113.409 40.9488C113.617 40.8237 113.793 40.6615 113.937 40.4623C114.08 40.2584 114.187 40.0267 114.256 39.7673C114.331 39.5032 114.368 39.2298 114.368 38.9472C114.368 38.6692 114.331 38.4005 114.256 38.141C114.182 37.8815 114.073 37.6522 113.93 37.453C113.791 37.2491 113.617 37.0869 113.409 36.9665C113.2 36.8414 112.961 36.7788 112.693 36.7788C112.424 36.7788 112.185 36.8414 111.977 36.9665C111.768 37.0869 111.592 37.2491 111.449 37.453C111.31 37.6522 111.203 37.8815 111.129 38.141C111.055 38.4005 111.018 38.6692 111.018 38.9472C111.018 39.2298 111.053 39.5032 111.122 39.7673C111.196 40.0267 111.305 40.2584 111.449 40.4623C111.592 40.6615 111.766 40.8237 111.97 40.9488C112.178 41.0692 112.419 41.1295 112.693 41.1295Z" fill="white"/>
<path d="M109.841 41.4007C109.85 41.4285 109.855 41.4493 109.855 41.4632C109.855 41.5049 109.832 41.5258 109.785 41.5258H109.348C109.264 41.5258 109.213 41.4887 109.195 41.4146L108.569 39.83C108.509 39.6817 108.416 39.5682 108.291 39.4895C108.171 39.4061 107.978 39.3644 107.714 39.3644H106.623V41.4146C106.623 41.4424 106.612 41.4679 106.588 41.491C106.565 41.5142 106.537 41.5258 106.505 41.5258H106.13C106.102 41.5258 106.076 41.5142 106.053 41.491C106.03 41.4679 106.019 41.4424 106.019 41.4146V36.4732C106.019 36.4408 106.03 36.413 106.053 36.3898C106.076 36.3666 106.102 36.3551 106.13 36.3551H107.687C107.965 36.3551 108.217 36.3829 108.444 36.4385C108.676 36.4941 108.873 36.5821 109.035 36.7026C109.202 36.823 109.331 36.9782 109.424 37.1682C109.517 37.3535 109.563 37.5782 109.563 37.8423C109.563 38.125 109.494 38.3821 109.355 38.6138C109.216 38.8408 109.005 39.0285 108.722 39.1767C108.884 39.2462 109.032 39.4385 109.167 39.7536L109.841 41.4007ZM108.951 37.8423C108.951 37.4948 108.845 37.24 108.632 37.0778C108.419 36.911 108.124 36.8277 107.749 36.8277H106.623V38.8918H107.763C108.138 38.8918 108.43 38.8084 108.639 38.6416C108.847 38.4701 108.951 38.2037 108.951 37.8423Z" fill="white"/>
<path d="M105.051 36.3687C105.084 36.3687 105.112 36.3803 105.135 36.4035C105.158 36.4267 105.17 36.4545 105.17 36.4869V36.7579C105.17 36.7904 105.158 36.8182 105.135 36.8413C105.112 36.8599 105.084 36.8691 105.051 36.8691H103.516V41.4144C103.516 41.4422 103.504 41.4677 103.481 41.4908C103.458 41.514 103.43 41.5256 103.397 41.5256H103.029C102.997 41.5256 102.969 41.514 102.946 41.4908C102.922 41.4677 102.911 41.4422 102.911 41.4144V36.8691H101.375C101.343 36.8691 101.315 36.8599 101.292 36.8413C101.268 36.8182 101.257 36.7904 101.257 36.7579V36.4869C101.257 36.4545 101.268 36.4267 101.292 36.4035C101.315 36.3803 101.343 36.3687 101.375 36.3687H105.051Z" fill="white"/>
<path d="M98.814 41.1294C99.1893 41.1294 99.4789 41.0413 99.6828 40.8653C99.8913 40.6846 99.9955 40.4483 99.9955 40.1564C99.9955 40.0174 99.9654 39.8946 99.9052 39.788C99.8449 39.6768 99.7546 39.5772 99.6341 39.4892C99.5183 39.3965 99.3747 39.3131 99.2032 39.239C99.0364 39.1602 98.8418 39.0838 98.6194 39.0096C98.4248 38.9448 98.2349 38.873 98.0496 38.7942C97.8689 38.7108 97.709 38.6135 97.57 38.5023C97.431 38.3911 97.3198 38.2637 97.2364 38.12C97.153 37.9764 97.1113 37.8096 97.1113 37.6197C97.1113 37.4204 97.1507 37.2397 97.2295 37.0776C97.3129 36.9154 97.4241 36.7787 97.5631 36.6675C97.7067 36.5517 97.8781 36.4637 98.0773 36.4034C98.2766 36.3386 98.4943 36.3061 98.7306 36.3061C98.9252 36.3061 99.1198 36.3339 99.3144 36.3895C99.509 36.4405 99.6851 36.5193 99.8426 36.6258C100 36.7277 100.128 36.8575 100.225 37.015C100.327 37.1725 100.378 37.3532 100.378 37.5571C100.378 37.5803 100.373 37.5988 100.364 37.6127C100.355 37.622 100.331 37.6266 100.294 37.6266H99.8982C99.8612 37.6266 99.8357 37.622 99.8218 37.6127C99.8125 37.5988 99.8032 37.5733 99.794 37.5363C99.7384 37.2768 99.6086 37.0868 99.4048 36.9664C99.2056 36.8413 98.9808 36.7787 98.7306 36.7787C98.4387 36.7787 98.2001 36.8482 98.0148 36.9872C97.8295 37.1216 97.7368 37.3069 97.7368 37.5432C97.7368 37.6822 97.7692 37.8027 97.8341 37.9046C97.9036 38.0065 97.9963 38.0969 98.1121 38.1756C98.2326 38.2544 98.3762 38.3262 98.543 38.3911C98.7098 38.456 98.8951 38.5231 99.099 38.5926C99.3214 38.6714 99.5252 38.7548 99.7106 38.8428C99.8959 38.9309 100.056 39.0328 100.19 39.1486C100.324 39.2645 100.429 39.3988 100.503 39.5517C100.577 39.7046 100.614 39.8807 100.614 40.0799C100.614 40.3208 100.57 40.5363 100.482 40.7263C100.394 40.9116 100.271 41.0691 100.114 41.1989C99.9608 41.3286 99.7731 41.4282 99.5507 41.4977C99.333 41.5672 99.092 41.6019 98.8279 41.6019C98.587 41.6019 98.3623 41.5718 98.1538 41.5116C97.9453 41.4467 97.7623 41.3564 97.6048 41.2406C97.4472 41.1201 97.3152 40.9718 97.2086 40.7958C97.1067 40.6197 97.0395 40.4181 97.0071 40.1911C96.9978 40.1633 96.9932 40.1448 96.9932 40.1355C96.9932 40.0938 97.0233 40.073 97.0835 40.073H97.4866C97.5237 40.073 97.5468 40.0799 97.5561 40.0938C97.57 40.1031 97.5816 40.1263 97.5909 40.1633C97.6696 40.4876 97.8156 40.7309 98.0287 40.8931C98.2465 41.0506 98.5082 41.1294 98.814 41.1294Z" fill="white"/>
<path d="M92.188 41.5254C92.1278 41.5254 92.0977 41.4999 92.0977 41.4489C92.0977 41.435 92.1 41.4235 92.1046 41.4142L94.0019 36.4242C94.0205 36.35 94.0691 36.313 94.1479 36.313H94.4537C94.4815 36.313 94.5093 36.3246 94.5371 36.3477C94.5649 36.3663 94.5834 36.3917 94.5927 36.4242L96.49 41.4142C96.49 41.4188 96.49 41.4235 96.49 41.4281C96.4946 41.4327 96.4969 41.4374 96.4969 41.442C96.4969 41.4652 96.4854 41.486 96.4622 41.5045C96.4437 41.5184 96.4228 41.5254 96.3996 41.5254H95.9896C95.9572 41.5254 95.9271 41.5138 95.8993 41.4906C95.8715 41.4675 95.8529 41.442 95.8437 41.4142L95.385 40.1702H93.5363C93.4344 40.1702 93.3486 40.1933 93.2791 40.2397C93.2096 40.286 93.154 40.3624 93.1123 40.469L92.744 41.4142C92.7347 41.442 92.7162 41.4675 92.6884 41.4906C92.6606 41.5138 92.6305 41.5254 92.598 41.5254H92.188ZM93.3347 39.8157C93.3579 39.7787 93.395 39.7509 93.4459 39.7323C93.4969 39.7092 93.5687 39.6976 93.6614 39.6976H95.2251L94.3008 37.1956L93.3347 39.8157Z" fill="white"/>
<path d="M201.298 28.6548C201.317 28.6223 201.337 28.5945 201.361 28.5714C201.384 28.5482 201.416 28.5366 201.458 28.5366H201.91C201.97 28.5366 202 28.5644 202 28.62C202 28.6339 201.998 28.6455 201.993 28.6548L200.262 31.7544V33.5961C200.262 33.6239 200.251 33.6494 200.228 33.6726C200.209 33.6958 200.184 33.7073 200.151 33.7073H199.741C199.709 33.7073 199.681 33.6958 199.658 33.6726C199.635 33.6494 199.623 33.6239 199.623 33.5961V31.7197L197.906 28.6548C197.897 28.6362 197.893 28.6247 197.893 28.62C197.893 28.5969 197.902 28.5783 197.92 28.5644C197.944 28.5459 197.967 28.5366 197.99 28.5366H198.442C198.483 28.5366 198.516 28.5482 198.539 28.5714C198.562 28.5945 198.583 28.6223 198.601 28.6548L199.95 31.1637L201.298 28.6548Z" fill="white"/>
<path d="M197.28 28.5503C197.312 28.5503 197.34 28.5619 197.363 28.5851C197.387 28.6082 197.398 28.636 197.398 28.6685V28.9395C197.398 28.972 197.387 28.9998 197.363 29.0229C197.34 29.0414 197.312 29.0507 197.28 29.0507H195.744V33.596C195.744 33.6238 195.732 33.6492 195.709 33.6724C195.686 33.6956 195.658 33.7071 195.626 33.7071H195.258C195.225 33.7071 195.197 33.6956 195.174 33.6724C195.151 33.6492 195.139 33.6238 195.139 33.596V29.0507H193.604C193.571 29.0507 193.543 29.0414 193.52 29.0229C193.497 28.9998 193.485 28.972 193.485 28.9395V28.6685C193.485 28.636 193.497 28.6082 193.52 28.5851C193.543 28.5619 193.571 28.5503 193.604 28.5503H197.28Z" fill="white"/>
<path d="M191.977 28.6548C191.977 28.6223 191.988 28.5945 192.011 28.5714C192.034 28.5482 192.06 28.5366 192.088 28.5366H192.463C192.495 28.5366 192.523 28.5482 192.546 28.5714C192.57 28.5945 192.581 28.6223 192.581 28.6548V33.5961C192.581 33.6239 192.57 33.6494 192.546 33.6726C192.523 33.6958 192.495 33.7073 192.463 33.7073H192.088C192.06 33.7073 192.034 33.6958 192.011 33.6726C191.988 33.6494 191.977 33.6239 191.977 33.5961V28.6548Z" fill="white"/>
<path d="M189.347 33.3109C189.723 33.3109 190.012 33.2229 190.216 33.0468C190.424 32.8661 190.529 32.6298 190.529 32.3379C190.529 32.1989 190.499 32.0761 190.438 31.9696C190.378 31.8584 190.288 31.7588 190.167 31.6707C190.052 31.5781 189.908 31.4947 189.736 31.4205C189.57 31.3418 189.375 31.2653 189.153 31.1912C188.958 31.1263 188.768 31.0545 188.583 30.9757C188.402 30.8923 188.242 30.795 188.103 30.6838C187.964 30.5726 187.853 30.4452 187.77 30.3016C187.686 30.158 187.645 29.9912 187.645 29.8012C187.645 29.602 187.684 29.4213 187.763 29.2591C187.846 29.0969 187.957 28.9603 188.096 28.8491C188.24 28.7332 188.411 28.6452 188.611 28.585C188.81 28.5201 189.028 28.4877 189.264 28.4877C189.458 28.4877 189.653 28.5155 189.848 28.5711C190.042 28.622 190.218 28.7008 190.376 28.8074C190.533 28.9093 190.661 29.039 190.758 29.1966C190.86 29.3541 190.911 29.5348 190.911 29.7387C190.911 29.7618 190.906 29.7804 190.897 29.7943C190.888 29.8035 190.865 29.8082 190.828 29.8082H190.431C190.394 29.8082 190.369 29.8035 190.355 29.7943C190.346 29.7804 190.336 29.7549 190.327 29.7178C190.272 29.4583 190.142 29.2684 189.938 29.1479C189.739 29.0228 189.514 28.9603 189.264 28.9603C188.972 28.9603 188.733 29.0298 188.548 29.1688C188.363 29.3031 188.27 29.4885 188.27 29.7248C188.27 29.8638 188.302 29.9842 188.367 30.0861C188.437 30.1881 188.529 30.2784 188.645 30.3572C188.766 30.436 188.909 30.5078 189.076 30.5726C189.243 30.6375 189.428 30.7047 189.632 30.7742C189.855 30.853 190.058 30.9364 190.244 31.0244C190.429 31.1124 190.589 31.2143 190.723 31.3302C190.858 31.446 190.962 31.5804 191.036 31.7333C191.11 31.8862 191.147 32.0622 191.147 32.2615C191.147 32.5024 191.103 32.7178 191.015 32.9078C190.927 33.0931 190.804 33.2507 190.647 33.3804C190.494 33.5101 190.306 33.6097 190.084 33.6792C189.866 33.7487 189.625 33.7835 189.361 33.7835C189.12 33.7835 188.895 33.7534 188.687 33.6931C188.479 33.6283 188.295 33.5379 188.138 33.4221C187.98 33.3016 187.848 33.1534 187.742 32.9773C187.64 32.8012 187.573 32.5997 187.54 32.3727C187.531 32.3449 187.526 32.3263 187.526 32.3171C187.526 32.2754 187.556 32.2545 187.617 32.2545H188.02C188.057 32.2545 188.08 32.2615 188.089 32.2754C188.103 32.2846 188.115 32.3078 188.124 32.3449C188.203 32.6692 188.349 32.9124 188.562 33.0746C188.78 33.2321 189.041 33.3109 189.347 33.3109Z" fill="white"/>
<path d="M187.009 33.5822C187.018 33.61 187.023 33.6309 187.023 33.6448C187.023 33.6865 187 33.7073 186.953 33.7073H186.516C186.432 33.7073 186.381 33.6703 186.363 33.5961L185.737 32.0116C185.677 31.8633 185.584 31.7498 185.459 31.671C185.339 31.5876 185.146 31.5459 184.882 31.5459H183.791V33.5961C183.791 33.6239 183.78 33.6494 183.756 33.6726C183.733 33.6958 183.705 33.7073 183.673 33.7073H183.298C183.27 33.7073 183.244 33.6958 183.221 33.6726C183.198 33.6494 183.187 33.6239 183.187 33.5961V28.6548C183.187 28.6223 183.198 28.5945 183.221 28.5714C183.244 28.5482 183.27 28.5366 183.298 28.5366H184.854C185.132 28.5366 185.385 28.5644 185.612 28.62C185.844 28.6756 186.041 28.7637 186.203 28.8841C186.37 29.0046 186.499 29.1598 186.592 29.3498C186.685 29.5351 186.731 29.7598 186.731 30.0239C186.731 30.3065 186.661 30.5637 186.522 30.7953C186.383 31.0224 186.173 31.21 185.89 31.3583C186.052 31.4278 186.2 31.6201 186.335 31.9351L187.009 33.5822ZM186.119 30.0239C186.119 29.6764 186.013 29.4216 185.8 29.2594C185.587 29.0926 185.292 29.0092 184.917 29.0092H183.791V31.0733H184.931C185.306 31.0733 185.598 30.9899 185.807 30.8231C186.015 30.6517 186.119 30.3853 186.119 30.0239Z" fill="white"/>
<path d="M179.002 33.7073C178.974 33.7073 178.949 33.6958 178.925 33.6726C178.902 33.6494 178.891 33.6239 178.891 33.5961V28.6548C178.891 28.6223 178.902 28.5945 178.925 28.5714C178.949 28.5482 178.974 28.5366 179.002 28.5366H181.969C181.997 28.5366 182.023 28.5482 182.046 28.5714C182.069 28.5945 182.081 28.6223 182.081 28.6548V28.9119C182.081 28.9397 182.069 28.9652 182.046 28.9884C182.023 29.0115 181.997 29.0231 181.969 29.0231H179.495V30.7536H181.761C181.789 30.7536 181.814 30.7652 181.837 30.7884C181.861 30.8116 181.872 30.8394 181.872 30.8718V31.122C181.872 31.1498 181.861 31.1753 181.837 31.1984C181.814 31.2216 181.789 31.2332 181.761 31.2332H179.495V33.2209H182.143C182.171 33.2209 182.196 33.2324 182.22 33.2556C182.243 33.2788 182.254 33.3066 182.254 33.339V33.5961C182.254 33.6239 182.243 33.6494 182.22 33.6726C182.196 33.6958 182.171 33.7073 182.143 33.7073H179.002Z" fill="white"/>
<path d="M175.836 33.756C175.804 33.756 175.774 33.7444 175.746 33.7212C175.718 33.6981 175.7 33.6703 175.69 33.6378L173.793 28.6548C173.788 28.6455 173.786 28.6339 173.786 28.62C173.786 28.5644 173.816 28.5366 173.876 28.5366H174.287C174.328 28.5366 174.361 28.5482 174.384 28.5714C174.407 28.5945 174.423 28.6223 174.432 28.6548L175.996 32.9429L177.553 28.6548C177.567 28.6223 177.583 28.5945 177.602 28.5714C177.625 28.5482 177.657 28.5366 177.699 28.5366H178.109C178.132 28.5366 178.153 28.5459 178.172 28.5644C178.195 28.583 178.206 28.6038 178.206 28.627C178.206 28.6316 178.204 28.6362 178.199 28.6409C178.199 28.6455 178.199 28.6501 178.199 28.6548L176.295 33.6378C176.286 33.6703 176.267 33.6981 176.239 33.7212C176.212 33.7444 176.184 33.756 176.156 33.756H175.836Z" fill="white"/>
<path d="M172.437 28.6548C172.437 28.6223 172.448 28.5945 172.471 28.5714C172.494 28.5482 172.52 28.5366 172.548 28.5366H172.923C172.955 28.5366 172.983 28.5482 173.006 28.5714C173.03 28.5945 173.041 28.6223 173.041 28.6548V33.5961C173.041 33.6239 173.03 33.6494 173.006 33.6726C172.983 33.6958 172.955 33.7073 172.923 33.7073H172.548C172.52 33.7073 172.494 33.6958 172.471 33.6726C172.448 33.6494 172.437 33.6239 172.437 33.5961V28.6548Z" fill="white"/>
<path d="M170.83 28.6548C170.83 28.6223 170.84 28.5945 170.858 28.5714C170.881 28.5482 170.909 28.5366 170.941 28.5366H171.317C171.345 28.5366 171.37 28.5482 171.393 28.5714C171.416 28.5945 171.428 28.6223 171.428 28.6548V33.5961C171.428 33.6239 171.416 33.6494 171.393 33.6726C171.37 33.6958 171.345 33.7073 171.317 33.7073H171.157C171.092 33.7073 171.041 33.6934 171.004 33.6656C170.967 33.6378 170.93 33.5961 170.893 33.5405L168.148 29.5444V33.5961C168.148 33.6239 168.136 33.6494 168.113 33.6726C168.09 33.6958 168.062 33.7073 168.029 33.7073H167.654C167.626 33.7073 167.601 33.6958 167.578 33.6726C167.555 33.6494 167.543 33.6239 167.543 33.5961V28.6548C167.543 28.6223 167.555 28.5945 167.578 28.5714C167.601 28.5482 167.626 28.5366 167.654 28.5366H167.953C168.018 28.5366 168.069 28.5528 168.106 28.5853C168.143 28.6131 168.18 28.6548 168.217 28.7104L170.83 32.4981V28.6548Z" fill="white"/>
<path d="M163.367 31.949C163.367 32.3706 163.472 32.7019 163.68 32.9429C163.889 33.1792 164.215 33.2973 164.66 33.2973C165.105 33.2973 165.431 33.1792 165.64 32.9429C165.853 32.7019 165.96 32.3706 165.96 31.949V28.6548C165.96 28.6223 165.969 28.5945 165.987 28.5714C166.011 28.5482 166.038 28.5366 166.071 28.5366H166.439C166.472 28.5366 166.499 28.5482 166.523 28.5714C166.546 28.5945 166.557 28.6223 166.557 28.6548V31.956C166.557 32.2571 166.511 32.5235 166.418 32.7552C166.33 32.9822 166.203 33.1722 166.036 33.3251C165.869 33.478 165.668 33.5938 165.431 33.6726C165.2 33.7467 164.943 33.7838 164.66 33.7838C164.072 33.7838 163.608 33.6286 163.27 33.3182C162.932 33.0031 162.763 32.549 162.763 31.956V28.6548C162.763 28.6223 162.774 28.5945 162.797 28.5714C162.821 28.5482 162.846 28.5366 162.874 28.5366H163.249C163.282 28.5366 163.309 28.5482 163.333 28.5714C163.356 28.5945 163.367 28.6223 163.367 28.6548V31.949Z" fill="white"/>
<path d="M157.662 33.7073C157.634 33.7073 157.609 33.6958 157.586 33.6726C157.562 33.6494 157.551 33.6239 157.551 33.5961V28.6548C157.551 28.6223 157.562 28.5945 157.586 28.5714C157.609 28.5482 157.634 28.5366 157.662 28.5366H158.037C158.07 28.5366 158.098 28.5482 158.121 28.5714C158.144 28.5945 158.155 28.6223 158.155 28.6548V33.207H160.637C160.669 33.207 160.694 33.2185 160.713 33.2417C160.736 33.2649 160.748 33.2927 160.748 33.3251V33.5961C160.748 33.6239 160.736 33.6494 160.713 33.6726C160.694 33.6958 160.669 33.7073 160.637 33.7073H157.662Z" fill="white"/>
<path d="M152.62 33.707C152.559 33.707 152.529 33.6815 152.529 33.6305C152.529 33.6166 152.532 33.605 152.536 33.5958L154.434 28.6057C154.452 28.5316 154.501 28.4945 154.58 28.4945H154.885C154.913 28.4945 154.941 28.5061 154.969 28.5293C154.997 28.5478 155.015 28.5733 155.024 28.6057L156.922 33.5958C156.922 33.6004 156.922 33.605 156.922 33.6097C156.926 33.6143 156.929 33.6189 156.929 33.6236C156.929 33.6467 156.917 33.6676 156.894 33.6861C156.875 33.7 156.854 33.707 156.831 33.707H156.421C156.389 33.707 156.359 33.6954 156.331 33.6722C156.303 33.649 156.285 33.6236 156.275 33.5958L155.817 32.3517H153.968C153.866 32.3517 153.78 32.3749 153.711 32.4212C153.641 32.4676 153.586 32.544 153.544 32.6506L153.176 33.5958C153.166 33.6236 153.148 33.649 153.12 33.6722C153.092 33.6954 153.062 33.707 153.03 33.707H152.62ZM153.766 31.9973C153.79 31.9602 153.827 31.9324 153.878 31.9139C153.929 31.8907 154 31.8791 154.093 31.8791H155.657L154.732 29.3772L153.766 31.9973Z" fill="white"/>
<path d="M151.263 28.6548C151.263 28.6223 151.272 28.5945 151.291 28.5714C151.314 28.5482 151.342 28.5366 151.374 28.5366H151.749C151.777 28.5366 151.803 28.5482 151.826 28.5714C151.849 28.5945 151.861 28.6223 151.861 28.6548V33.5961C151.861 33.6239 151.849 33.6494 151.826 33.6726C151.803 33.6958 151.777 33.7073 151.749 33.7073H151.59C151.525 33.7073 151.474 33.6934 151.437 33.6656C151.4 33.6378 151.363 33.5961 151.325 33.5405L148.58 29.5444V33.5961C148.58 33.6239 148.569 33.6494 148.545 33.6726C148.522 33.6958 148.495 33.7073 148.462 33.7073H148.087C148.059 33.7073 148.034 33.6958 148.01 33.6726C147.987 33.6494 147.976 33.6239 147.976 33.5961V28.6548C147.976 28.6223 147.987 28.5945 148.01 28.5714C148.034 28.5482 148.059 28.5366 148.087 28.5366H148.386C148.45 28.5366 148.501 28.5528 148.539 28.5853C148.576 28.6131 148.613 28.6548 148.65 28.7104L151.263 32.4981V28.6548Z" fill="white"/>
<path d="M144.816 33.7906C144.51 33.7906 144.218 33.7326 143.94 33.6168C143.662 33.501 143.419 33.3295 143.21 33.1025C143.002 32.8755 142.835 32.5975 142.71 32.2685C142.59 31.9349 142.529 31.5527 142.529 31.1218C142.529 30.6909 142.592 30.311 142.717 29.982C142.842 29.6531 143.009 29.3774 143.217 29.155C143.426 28.9326 143.667 28.7658 143.94 28.6546C144.218 28.5388 144.51 28.4808 144.816 28.4808C145.117 28.4808 145.404 28.5364 145.678 28.6476C145.956 28.7588 146.199 28.9256 146.407 29.148C146.62 29.3704 146.79 29.6461 146.915 29.9751C147.04 30.304 147.102 30.6863 147.102 31.1218C147.102 31.5573 147.04 31.9419 146.915 32.2755C146.79 32.6091 146.623 32.8894 146.414 33.1164C146.206 33.3388 145.963 33.5079 145.685 33.6238C145.411 33.735 145.122 33.7906 144.816 33.7906ZM144.816 33.311C145.085 33.311 145.323 33.2508 145.532 33.1303C145.74 33.0052 145.916 32.8431 146.06 32.6438C146.203 32.44 146.31 32.2083 146.38 31.9488C146.454 31.6847 146.491 31.4114 146.491 31.1287C146.491 30.8508 146.454 30.582 146.38 30.3226C146.305 30.0631 146.197 29.8337 146.053 29.6345C145.914 29.4307 145.74 29.2685 145.532 29.148C145.323 29.0229 145.085 28.9604 144.816 28.9604C144.547 28.9604 144.308 29.0229 144.1 29.148C143.891 29.2685 143.715 29.4307 143.572 29.6345C143.433 29.8337 143.326 30.0631 143.252 30.3226C143.178 30.582 143.141 30.8508 143.141 31.1287C143.141 31.4114 143.176 31.6847 143.245 31.9488C143.319 32.2083 143.428 32.44 143.572 32.6438C143.715 32.8431 143.889 33.0052 144.093 33.1303C144.302 33.2508 144.542 33.311 144.816 33.311Z" fill="white"/>
<path d="M140.999 28.6548C140.999 28.6223 141.011 28.5945 141.034 28.5714C141.057 28.5482 141.082 28.5366 141.11 28.5366H141.486C141.518 28.5366 141.546 28.5482 141.569 28.5714C141.592 28.5945 141.604 28.6223 141.604 28.6548V33.5961C141.604 33.6239 141.592 33.6494 141.569 33.6726C141.546 33.6958 141.518 33.7073 141.486 33.7073H141.11C141.082 33.7073 141.057 33.6958 141.034 33.6726C141.011 33.6494 140.999 33.6239 140.999 33.5961V28.6548Z" fill="white"/>
<path d="M140.018 28.5503C140.051 28.5503 140.079 28.5619 140.102 28.5851C140.125 28.6082 140.136 28.636 140.136 28.6685V28.9395C140.136 28.972 140.125 28.9998 140.102 29.0229C140.079 29.0414 140.051 29.0507 140.018 29.0507H138.482V33.596C138.482 33.6238 138.471 33.6492 138.448 33.6724C138.424 33.6956 138.397 33.7071 138.364 33.7071H137.996C137.963 33.7071 137.936 33.6956 137.912 33.6724C137.889 33.6492 137.878 33.6238 137.878 33.596V29.0507H136.342C136.309 29.0507 136.282 29.0414 136.258 29.0229C136.235 28.9998 136.224 28.972 136.224 28.9395V28.6685C136.224 28.636 136.235 28.6082 136.258 28.5851C136.282 28.5619 136.309 28.5503 136.342 28.5503H140.018Z" fill="white"/>
<path d="M132.157 33.707C132.097 33.707 132.066 33.6815 132.066 33.6305C132.066 33.6166 132.069 33.605 132.073 33.5958L133.971 28.6057C133.989 28.5316 134.038 28.4945 134.117 28.4945H134.422C134.45 28.4945 134.478 28.5061 134.506 28.5293C134.534 28.5478 134.552 28.5733 134.561 28.6057L136.459 33.5958C136.459 33.6004 136.459 33.605 136.459 33.6097C136.463 33.6143 136.466 33.6189 136.466 33.6236C136.466 33.6467 136.454 33.6676 136.431 33.6861C136.412 33.7 136.392 33.707 136.368 33.707H135.958C135.926 33.707 135.896 33.6954 135.868 33.6722C135.84 33.649 135.822 33.6236 135.812 33.5958L135.354 32.3517H133.505C133.403 32.3517 133.317 32.3749 133.248 32.4212C133.178 32.4676 133.123 32.544 133.081 32.6506L132.713 33.5958C132.703 33.6236 132.685 33.649 132.657 33.6722C132.629 33.6954 132.599 33.707 132.567 33.707H132.157ZM133.303 31.9973C133.327 31.9602 133.364 31.9324 133.415 31.9139C133.466 31.8907 133.537 31.8791 133.63 31.8791H135.194L134.27 29.3772L133.303 31.9973Z" fill="white"/>
<path d="M130.8 28.6548C130.8 28.6223 130.809 28.5945 130.828 28.5714C130.851 28.5482 130.879 28.5366 130.911 28.5366H131.286C131.314 28.5366 131.34 28.5482 131.363 28.5714C131.386 28.5945 131.398 28.6223 131.398 28.6548V33.5961C131.398 33.6239 131.386 33.6494 131.363 33.6726C131.34 33.6958 131.314 33.7073 131.286 33.7073H131.127C131.062 33.7073 131.011 33.6934 130.974 33.6656C130.937 33.6378 130.9 33.5961 130.863 33.5405L128.117 29.5444V33.5961C128.117 33.6239 128.106 33.6494 128.083 33.6726C128.059 33.6958 128.032 33.7073 127.999 33.7073H127.624C127.596 33.7073 127.571 33.6958 127.547 33.6726C127.524 33.6494 127.513 33.6239 127.513 33.5961V28.6548C127.513 28.6223 127.524 28.5945 127.547 28.5714C127.571 28.5482 127.596 28.5366 127.624 28.5366H127.923C127.988 28.5366 128.039 28.5528 128.076 28.5853C128.113 28.6131 128.15 28.6548 128.187 28.7104L130.8 32.4981V28.6548Z" fill="white"/>
<path d="M121.538 28.6548C121.538 28.6223 121.55 28.5945 121.573 28.5714C121.596 28.5482 121.621 28.5366 121.649 28.5366H122.025C122.057 28.5366 122.085 28.5482 122.108 28.5714C122.131 28.5945 122.143 28.6223 122.143 28.6548V31.6015L124.478 28.6339C124.496 28.6108 124.52 28.5899 124.547 28.5714C124.58 28.5482 124.612 28.5366 124.645 28.5366H125.138C125.157 28.5366 125.171 28.5459 125.18 28.5644C125.189 28.5783 125.194 28.5945 125.194 28.6131C125.194 28.6316 125.189 28.6455 125.18 28.6548L123.401 30.844C123.447 30.8116 123.5 30.7953 123.561 30.7953C123.644 30.7953 123.73 30.8208 123.818 30.8718C123.906 30.9228 123.978 30.9946 124.033 31.0872L125.52 33.5961C125.53 33.6147 125.534 33.6309 125.534 33.6448C125.534 33.6865 125.516 33.7073 125.479 33.7073H124.985C124.925 33.7073 124.879 33.6726 124.846 33.6031L123.609 31.4486C123.563 31.3699 123.507 31.3119 123.442 31.2749C123.382 31.2332 123.32 31.2123 123.255 31.2123C123.167 31.2123 123.09 31.2517 123.025 31.3305L122.143 32.3869V33.5961C122.143 33.6239 122.131 33.6494 122.108 33.6726C122.085 33.6958 122.057 33.7073 122.025 33.7073H121.649C121.621 33.7073 121.596 33.6958 121.573 33.6726C121.55 33.6494 121.538 33.6239 121.538 33.5961V28.6548Z" fill="white"/>
<path d="M117.44 31.949C117.44 32.3706 117.544 32.7019 117.752 32.9429C117.961 33.1792 118.287 33.2973 118.732 33.2973C119.177 33.2973 119.504 33.1792 119.712 32.9429C119.925 32.7019 120.032 32.3706 120.032 31.949V28.6548C120.032 28.6223 120.041 28.5945 120.06 28.5714C120.083 28.5482 120.111 28.5366 120.143 28.5366H120.511C120.544 28.5366 120.572 28.5482 120.595 28.5714C120.618 28.5945 120.63 28.6223 120.63 28.6548V31.956C120.63 32.2571 120.583 32.5235 120.491 32.7552C120.403 32.9822 120.275 33.1722 120.108 33.3251C119.942 33.478 119.74 33.5938 119.504 33.6726C119.272 33.7467 119.015 33.7838 118.732 33.7838C118.144 33.7838 117.681 33.6286 117.342 33.3182C117.004 33.0031 116.835 32.549 116.835 31.956V28.6548C116.835 28.6223 116.847 28.5945 116.87 28.5714C116.893 28.5482 116.918 28.5366 116.946 28.5366H117.321C117.354 28.5366 117.382 28.5482 117.405 28.5714C117.428 28.5945 117.44 28.6223 117.44 28.6548V31.949Z" fill="white"/>
<path d="M114.185 28.5366C114.44 28.5366 114.674 28.5644 114.887 28.62C115.1 28.671 115.283 28.7521 115.436 28.8633C115.593 28.9745 115.716 29.1135 115.804 29.2803C115.892 29.4471 115.936 29.6417 115.936 29.8641C115.936 30.1142 115.883 30.339 115.776 30.5382C115.67 30.7328 115.529 30.8741 115.352 30.9621C115.589 31.0641 115.783 31.217 115.936 31.4208C116.089 31.6201 116.166 31.8795 116.166 32.1992C116.166 32.6625 116.01 33.0309 115.7 33.3043C115.39 33.573 114.896 33.7073 114.22 33.7073H112.489C112.461 33.7073 112.436 33.6958 112.413 33.6726C112.39 33.6494 112.378 33.6239 112.378 33.5961V28.6548C112.378 28.6223 112.39 28.5945 112.413 28.5714C112.436 28.5482 112.461 28.5366 112.489 28.5366H114.185ZM115.325 29.8919C115.325 29.6278 115.223 29.4169 115.019 29.2594C114.82 29.0972 114.532 29.0162 114.157 29.0162H112.983V30.7884H114.199C114.546 30.7884 114.82 30.7166 115.019 30.5729C115.223 30.4247 115.325 30.1976 115.325 29.8919ZM115.547 32.2131C115.547 31.9073 115.434 31.6733 115.207 31.5112C114.98 31.3444 114.62 31.261 114.129 31.261H112.983V33.2278H114.331C114.762 33.2278 115.072 33.1328 115.262 32.9429C115.452 32.7529 115.547 32.5096 115.547 32.2131Z" fill="white"/>
<path d="M111.45 32.9288C111.255 33.1929 111.012 33.4037 110.72 33.5612C110.433 33.7141 110.076 33.7906 109.65 33.7906C109.334 33.7906 109.043 33.7326 108.774 33.6168C108.505 33.501 108.271 33.3319 108.072 33.1095C107.873 32.8824 107.717 32.6044 107.606 32.2755C107.495 31.9419 107.439 31.5573 107.439 31.1218C107.439 30.6909 107.495 30.311 107.606 29.982C107.722 29.6531 107.877 29.3774 108.072 29.155C108.266 28.9326 108.494 28.7658 108.753 28.6546C109.012 28.5388 109.288 28.4808 109.58 28.4808C109.816 28.4808 110.036 28.511 110.24 28.5712C110.449 28.6268 110.636 28.7171 110.803 28.8422C110.97 28.9627 111.114 29.1179 111.234 29.3079C111.355 29.4932 111.445 29.7156 111.505 29.9751C111.51 29.989 111.512 30.0052 111.512 30.0237C111.512 30.07 111.48 30.0932 111.415 30.0932H110.97C110.933 30.0932 110.91 30.0886 110.901 30.0793C110.896 30.0654 110.889 30.0399 110.88 30.0029C110.838 29.85 110.778 29.711 110.699 29.5859C110.62 29.4561 110.525 29.3449 110.414 29.2523C110.307 29.1596 110.182 29.0878 110.039 29.0368C109.9 28.9859 109.747 28.9604 109.58 28.9604C109.325 28.9604 109.103 29.0252 108.913 29.155C108.723 29.2801 108.563 29.4469 108.433 29.6554C108.308 29.8592 108.213 30.0909 108.148 30.3504C108.083 30.6052 108.051 30.8647 108.051 31.1287C108.051 31.3975 108.083 31.6639 108.148 31.928C108.213 32.1874 108.311 32.4191 108.44 32.623C108.575 32.8268 108.741 32.9936 108.941 33.1234C109.144 33.2485 109.381 33.311 109.65 33.311C109.941 33.311 110.201 33.2461 110.428 33.1164C110.66 32.9821 110.831 32.8176 110.942 32.623V31.5388H109.837C109.805 31.5388 109.777 31.5272 109.754 31.504C109.731 31.4809 109.719 31.4531 109.719 31.4206V31.094C109.719 31.0616 109.731 31.0361 109.754 31.0175C109.777 30.9944 109.805 30.9828 109.837 30.9828H111.415C111.447 30.9828 111.475 30.9944 111.498 31.0175C111.521 31.0361 111.533 31.0616 111.533 31.094V32.7064C111.533 32.7805 111.505 32.8546 111.45 32.9288Z" fill="white"/>
<path d="M106.028 28.6548C106.028 28.6223 106.037 28.5945 106.055 28.5714C106.079 28.5482 106.106 28.5366 106.139 28.5366H106.514C106.542 28.5366 106.567 28.5482 106.59 28.5714C106.614 28.5945 106.625 28.6223 106.625 28.6548V33.5961C106.625 33.6239 106.614 33.6494 106.59 33.6726C106.567 33.6958 106.542 33.7073 106.514 33.7073H106.354C106.289 33.7073 106.238 33.6934 106.201 33.6656C106.164 33.6378 106.127 33.5961 106.09 33.5405L103.345 29.5444V33.5961C103.345 33.6239 103.333 33.6494 103.31 33.6726C103.287 33.6958 103.259 33.7073 103.227 33.7073H102.851C102.824 33.7073 102.798 33.6958 102.775 33.6726C102.752 33.6494 102.74 33.6239 102.74 33.5961V28.6548C102.74 28.6223 102.752 28.5945 102.775 28.5714C102.798 28.5482 102.824 28.5366 102.851 28.5366H103.15C103.215 28.5366 103.266 28.5528 103.303 28.5853C103.34 28.6131 103.377 28.6548 103.414 28.7104L106.028 32.4981V28.6548Z" fill="white"/>
<path d="M98.5656 31.949C98.5656 32.3706 98.6698 32.7019 98.8783 32.9429C99.0868 33.1792 99.4135 33.2973 99.8583 33.2973C100.303 33.2973 100.63 33.1792 100.838 32.9429C101.051 32.7019 101.158 32.3706 101.158 31.949V28.6548C101.158 28.6223 101.167 28.5945 101.186 28.5714C101.209 28.5482 101.237 28.5366 101.269 28.5366H101.637C101.67 28.5366 101.698 28.5482 101.721 28.5714C101.744 28.5945 101.756 28.6223 101.756 28.6548V31.956C101.756 32.2571 101.709 32.5235 101.617 32.7552C101.529 32.9822 101.401 33.1722 101.234 33.3251C101.068 33.478 100.866 33.5938 100.63 33.6726C100.398 33.7467 100.141 33.7838 99.8583 33.7838C99.2698 33.7838 98.8065 33.6286 98.4683 33.3182C98.1301 33.0031 97.9609 32.549 97.9609 31.956V28.6548C97.9609 28.6223 97.9725 28.5945 97.9957 28.5714C98.0189 28.5482 98.0443 28.5366 98.0721 28.5366H98.4474C98.4799 28.5366 98.5077 28.5482 98.5308 28.5714C98.554 28.5945 98.5656 28.6223 98.5656 28.6548V31.949Z" fill="white"/>
<path d="M93.7599 33.5961C93.7599 33.6239 93.7483 33.6494 93.7252 33.6726C93.702 33.6958 93.6742 33.7073 93.6418 33.7073H93.2665C93.2387 33.7073 93.2132 33.6958 93.19 33.6726C93.1669 33.6494 93.1553 33.6239 93.1553 33.5961V28.6548C93.1553 28.6223 93.1669 28.5945 93.19 28.5714C93.2132 28.5482 93.2387 28.5366 93.2665 28.5366H93.6418C93.6742 28.5366 93.702 28.5482 93.7252 28.5714C93.7483 28.5945 93.7599 28.6223 93.7599 28.6548V30.844H96.4426V28.6548C96.4426 28.6223 96.4518 28.5945 96.4704 28.5714C96.4935 28.5482 96.5213 28.5366 96.5538 28.5366H96.9291C96.9569 28.5366 96.9824 28.5482 97.0055 28.5714C97.0287 28.5945 97.0403 28.6223 97.0403 28.6548V33.5961C97.0403 33.6239 97.0287 33.6494 97.0055 33.6726C96.9824 33.6958 96.9569 33.7073 96.9291 33.7073H96.5538C96.5213 33.7073 96.4935 33.6958 96.4704 33.6726C96.4518 33.6494 96.4426 33.6239 96.4426 33.5961V31.3305H93.7599V33.5961Z" fill="white"/>
<path d="M92.532 32.1644C92.4903 32.4377 92.4115 32.6763 92.2957 32.8802C92.1798 33.0841 92.0316 33.2532 91.8509 33.3876C91.6748 33.5219 91.4733 33.6239 91.2462 33.6934C91.0238 33.7582 90.7852 33.7906 90.5304 33.7906C90.2246 33.7906 89.9373 33.7327 89.6686 33.6169C89.3999 33.5011 89.1659 33.332 88.9667 33.1096C88.7674 32.8825 88.6099 32.6045 88.4941 32.2756C88.3782 31.942 88.3203 31.5574 88.3203 31.1219C88.3203 30.691 88.3782 30.3111 88.4941 29.9821C88.6099 29.6531 88.7674 29.3775 88.9667 29.1551C89.1705 28.9327 89.4068 28.7659 89.6755 28.6547C89.9443 28.5388 90.2292 28.4809 90.5304 28.4809C91.0261 28.4809 91.4501 28.6153 91.8022 28.884C92.1543 29.1527 92.3906 29.5396 92.5111 30.0447C92.5157 30.0539 92.5181 30.0678 92.5181 30.0864C92.5181 30.1373 92.4856 30.1628 92.4208 30.1628H91.9968C91.9597 30.1628 91.9366 30.1582 91.9273 30.1489C91.9227 30.135 91.9157 30.1095 91.9065 30.0725C91.8184 29.7389 91.654 29.4701 91.413 29.2663C91.1721 29.0624 90.8779 28.9605 90.5304 28.9605C90.2663 28.9605 90.0346 29.0207 89.8354 29.1412C89.6362 29.2616 89.4694 29.4238 89.335 29.6277C89.2006 29.8269 89.0987 30.0586 89.0292 30.3226C88.9643 30.5821 88.9319 30.8508 88.9319 31.1288C88.9319 31.4115 88.9643 31.6848 89.0292 31.9489C89.0987 32.2084 89.1983 32.4401 89.328 32.6439C89.4624 32.8431 89.6292 33.0053 89.8284 33.1304C90.0277 33.2509 90.2617 33.3111 90.5304 33.3111C90.7111 33.3111 90.8802 33.2833 91.0377 33.2277C91.1999 33.1721 91.3412 33.0933 91.4617 32.9914C91.5868 32.8895 91.6887 32.7667 91.7675 32.6231C91.8509 32.4748 91.9065 32.3126 91.9343 32.1366C91.9389 32.0995 91.9458 32.0763 91.9551 32.0671C91.9644 32.0532 91.9875 32.0462 92.0246 32.0462H92.4416C92.5065 32.0462 92.5389 32.0694 92.5389 32.1157C92.5389 32.1389 92.5366 32.1551 92.532 32.1644Z" fill="white"/>
<path d="M18.7755 26.3575L23.8434 23.8729C24.2784 23.6621 24.4498 23.1216 24.2059 22.7065C22.8088 20.3208 20.6142 18.4623 17.9912 17.4869V22.0936C17.9912 23.5896 18.268 25.0263 18.7689 26.3509C18.7689 26.3509 18.7689 26.3509 18.7689 26.3641L18.7755 26.3575Z" fill="white"/>
<path d="M41.3215 17.8492C41.3215 17.8492 41.3215 17.8492 41.3215 17.8427C37.1827 19.7473 34.3027 23.9321 34.3027 28.7958V33.3827C38.8633 31.6626 42.1123 27.2602 42.1123 22.0934C42.1123 20.5974 41.8355 19.1673 41.3412 17.8427C41.3412 17.8427 41.328 17.8427 41.328 17.8492H41.3215Z" fill="white"/>
<path d="M17.016 17.1771C15.9945 16.8938 14.9136 16.7422 13.7999 16.7422C6.97886 16.7422 1.48251 22.4033 1.75272 29.277C1.98997 35.4719 7.00522 40.5399 13.1936 40.8431C17.24 41.0408 20.8713 39.2482 23.1977 36.355C23.5206 35.953 23.4086 35.3467 22.9539 35.1029C21.5567 34.3384 20.2914 33.3564 19.2105 32.1965C18.914 31.8736 18.4065 31.9 18.1363 32.2427C17.016 33.653 15.2366 34.5032 13.2595 34.3186C10.676 34.0748 8.57373 32.012 8.29034 29.4352C7.92128 26.0939 10.5311 23.26 13.7999 23.26C15.0982 23.26 16.291 23.7148 17.2334 24.4661C17.0885 23.6884 17.016 22.8976 17.016 22.0935V17.1771Z" fill="white"/>
<path d="M57.1057 21.4475V13.5918C57.1057 13.058 56.8026 12.5703 56.3215 12.3396L51.8203 10.1319C51.2667 9.86165 50.6143 10.2637 50.6143 10.8832V16.4718L50.957 16.6036C53.5008 17.5658 55.6229 19.2858 57.1057 21.4541V21.4475Z" fill="white"/>
<path d="M50.6143 17.5133V22.1002C50.6143 27.2604 53.8567 31.6627 58.4172 33.3828V28.8025C58.4172 23.6423 55.1748 19.2399 50.6143 17.5199V17.5133Z" fill="white"/>
<path d="M40.9261 16.9463C39.0939 13.1041 35.2979 10.3428 30.8428 10.0528C28.5494 9.90124 26.3812 10.4021 24.5029 11.3775V0.83952C24.5029 0.220028 23.8505 -0.188573 23.2969 0.0882216L18.7693 2.30917C18.2882 2.54642 17.9851 3.02751 17.9851 3.56133V15.6546C16.6209 15.2196 15.2105 14.9956 13.7936 14.9956C10.2612 14.9956 6.72874 16.34 4.03329 19.0289C-1.34443 24.4132 -1.34443 33.1651 4.03329 38.5495C6.72215 41.2383 10.2612 42.5827 13.7936 42.5827C17.326 42.5827 20.8584 41.2383 23.5539 38.5495C24.1668 37.9365 24.7072 37.2709 25.1751 36.5789C25.3135 36.3746 25.2278 36.0978 24.9972 36.0122C24.9972 36.0122 24.9972 36.0122 24.9906 36.0122C24.8258 35.9529 24.6479 36.0122 24.549 36.1506C24.1009 36.803 23.5869 37.4291 23.0069 38.009C20.463 40.5529 17.1283 41.8183 13.787 41.8249C10.4457 41.8249 7.11098 40.5529 4.56711 38.009C-0.514047 32.9279 -0.514047 24.6504 4.56711 19.5693C7.11098 17.0254 10.4457 15.7601 13.787 15.7535C15.3753 15.7535 16.9701 16.05 18.4727 16.63C18.6573 16.7025 18.8352 16.775 19.0132 16.854C19.1713 16.92 19.3229 16.9924 19.4745 17.0715C19.6788 17.1704 19.8831 17.2692 20.0742 17.3813C20.1599 17.4274 20.2455 17.4867 20.3312 17.5329C21.0891 17.9744 21.8009 18.4885 22.4467 19.075C22.4994 19.1211 22.5588 19.1738 22.6115 19.22C23.3166 19.8724 23.9559 20.604 24.5095 21.4014C24.8456 18.6466 27.1852 16.5179 30.0322 16.5179C32.8792 16.5179 35.2649 18.6928 35.5681 21.4805C36.8796 19.5429 38.7051 17.9546 40.9129 16.9397L40.9261 16.9463Z" fill="white"/>
<path d="M51.9258 29.4357V37.2914C51.9258 37.8252 52.2289 38.3129 52.71 38.5435L57.2112 40.7513C57.7648 41.0215 58.4173 40.6195 58.4173 40V34.4114L58.0746 34.2796C55.5307 33.3174 53.4086 31.5973 51.9258 29.4291V29.4357Z" fill="white"/>
<path d="M24.905 24.2221C24.7336 24.4396 24.5227 24.6241 24.2723 24.7427L19.1977 27.2339L19.1582 27.2537C21.0892 31.3331 25.2345 34.1537 30.0455 34.1537C31.1856 34.1537 32.2796 33.989 33.3209 33.6858V28.7892C33.3209 27.9852 33.4065 27.1878 33.5515 26.4101C32.5959 27.1878 31.3767 27.6557 30.0455 27.6557C27.7257 27.6557 25.7354 26.2388 24.905 24.2155V24.2221Z" fill="white"/>
<path d="M73.5222 10.132L69.021 12.3397C68.5399 12.577 68.2368 13.0581 68.2368 13.5919V22.0934C68.2368 25.1645 65.739 27.6557 62.6679 27.6557C61.3367 27.6557 60.1109 27.1878 59.1553 26.4035C59.3003 27.1812 59.3859 27.9786 59.3859 28.7892V33.6792C60.4272 33.9758 61.5278 34.1472 62.6679 34.1472C69.3308 34.1472 74.7283 28.7497 74.7283 22.0934V10.8833C74.7283 10.2638 74.0758 9.85516 73.5222 10.132Z" fill="white"/>
<path d="M49.6383 17.513V17.2032C48.597 16.9067 47.4964 16.7353 46.3563 16.7353C44.9064 16.7353 43.5224 16.9989 42.2373 17.4734V17.4866C42.7975 18.9629 43.0809 20.505 43.0809 22.0867C43.0809 22.8973 42.9952 23.6947 42.8502 24.4724C43.8058 23.6947 45.025 23.2268 46.3563 23.2268C47.6875 23.2268 48.9133 23.6947 49.8689 24.479C49.7239 23.7013 49.6383 22.9039 49.6383 22.0933V17.5064V17.513Z" fill="white"/>
<path d="M34.6454 34.292L34.3027 34.4238V40.0058C34.3027 40.6253 34.9552 41.0339 35.5088 40.7571L40.01 38.5494C40.4911 38.3121 40.7942 37.831 40.7942 37.2972V29.4481C39.3114 31.6097 37.1893 33.3364 34.6454 34.292Z" fill="white"/>
</svg>
