<svg width="236" height="50" viewBox="0 0 236 50" fill="none" xmlns="http://www.w3.org/2000/svg">
<path d="M231.273 24.7057C231.273 24.7785 231.242 24.8453 231.182 24.906C231.133 24.9546 231.072 24.9788 231 24.9788H229.324C229.252 24.9788 229.185 24.9546 229.124 24.906C229.076 24.8453 229.051 24.7785 229.051 24.7057V19.8806C228.663 20.1598 228.196 20.3904 227.649 20.5725C227.103 20.7425 226.466 20.8578 225.737 20.9185L222.66 21.137C222.624 21.137 222.588 21.143 222.551 21.1552C222.515 21.1552 222.478 21.1552 222.442 21.1552C222.09 21.1552 221.835 21.0763 221.677 20.9185C221.519 20.7607 221.44 20.5482 221.44 20.2812V11.3411C221.44 11.2683 221.465 11.2076 221.513 11.159C221.574 11.0983 221.641 11.068 221.714 11.068H227.34C227.413 11.068 227.473 11.0983 227.522 11.159C227.583 11.2076 227.613 11.2683 227.613 11.3411V12.6885C227.613 12.7613 227.583 12.8281 227.522 12.8888C227.473 12.9373 227.413 12.9616 227.34 12.9616H223.662V19.1887L225.756 19.0431C226.86 18.9702 227.686 18.7578 228.232 18.4058C228.778 18.0538 229.051 17.6957 229.051 17.3315V10.8859C229.051 10.8131 229.076 10.7524 229.124 10.7038C229.185 10.6431 229.252 10.6128 229.324 10.6128H231C231.072 10.6128 231.133 10.6431 231.182 10.7038C231.242 10.7524 231.273 10.8131 231.273 10.8859V14.8006H232.875V10.8859C232.875 10.8131 232.899 10.7524 232.948 10.7038C233.008 10.6431 233.075 10.6128 233.148 10.6128H234.823C234.896 10.6128 234.957 10.6431 235.005 10.7038C235.066 10.7524 235.096 10.8131 235.096 10.8859V24.7057C235.096 24.7785 235.066 24.8453 235.005 24.906C234.957 24.9546 234.896 24.9788 234.823 24.9788H233.148C233.075 24.9788 233.008 24.9546 232.948 24.906C232.899 24.8453 232.875 24.7785 232.875 24.7057V16.7306H231.273V24.7057Z" fill="white" fill-opacity="0.5"/>
<path d="M217.645 10.886C217.718 10.886 217.779 10.9163 217.827 10.977C217.888 11.0256 217.919 11.0863 217.919 11.1591V15.001C217.919 15.5108 217.821 15.9296 217.627 16.2573C217.445 16.5729 217.148 16.8339 216.735 17.0403C216.334 17.2345 215.806 17.3801 215.151 17.4772C214.508 17.5744 213.731 17.6533 212.82 17.714C212.675 17.7261 212.529 17.7382 212.383 17.7504C212.25 17.7504 212.11 17.7504 211.965 17.7504C211.819 17.7504 211.673 17.7504 211.528 17.7504C211.394 17.7382 211.254 17.7261 211.109 17.714C210.198 17.6533 209.415 17.5744 208.76 17.4772C208.117 17.3801 207.589 17.2345 207.176 17.0403C206.775 16.8339 206.478 16.5729 206.284 16.2573C206.102 15.9296 206.011 15.5108 206.011 15.001V11.1591C206.011 11.0863 206.035 11.0256 206.083 10.977C206.144 10.9163 206.211 10.886 206.284 10.886H217.645ZM211 20.5726H205.046C204.973 20.5726 204.906 20.5483 204.845 20.4998C204.797 20.4391 204.772 20.3723 204.772 20.2995V18.9885C204.772 18.9157 204.797 18.855 204.845 18.8064C204.906 18.7457 204.973 18.7154 205.046 18.7154H218.884C218.956 18.7154 219.017 18.7457 219.066 18.8064C219.126 18.855 219.157 18.9157 219.157 18.9885V20.2995C219.157 20.3723 219.126 20.4391 219.066 20.4998C219.017 20.5483 218.956 20.5726 218.884 20.5726H213.294V23.1035C213.294 23.1763 213.263 23.2431 213.203 23.3038C213.154 23.3523 213.093 23.3766 213.021 23.3766H211.273C211.2 23.3766 211.133 23.3523 211.072 23.3038C211.024 23.2431 211 23.1763 211 23.1035V20.5726ZM206.247 27.1274C206.174 27.1274 206.108 27.0971 206.047 27.0364C205.998 26.9878 205.974 26.9271 205.974 26.8543V22.0838C205.974 22.011 205.998 21.9503 206.047 21.9018C206.108 21.8411 206.174 21.8107 206.247 21.8107H208.032C208.104 21.8107 208.165 21.8411 208.214 21.9018C208.274 21.9503 208.305 22.011 208.305 22.0838V25.2702H217.736C217.809 25.2702 217.87 25.2945 217.919 25.3431C217.979 25.4038 218.01 25.4705 218.01 25.5433V26.8543C218.01 26.9271 217.979 26.9878 217.919 27.0364C217.87 27.0971 217.809 27.1274 217.736 27.1274H206.247ZM211.965 15.9842C213.276 15.9842 214.21 15.8992 214.769 15.7293C215.339 15.5593 215.624 15.2923 215.624 14.9281V12.6522H208.305V14.9281C208.305 15.2923 208.584 15.5593 209.142 15.7293C209.713 15.8992 210.654 15.9842 211.965 15.9842Z" fill="white" fill-opacity="0.5"/>
<path d="M194.259 14.3464V15.2932C194.259 15.5238 194.374 15.803 194.605 16.1308C194.835 16.4585 195.115 16.7923 195.442 17.1322C195.782 17.4721 196.14 17.7998 196.517 18.1154C196.905 18.4189 197.251 18.6677 197.554 18.862C197.639 18.9105 197.682 18.9894 197.682 19.0987C197.682 19.1836 197.658 19.2504 197.609 19.299L196.571 20.4278C196.51 20.4885 196.45 20.5189 196.389 20.5189C196.316 20.5189 196.256 20.4946 196.207 20.446C195.454 19.8755 194.799 19.3172 194.241 18.7709C193.682 18.2125 193.306 17.7391 193.112 17.3507C193.002 17.5449 192.832 17.7816 192.602 18.0608C192.383 18.3279 192.128 18.6131 191.837 18.9166C191.546 19.2201 191.236 19.5296 190.909 19.8452C190.581 20.1487 190.265 20.4278 189.962 20.6828C189.913 20.7313 189.846 20.7556 189.761 20.7556C189.689 20.7556 189.628 20.7313 189.579 20.6828L188.505 19.6085C188.444 19.5599 188.414 19.4871 188.414 19.39C188.414 19.2929 188.45 19.214 188.523 19.1533C188.936 18.8377 189.343 18.5039 189.743 18.1519C190.156 17.7998 190.52 17.4539 190.836 17.114C191.163 16.7741 191.424 16.4524 191.619 16.149C191.825 15.8334 191.928 15.5603 191.928 15.3296V14.3464H188.887C188.815 14.3464 188.748 14.3221 188.687 14.2736C188.639 14.2129 188.614 14.1461 188.614 14.0733V12.7987C188.614 12.7259 188.639 12.6652 188.687 12.6167C188.748 12.556 188.815 12.5256 188.887 12.5256H191.928V10.7594C191.928 10.6866 191.952 10.6259 192.001 10.5774C192.062 10.5167 192.128 10.4863 192.201 10.4863H193.986C194.058 10.4863 194.119 10.5167 194.168 10.5774C194.228 10.6259 194.259 10.6866 194.259 10.7594V12.5256H197.299C197.372 12.5256 197.433 12.556 197.482 12.6167C197.542 12.6652 197.573 12.7259 197.573 12.7987V14.0733C197.573 14.1461 197.542 14.2129 197.482 14.2736C197.433 14.3221 197.372 14.3464 197.299 14.3464H194.259ZM199.703 10.8869C199.703 10.8141 199.727 10.7534 199.776 10.7048C199.836 10.6441 199.903 10.6138 199.976 10.6138H201.76C201.833 10.6138 201.894 10.6441 201.942 10.7048C202.003 10.7534 202.034 10.8141 202.034 10.8869V22.3397C202.034 22.4125 202.003 22.4793 201.942 22.54C201.894 22.5885 201.833 22.6128 201.76 22.6128H199.976C199.903 22.6128 199.836 22.5885 199.776 22.54C199.727 22.4793 199.703 22.4125 199.703 22.3397V16.7863C199.545 16.9198 199.375 17.0048 199.193 17.0412C199.023 17.0776 198.835 17.1019 198.629 17.114L197.299 17.1686C197.227 17.1686 197.16 17.1444 197.099 17.0958C197.039 17.0472 197.008 16.9865 197.008 16.9137L196.954 15.5663C196.954 15.4935 196.978 15.4328 197.026 15.3843C197.087 15.3236 197.154 15.2932 197.227 15.2932L198.319 15.2386C198.805 15.2143 199.151 15.1476 199.357 15.0383C199.563 14.9291 199.679 14.753 199.703 14.5103V10.8869ZM191.509 27.1283C191.437 27.1283 191.37 27.098 191.309 27.0373C191.261 26.9888 191.236 26.9281 191.236 26.8552V22.0848C191.236 22.0119 191.261 21.9512 191.309 21.9027C191.37 21.842 191.437 21.8116 191.509 21.8116H193.294C193.367 21.8116 193.427 21.842 193.476 21.9027C193.537 21.9512 193.567 22.0119 193.567 22.0848V25.2711H202.288C202.361 25.2711 202.422 25.2954 202.471 25.344C202.531 25.4047 202.562 25.4714 202.562 25.5443V26.8552C202.562 26.9281 202.531 26.9888 202.471 27.0373C202.422 27.098 202.361 27.1283 202.288 27.1283H191.509Z" fill="white" fill-opacity="0.5"/>
<path d="M183.002 22.5396C183.075 22.5396 183.135 22.5699 183.184 22.6306C183.244 22.6792 183.275 22.7398 183.275 22.8127V24.1601C183.275 24.2329 183.244 24.2997 183.184 24.3603C183.135 24.4089 183.075 24.4332 183.002 24.4332H169.164C169.091 24.4332 169.024 24.4089 168.963 24.3603C168.915 24.2997 168.891 24.2329 168.891 24.1601V22.8127C168.891 22.7398 168.915 22.6792 168.963 22.6306C169.024 22.5699 169.091 22.5396 169.164 22.5396H171.349V17.1318C171.349 17.059 171.373 16.9983 171.422 16.9497C171.482 16.889 171.549 16.8587 171.622 16.8587H173.37C173.443 16.8587 173.503 16.889 173.552 16.9497C173.613 16.9983 173.643 17.059 173.643 17.1318V22.5396H175.5V17.1318C175.5 17.059 175.524 16.9983 175.573 16.9497C175.634 16.889 175.7 16.8587 175.773 16.8587H177.521C177.594 16.8587 177.655 16.889 177.703 16.9497C177.764 16.9983 177.794 17.059 177.794 17.1318V22.5396H183.002ZM179.597 20.4092C179.439 20.3728 179.36 20.2878 179.36 20.1543C179.36 20.1179 179.366 20.0876 179.378 20.0633C179.512 19.5656 179.615 19.0133 179.688 18.4064C179.761 17.7873 179.797 17.0408 179.797 16.1668V12.8347H170.311C170.238 12.8347 170.171 12.8105 170.111 12.7619C170.062 12.7012 170.038 12.6345 170.038 12.5616V11.2507C170.038 11.1778 170.062 11.1171 170.111 11.0686C170.171 11.0079 170.238 10.9775 170.311 10.9775H181.855C181.927 10.9775 181.988 11.0079 182.037 11.0686C182.097 11.1171 182.128 11.1778 182.128 11.2507V15.8755C182.128 16.3974 182.11 16.9497 182.073 17.5324C182.037 18.1029 181.982 18.6309 181.909 19.1165C181.836 19.5899 181.745 19.9844 181.636 20.3C181.539 20.6034 181.424 20.7552 181.29 20.7552C181.278 20.7552 181.266 20.7552 181.254 20.7552C181.254 20.743 181.248 20.737 181.236 20.737L179.597 20.4092Z" fill="white" fill-opacity="0.5"/>
<path d="M160.853 16.2576C160.853 16.7553 160.75 17.2348 160.544 17.6961C160.35 18.1452 160.07 18.5458 159.706 18.8978C159.342 19.2377 158.905 19.5168 158.395 19.7353C157.885 19.9417 157.327 20.0449 156.72 20.0449C156.113 20.0449 155.555 19.9417 155.045 19.7353C154.535 19.5168 154.098 19.2316 153.734 18.8796C153.37 18.5275 153.085 18.127 152.878 17.6778C152.684 17.2166 152.587 16.7432 152.587 16.2576C152.587 15.8085 152.654 15.3958 152.787 15.0195C152.933 14.6432 153.127 14.3033 153.37 13.9999H152.041C151.968 13.9999 151.901 13.9756 151.84 13.927C151.792 13.8663 151.768 13.7996 151.768 13.7267V12.4522C151.768 12.3793 151.792 12.3187 151.84 12.2701C151.901 12.2094 151.968 12.1791 152.041 12.1791H155.446V10.5221C155.446 10.4493 155.47 10.3886 155.518 10.3401C155.579 10.2794 155.646 10.249 155.719 10.249H157.467C157.539 10.249 157.6 10.2794 157.649 10.3401C157.709 10.3886 157.74 10.4493 157.74 10.5221V12.1791H161.4C161.472 12.1791 161.533 12.2094 161.582 12.2701C161.642 12.3187 161.673 12.3793 161.673 12.4522V13.7267C161.673 13.7996 161.642 13.8663 161.582 13.927C161.533 13.9756 161.472 13.9999 161.4 13.9999H160.052C160.307 14.3033 160.501 14.6432 160.635 15.0195C160.78 15.3958 160.853 15.8085 160.853 16.2576ZM153.953 21.629C153.953 21.5561 153.977 21.4954 154.025 21.4469C154.086 21.3862 154.153 21.3558 154.226 21.3558H165.15C165.223 21.3558 165.284 21.3862 165.332 21.4469C165.393 21.4954 165.423 21.5561 165.423 21.629V27.1277C165.423 27.2006 165.393 27.2613 165.332 27.3098C165.284 27.3705 165.223 27.4009 165.15 27.4009H163.366C163.293 27.4009 163.226 27.3705 163.166 27.3098C163.117 27.2613 163.093 27.2006 163.093 27.1277V23.213H154.226C154.153 23.213 154.086 23.1888 154.025 23.1402C153.977 23.0795 153.953 23.0128 153.953 22.9399V21.629ZM165.423 20.3544C165.423 20.4272 165.393 20.494 165.332 20.5547C165.284 20.6033 165.223 20.6275 165.15 20.6275H163.366C163.293 20.6275 163.226 20.6033 163.166 20.5547C163.117 20.494 163.093 20.4272 163.093 20.3544V10.8863C163.093 10.8135 163.117 10.7528 163.166 10.7042C163.226 10.6435 163.293 10.6132 163.366 10.6132H165.15C165.223 10.6132 165.284 10.6435 165.332 10.7042C165.393 10.7528 165.423 10.8135 165.423 10.8863V14.1091C165.727 13.7814 166.121 13.5993 166.607 13.5629L167.353 13.5082C167.426 13.5082 167.487 13.5264 167.536 13.5629C167.596 13.5993 167.633 13.66 167.645 13.7449L167.754 15.2198C167.754 15.3897 167.669 15.4868 167.499 15.5111L166.753 15.5657C166.388 15.59 166.079 15.6932 165.824 15.8753C165.581 16.0573 165.448 16.2637 165.423 16.4943V20.3544ZM156.72 18.3333C157.303 18.3333 157.764 18.1452 158.104 17.7689C158.456 17.3805 158.632 16.8767 158.632 16.2576C158.632 15.9542 158.583 15.6689 158.486 15.4019C158.401 15.1348 158.274 14.8981 158.104 14.6918C157.934 14.4854 157.734 14.3215 157.503 14.2001C157.272 14.0788 157.011 14.0181 156.72 14.0181C156.429 14.0181 156.168 14.0788 155.937 14.2001C155.707 14.3215 155.506 14.4854 155.336 14.6918C155.166 14.8981 155.033 15.1348 154.936 15.4019C154.851 15.6689 154.808 15.9542 154.808 16.2576C154.808 16.8767 154.978 17.3805 155.318 17.7689C155.67 18.1452 156.137 18.3333 156.72 18.3333Z" fill="white" fill-opacity="0.5"/>
<path d="M146.208 24.7057C146.208 24.7785 146.178 24.8453 146.117 24.906C146.069 24.9546 146.008 24.9788 145.935 24.9788H144.26C144.187 24.9788 144.12 24.9546 144.06 24.906C144.011 24.8453 143.987 24.7785 143.987 24.7057V19.8806C143.598 20.1598 143.131 20.3904 142.585 20.5725C142.039 20.7425 141.401 20.8578 140.673 20.9185L137.596 21.137C137.559 21.137 137.523 21.143 137.487 21.1552C137.45 21.1552 137.414 21.1552 137.377 21.1552C137.025 21.1552 136.77 21.0763 136.613 20.9185C136.455 20.7607 136.376 20.5482 136.376 20.2812V11.3411C136.376 11.2683 136.4 11.2076 136.449 11.159C136.51 11.0983 136.576 11.068 136.649 11.068H142.275C142.348 11.068 142.409 11.0983 142.457 11.159C142.518 11.2076 142.548 11.2683 142.548 11.3411V12.6885C142.548 12.7613 142.518 12.8281 142.457 12.8888C142.409 12.9373 142.348 12.9616 142.275 12.9616H138.597V19.1887L140.691 19.0431C141.796 18.9702 142.621 18.7578 143.167 18.4058C143.714 18.0538 143.987 17.6957 143.987 17.3315V10.8859C143.987 10.8131 144.011 10.7524 144.06 10.7038C144.12 10.6431 144.187 10.6128 144.26 10.6128H145.935C146.008 10.6128 146.069 10.6431 146.117 10.7038C146.178 10.7524 146.208 10.8131 146.208 10.8859V14.8006H147.81V10.8859C147.81 10.8131 147.835 10.7524 147.883 10.7038C147.944 10.6431 148.011 10.6128 148.084 10.6128H149.759C149.832 10.6128 149.892 10.6431 149.941 10.7038C150.002 10.7524 150.032 10.8131 150.032 10.8859V24.7057C150.032 24.7785 150.002 24.8453 149.941 24.906C149.892 24.9546 149.832 24.9788 149.759 24.9788H148.084C148.011 24.9788 147.944 24.9546 147.883 24.906C147.835 24.8453 147.81 24.7785 147.81 24.7057V16.7306H146.208V24.7057Z" fill="white" fill-opacity="0.5"/>
<path d="M130.561 11.0693C130.561 10.9964 130.585 10.9357 130.634 10.8872C130.694 10.8265 130.761 10.7961 130.834 10.7961H132.582C132.655 10.7961 132.715 10.8265 132.764 10.8872C132.825 10.9357 132.855 10.9964 132.855 11.0693V14.6744C132.855 15.1721 132.764 15.597 132.582 15.949C132.4 16.301 132.096 16.5984 131.672 16.8412C131.247 17.0718 130.682 17.2599 129.978 17.4056C129.286 17.5513 128.431 17.6787 127.411 17.788C127.314 17.8001 127.223 17.8123 127.138 17.8244C127.065 17.8244 126.986 17.8244 126.901 17.8244C126.816 17.8244 126.731 17.8244 126.646 17.8244C126.573 17.8123 126.488 17.8001 126.391 17.788C125.372 17.6787 124.51 17.5513 123.806 17.4056C123.114 17.2599 122.555 17.0718 122.131 16.8412C121.706 16.5984 121.402 16.3071 121.22 15.9672C121.038 15.6152 120.947 15.1842 120.947 14.6744V11.0693C120.947 10.9964 120.971 10.9357 121.02 10.8872C121.081 10.8265 121.147 10.7961 121.22 10.7961H122.968C123.041 10.7961 123.102 10.8265 123.15 10.8872C123.211 10.9357 123.241 10.9964 123.241 11.0693V12.362H130.561V11.0693ZM134.093 20.1186C134.093 20.1914 134.063 20.2582 134.002 20.3189C133.954 20.3674 133.893 20.3917 133.82 20.3917H128.066V21.7209H132.582C132.655 21.7209 132.715 21.7512 132.764 21.8119C132.825 21.8605 132.855 21.9212 132.855 21.994V27.1286C132.855 27.2015 132.825 27.2622 132.764 27.3107C132.715 27.3714 132.655 27.4017 132.582 27.4017H130.798C130.725 27.4017 130.658 27.3714 130.597 27.3107C130.549 27.2622 130.524 27.2015 130.524 27.1286V23.5781H121.129C121.056 23.5781 120.99 23.5538 120.929 23.5053C120.88 23.4446 120.856 23.3778 120.856 23.305V21.994C120.856 21.9212 120.88 21.8605 120.929 21.8119C120.99 21.7512 121.056 21.7209 121.129 21.7209H125.736V20.3917H119.982C119.909 20.3917 119.843 20.3674 119.782 20.3189C119.733 20.2582 119.709 20.1914 119.709 20.1186V18.8076C119.709 18.7348 119.733 18.6741 119.782 18.6255C119.843 18.5648 119.909 18.5345 119.982 18.5345H133.82C133.893 18.5345 133.954 18.5648 134.002 18.6255C134.063 18.6741 134.093 18.7348 134.093 18.8076V20.1186ZM130.561 14.1828H123.241V14.6744C123.241 14.8808 123.302 15.0568 123.423 15.2025C123.557 15.3481 123.769 15.4756 124.061 15.5848C124.352 15.6941 124.728 15.7851 125.19 15.8579C125.663 15.9308 126.233 15.9915 126.901 16.04C127.569 15.9915 128.133 15.9308 128.594 15.8579C129.068 15.7851 129.45 15.6941 129.742 15.5848C130.033 15.4756 130.239 15.3481 130.361 15.2025C130.494 15.0568 130.561 14.8808 130.561 14.6744V14.1828Z" fill="white" fill-opacity="0.5"/>
<path d="M115.004 24.2686C115.004 24.7784 114.895 25.2518 114.676 25.6888C114.458 26.1258 114.148 26.5081 113.748 26.8359C113.359 27.1636 112.886 27.4185 112.327 27.6006C111.781 27.7827 111.174 27.8737 110.507 27.8737C109.839 27.8737 109.226 27.7766 108.668 27.5824C108.121 27.4003 107.648 27.1454 107.247 26.8177C106.859 26.5021 106.555 26.1258 106.337 25.6888C106.118 25.2518 106.009 24.7784 106.009 24.2686C106.009 23.8437 106.088 23.4431 106.246 23.0668C106.404 22.6784 106.628 22.3325 106.92 22.029C107.211 21.7255 107.557 21.4646 107.957 21.2461C108.37 21.0276 108.831 20.8698 109.341 20.7727V20.0808H103.588C103.515 20.0808 103.448 20.0565 103.387 20.0079C103.339 19.9472 103.314 19.8805 103.314 19.8076V18.4967C103.314 18.4238 103.339 18.3631 103.387 18.3146C103.448 18.2539 103.515 18.2235 103.588 18.2235H117.426C117.498 18.2235 117.559 18.2539 117.608 18.3146C117.668 18.3631 117.699 18.4238 117.699 18.4967V19.8076C117.699 19.8805 117.668 19.9472 117.608 20.0079C117.559 20.0565 117.498 20.0808 117.426 20.0808H111.672V20.7727C112.17 20.8698 112.625 21.0276 113.037 21.2461C113.45 21.4646 113.802 21.7255 114.093 22.029C114.385 22.3325 114.609 22.6784 114.767 23.0668C114.925 23.4431 115.004 23.8437 115.004 24.2686ZM116.461 11.6141C116.533 11.6141 116.594 11.6444 116.643 11.7051C116.703 11.7537 116.734 11.8144 116.734 11.8872V13.1618C116.734 13.2346 116.703 13.3013 116.643 13.362C116.594 13.4106 116.533 13.4349 116.461 13.4349H111.69V13.5441C111.69 13.7626 111.769 13.9568 111.927 14.1268C112.097 14.2967 112.376 14.4666 112.764 14.6366C113.165 14.7944 113.693 14.9522 114.348 15.11C115.016 15.2678 115.854 15.4377 116.861 15.6198C117.031 15.6684 117.116 15.7594 117.116 15.8929C117.116 15.9172 117.11 15.9354 117.098 15.9476C117.098 15.9476 117.098 15.9597 117.098 15.984L116.752 17.2403C116.715 17.386 116.624 17.4588 116.479 17.4588C116.467 17.4588 116.454 17.4588 116.442 17.4588C116.43 17.4467 116.418 17.4406 116.406 17.4406C115.301 17.1978 114.403 16.9915 113.711 16.8215C113.031 16.6395 112.479 16.4756 112.054 16.3299C111.642 16.1721 111.326 16.0204 111.107 15.8747C110.889 15.7169 110.689 15.5409 110.507 15.3467C110.312 15.5652 110.094 15.7594 109.851 15.9294C109.62 16.0872 109.293 16.251 108.868 16.421C108.443 16.5788 107.891 16.7548 107.211 16.949C106.543 17.1311 105.675 17.3496 104.607 17.6045C104.583 17.6166 104.547 17.6227 104.498 17.6227C104.364 17.6227 104.286 17.5559 104.261 17.4224L103.897 16.1478C103.897 16.1357 103.891 16.1236 103.879 16.1114C103.879 16.0993 103.879 16.0872 103.879 16.075C103.879 15.9172 103.964 15.8201 104.134 15.7837C105.166 15.5652 106.015 15.3649 106.683 15.1828C107.351 15.0007 107.879 14.8247 108.267 14.6548C108.668 14.4727 108.941 14.2967 109.086 14.1268C109.244 13.9447 109.323 13.7505 109.323 13.5441V13.4349H104.553C104.48 13.4349 104.413 13.4106 104.352 13.362C104.304 13.3013 104.279 13.2346 104.279 13.1618V11.8872C104.279 11.8144 104.304 11.7537 104.352 11.7051C104.413 11.6444 104.48 11.6141 104.553 11.6141H109.341V10.3395C109.341 10.2667 109.366 10.206 109.414 10.1574C109.475 10.0968 109.542 10.0664 109.614 10.0664H111.399C111.472 10.0664 111.532 10.0968 111.581 10.1574C111.642 10.206 111.672 10.2667 111.672 10.3395V11.6141H116.461ZM110.507 26.1258C111.198 26.1258 111.745 25.9498 112.145 25.5977C112.546 25.2579 112.746 24.8148 112.746 24.2686C112.746 23.7345 112.546 23.2914 112.145 22.9394C111.745 22.5874 111.198 22.4114 110.507 22.4114C109.815 22.4114 109.268 22.5874 108.868 22.9394C108.467 23.2914 108.267 23.7345 108.267 24.2686C108.267 24.8148 108.467 25.2579 108.868 25.5977C109.268 25.9498 109.815 26.1258 110.507 26.1258Z" fill="white" fill-opacity="0.5"/>
<path d="M229.823 42.4691C229.844 42.4313 229.869 42.399 229.896 42.372C229.922 42.345 229.96 42.3315 230.009 42.3315H230.535C230.605 42.3315 230.64 42.3639 230.64 42.4287C230.64 42.4448 230.637 42.4583 230.632 42.4691L228.617 46.0783V48.2228C228.617 48.2552 228.603 48.2849 228.576 48.3118C228.555 48.3388 228.525 48.3523 228.487 48.3523H228.01C227.972 48.3523 227.94 48.3388 227.913 48.3118C227.886 48.2849 227.872 48.2552 227.872 48.2228V46.0379L225.874 42.4691C225.863 42.4475 225.857 42.434 225.857 42.4287C225.857 42.4017 225.868 42.3801 225.89 42.3639C225.917 42.3423 225.944 42.3315 225.971 42.3315H226.497C226.545 42.3315 226.583 42.345 226.61 42.372C226.637 42.399 226.661 42.4313 226.683 42.4691L228.253 45.3905L229.823 42.4691Z" fill="white" fill-opacity="0.5"/>
<path d="M225.433 48.2066C225.444 48.239 225.449 48.2633 225.449 48.2795C225.449 48.328 225.422 48.3523 225.368 48.3523H224.859C224.762 48.3523 224.702 48.3091 224.681 48.2228L223.952 46.3777C223.882 46.2051 223.774 46.0729 223.629 45.9812C223.488 45.8841 223.264 45.8356 222.957 45.8356H221.686V48.2228C221.686 48.2552 221.673 48.2849 221.646 48.3118C221.619 48.3388 221.587 48.3523 221.549 48.3523H221.112C221.08 48.3523 221.05 48.3388 221.023 48.3118C220.996 48.2849 220.982 48.2552 220.982 48.2228V42.4691C220.982 42.4313 220.996 42.399 221.023 42.372C221.05 42.345 221.08 42.3315 221.112 42.3315H222.925C223.248 42.3315 223.542 42.3639 223.807 42.4287C224.076 42.4934 224.306 42.5959 224.495 42.7362C224.689 42.8764 224.84 43.0572 224.948 43.2784C225.056 43.4942 225.11 43.7558 225.11 44.0633C225.11 44.3924 225.029 44.6918 224.867 44.9616C224.705 45.2259 224.459 45.4444 224.13 45.6171C224.319 45.698 224.492 45.9219 224.648 46.2887L225.433 48.2066ZM224.397 44.0633C224.397 43.6587 224.273 43.362 224.025 43.1732C223.777 42.9789 223.434 42.8818 222.997 42.8818H221.686V45.2853H223.014C223.451 45.2853 223.79 45.1882 224.033 44.9939C224.276 44.7943 224.397 44.4841 224.397 44.0633Z" fill="white" fill-opacity="0.5"/>
<path d="M217.302 48.4494C216.946 48.4494 216.606 48.382 216.282 48.2471C215.959 48.1123 215.675 47.9126 215.433 47.6483C215.19 47.3839 214.996 47.0602 214.85 46.6772C214.71 46.2888 214.64 45.8437 214.64 45.342C214.64 44.8402 214.712 44.3978 214.858 44.0148C215.004 43.6318 215.198 43.3108 215.441 43.0518C215.684 42.7929 215.964 42.5986 216.282 42.4692C216.606 42.3343 216.946 42.2668 217.302 42.2668C217.653 42.2668 217.987 42.3316 218.305 42.4611C218.629 42.5905 218.912 42.7848 219.155 43.0437C219.403 43.3027 219.6 43.6237 219.746 44.0067C219.892 44.3898 219.964 44.8348 219.964 45.342C219.964 45.8491 219.892 46.2969 219.746 46.6853C219.6 47.0737 219.406 47.4001 219.163 47.6645C218.921 47.9234 218.637 48.1203 218.314 48.2552C217.995 48.3847 217.658 48.4494 217.302 48.4494ZM217.302 47.8911C217.615 47.8911 217.893 47.8209 218.136 47.6807C218.378 47.535 218.583 47.3462 218.751 47.1142C218.918 46.8768 219.042 46.6071 219.123 46.305C219.209 45.9974 219.252 45.6791 219.252 45.35C219.252 45.0264 219.209 44.7134 219.123 44.4113C219.037 44.1092 218.91 43.8422 218.742 43.6102C218.581 43.3728 218.378 43.184 218.136 43.0437C217.893 42.8981 217.615 42.8252 217.302 42.8252C216.989 42.8252 216.711 42.8981 216.469 43.0437C216.226 43.184 216.021 43.3728 215.854 43.6102C215.692 43.8422 215.568 44.1092 215.481 44.4113C215.395 44.7134 215.352 45.0264 215.352 45.35C215.352 45.6791 215.392 45.9974 215.473 46.305C215.559 46.6071 215.686 46.8768 215.854 47.1142C216.021 47.3462 216.223 47.535 216.46 47.6807C216.703 47.8209 216.984 47.8911 217.302 47.8911Z" fill="white" fill-opacity="0.5"/>
<path d="M213.693 42.3477C213.731 42.3477 213.763 42.3611 213.79 42.3881C213.817 42.4151 213.83 42.4475 213.83 42.4852V42.8008C213.83 42.8386 213.817 42.871 213.79 42.8979C213.763 42.9195 213.731 42.9303 213.693 42.9303H211.904V48.2227C211.904 48.2551 211.891 48.2848 211.864 48.3118C211.837 48.3387 211.805 48.3522 211.767 48.3522H211.338C211.3 48.3522 211.268 48.3387 211.241 48.3118C211.214 48.2848 211.2 48.2551 211.2 48.2227V42.9303H209.412C209.374 42.9303 209.342 42.9195 209.315 42.8979C209.288 42.871 209.274 42.8386 209.274 42.8008V42.4852C209.274 42.4475 209.288 42.4151 209.315 42.3881C209.342 42.3611 209.374 42.3477 209.412 42.3477H213.693Z" fill="white" fill-opacity="0.5"/>
<path d="M204.538 48.352C204.468 48.352 204.433 48.3223 204.433 48.263C204.433 48.2468 204.435 48.2333 204.441 48.2225L206.65 42.4122C206.672 42.3259 206.728 42.2827 206.82 42.2827H207.176C207.208 42.2827 207.241 42.2962 207.273 42.3232C207.305 42.3448 207.327 42.3744 207.338 42.4122L209.547 48.2225C209.547 48.2279 209.547 48.2333 209.547 48.2387C209.552 48.2441 209.555 48.2495 209.555 48.2549C209.555 48.2819 209.542 48.3062 209.515 48.3277C209.493 48.3439 209.469 48.352 209.442 48.352H208.964C208.927 48.352 208.892 48.3385 208.859 48.3116C208.827 48.2846 208.805 48.2549 208.794 48.2225L208.26 46.774H206.108C205.989 46.774 205.889 46.801 205.808 46.8549C205.727 46.9089 205.663 46.9979 205.614 47.122L205.185 48.2225C205.174 48.2549 205.153 48.2846 205.12 48.3116C205.088 48.3385 205.053 48.352 205.015 48.352H204.538ZM205.873 46.3613C205.9 46.3181 205.943 46.2858 206.003 46.2642C206.062 46.2372 206.145 46.2237 206.253 46.2237H208.074L206.998 43.3105L205.873 46.3613Z" fill="white" fill-opacity="0.5"/>
<path d="M201.257 48.4089C201.22 48.4089 201.185 48.3954 201.152 48.3685C201.12 48.3415 201.098 48.3091 201.087 48.2714L198.878 42.4691C198.873 42.4583 198.87 42.4448 198.87 42.4287C198.87 42.3639 198.905 42.3315 198.975 42.3315H199.453C199.501 42.3315 199.539 42.345 199.566 42.372C199.593 42.399 199.612 42.4313 199.623 42.4691L201.443 47.4621L203.256 42.4691C203.272 42.4313 203.291 42.399 203.313 42.372C203.34 42.345 203.378 42.3315 203.426 42.3315H203.904C203.931 42.3315 203.955 42.3423 203.976 42.3639C204.003 42.3855 204.017 42.4098 204.017 42.4367C204.017 42.4421 204.014 42.4475 204.009 42.4529C204.009 42.4583 204.009 42.4637 204.009 42.4691L201.791 48.2714C201.781 48.3091 201.759 48.3415 201.727 48.3685C201.694 48.3954 201.662 48.4089 201.63 48.4089H201.257Z" fill="white" fill-opacity="0.5"/>
<path d="M198.422 48.2066C198.433 48.239 198.439 48.2633 198.439 48.2795C198.439 48.328 198.412 48.3523 198.358 48.3523H197.848C197.751 48.3523 197.691 48.3091 197.67 48.2228L196.942 46.3777C196.871 46.2051 196.764 46.0729 196.618 45.9812C196.478 45.8841 196.254 45.8356 195.946 45.8356H194.676V48.2228C194.676 48.2552 194.662 48.2849 194.635 48.3118C194.608 48.3388 194.576 48.3523 194.538 48.3523H194.101C194.069 48.3523 194.039 48.3388 194.012 48.3118C193.985 48.2849 193.972 48.2552 193.972 48.2228V42.4691C193.972 42.4313 193.985 42.399 194.012 42.372C194.039 42.345 194.069 42.3315 194.101 42.3315H195.914C196.238 42.3315 196.532 42.3639 196.796 42.4287C197.066 42.4934 197.295 42.5959 197.484 42.7362C197.678 42.8764 197.829 43.0572 197.937 43.2784C198.045 43.4942 198.099 43.7558 198.099 44.0633C198.099 44.3924 198.018 44.6918 197.856 44.9616C197.694 45.2259 197.449 45.4444 197.12 45.6171C197.308 45.698 197.481 45.9219 197.638 46.2887L198.422 48.2066ZM197.387 44.0633C197.387 43.6587 197.263 43.362 197.014 43.1732C196.766 42.9789 196.424 42.8818 195.987 42.8818H194.676V45.2853H196.003C196.44 45.2853 196.78 45.1882 197.023 44.9939C197.265 44.7943 197.387 44.4841 197.387 44.0633Z" fill="white" fill-opacity="0.5"/>
<path d="M189.097 48.3523C189.065 48.3523 189.035 48.3388 189.008 48.3118C188.981 48.2849 188.968 48.2552 188.968 48.2228V42.4691C188.968 42.4313 188.981 42.399 189.008 42.372C189.035 42.345 189.065 42.3315 189.097 42.3315H192.553C192.585 42.3315 192.615 42.345 192.642 42.372C192.669 42.399 192.682 42.4313 192.682 42.4691V42.7685C192.682 42.8009 192.669 42.8306 192.642 42.8575C192.615 42.8845 192.585 42.898 192.553 42.898H189.672V44.913H192.31C192.342 44.913 192.372 44.9265 192.399 44.9535C192.426 44.9805 192.439 45.0128 192.439 45.0506V45.3419C192.439 45.3743 192.426 45.404 192.399 45.4309C192.372 45.4579 192.342 45.4714 192.31 45.4714H189.672V47.7858H192.755C192.787 47.7858 192.817 47.7993 192.844 47.8263C192.871 47.8533 192.884 47.8856 192.884 47.9234V48.2228C192.884 48.2552 192.871 48.2849 192.844 48.3118C192.817 48.3388 192.787 48.3523 192.755 48.3523H189.097Z" fill="white" fill-opacity="0.5"/>
<path d="M185.924 47.891C186.361 47.891 186.698 47.7885 186.935 47.5835C187.178 47.3731 187.3 47.098 187.3 46.7581C187.3 46.5962 187.265 46.4533 187.194 46.3292C187.124 46.1997 187.019 46.0837 186.879 45.9812C186.744 45.8733 186.577 45.7762 186.377 45.6899C186.183 45.5982 185.956 45.5092 185.697 45.4228C185.471 45.3473 185.25 45.2637 185.034 45.172C184.823 45.0749 184.637 44.9616 184.475 44.8321C184.314 44.7026 184.184 44.5543 184.087 44.387C183.99 44.2198 183.941 44.0256 183.941 43.8044C183.941 43.5724 183.987 43.362 184.079 43.1732C184.176 42.9843 184.305 42.8252 184.467 42.6957C184.635 42.5608 184.834 42.4583 185.066 42.3882C185.298 42.3127 185.552 42.2749 185.827 42.2749C186.053 42.2749 186.28 42.3073 186.507 42.372C186.733 42.4314 186.938 42.5231 187.122 42.6472C187.305 42.7658 187.453 42.9169 187.567 43.1003C187.685 43.2838 187.745 43.4942 187.745 43.7315C187.745 43.7585 187.739 43.7801 187.729 43.7963C187.718 43.8071 187.691 43.8125 187.648 43.8125H187.186C187.143 43.8125 187.113 43.8071 187.097 43.7963C187.087 43.7801 187.076 43.7504 187.065 43.7073C187 43.4051 186.849 43.1839 186.612 43.0437C186.38 42.898 186.118 42.8252 185.827 42.8252C185.487 42.8252 185.209 42.9061 184.993 43.068C184.777 43.2244 184.67 43.4402 184.67 43.7153C184.67 43.8772 184.707 44.0175 184.783 44.1362C184.864 44.2548 184.972 44.36 185.107 44.4518C185.247 44.5435 185.414 44.6271 185.608 44.7026C185.803 44.7782 186.018 44.8564 186.256 44.9373C186.515 45.029 186.752 45.1261 186.968 45.2286C187.184 45.3311 187.37 45.4498 187.526 45.5847C187.683 45.7196 187.804 45.876 187.89 46.0541C187.977 46.2321 188.02 46.4371 188.02 46.6691C188.02 46.9496 187.969 47.2005 187.866 47.4217C187.764 47.6375 187.621 47.8209 187.437 47.972C187.259 48.123 187.041 48.239 186.782 48.3199C186.528 48.4008 186.248 48.4413 185.94 48.4413C185.66 48.4413 185.398 48.4062 185.155 48.3361C184.912 48.2606 184.699 48.1554 184.516 48.0205C184.332 47.8802 184.179 47.7076 184.055 47.5026C183.936 47.2976 183.858 47.0629 183.82 46.7986C183.809 46.7662 183.804 46.7446 183.804 46.7338C183.804 46.6853 183.839 46.661 183.909 46.661H184.378C184.421 46.661 184.448 46.6691 184.459 46.6853C184.475 46.6961 184.489 46.723 184.5 46.7662C184.591 47.1438 184.761 47.4271 185.009 47.6159C185.263 47.7993 185.568 47.891 185.924 47.891Z" fill="white" fill-opacity="0.5"/>
<path d="M180.864 42.3315C181.16 42.3315 181.433 42.3639 181.681 42.4287C181.929 42.488 182.142 42.5824 182.32 42.7119C182.504 42.8414 182.647 43.0032 182.749 43.1974C182.852 43.3916 182.903 43.6182 182.903 43.8772C182.903 44.1685 182.841 44.4302 182.717 44.6622C182.593 44.8887 182.428 45.0533 182.223 45.1558C182.498 45.2745 182.725 45.4525 182.903 45.6899C183.081 45.9219 183.17 46.224 183.17 46.5962C183.17 47.1357 182.989 47.5646 182.628 47.8829C182.266 48.1958 181.692 48.3523 180.904 48.3523H178.889C178.857 48.3523 178.827 48.3388 178.8 48.3118C178.773 48.2849 178.76 48.2552 178.76 48.2228V42.4691C178.76 42.4313 178.773 42.399 178.8 42.372C178.827 42.345 178.857 42.3315 178.889 42.3315H180.864ZM182.191 43.9096C182.191 43.602 182.072 43.3566 181.835 43.1732C181.603 42.9843 181.268 42.8899 180.831 42.8899H179.464V44.9535H180.88C181.285 44.9535 181.603 44.8699 181.835 44.7026C182.072 44.53 182.191 44.2656 182.191 43.9096ZM182.45 46.6124C182.45 46.2564 182.318 45.9839 182.053 45.7951C181.789 45.6009 181.371 45.5038 180.799 45.5038H179.464V47.7939H181.034C181.535 47.7939 181.897 47.6833 182.118 47.4621C182.339 47.2409 182.45 46.9577 182.45 46.6124Z" fill="white" fill-opacity="0.5"/>
<path d="M175.079 48.4494C174.723 48.4494 174.383 48.382 174.06 48.2471C173.736 48.1123 173.453 47.9126 173.21 47.6483C172.967 47.3839 172.773 47.0602 172.627 46.6772C172.487 46.2888 172.417 45.8437 172.417 45.342C172.417 44.8402 172.49 44.3978 172.635 44.0148C172.781 43.6318 172.975 43.3108 173.218 43.0518C173.461 42.7929 173.741 42.5986 174.06 42.4692C174.383 42.3343 174.723 42.2668 175.079 42.2668C175.43 42.2668 175.765 42.3316 176.083 42.4611C176.407 42.5905 176.69 42.7848 176.933 43.0437C177.181 43.3027 177.378 43.6237 177.523 44.0067C177.669 44.3898 177.742 44.8348 177.742 45.342C177.742 45.8491 177.669 46.2969 177.523 46.6853C177.378 47.0737 177.183 47.4001 176.941 47.6645C176.698 47.9234 176.415 48.1203 176.091 48.2552C175.773 48.3847 175.435 48.4494 175.079 48.4494ZM175.079 47.8911C175.392 47.8911 175.67 47.8209 175.913 47.6807C176.156 47.535 176.361 47.3462 176.528 47.1142C176.695 46.8768 176.819 46.6071 176.9 46.305C176.986 45.9974 177.03 45.6791 177.03 45.35C177.03 45.0264 176.986 44.7134 176.9 44.4113C176.814 44.1092 176.687 43.8422 176.52 43.6102C176.358 43.3728 176.156 43.184 175.913 43.0437C175.67 42.8981 175.392 42.8252 175.079 42.8252C174.766 42.8252 174.489 42.8981 174.246 43.0437C174.003 43.184 173.798 43.3728 173.631 43.6102C173.469 43.8422 173.345 44.1092 173.259 44.4113C173.172 44.7134 173.129 45.0264 173.129 45.35C173.129 45.6791 173.17 45.9974 173.251 46.305C173.337 46.6071 173.464 46.8768 173.631 47.1142C173.798 47.3462 174 47.535 174.238 47.6807C174.481 47.8209 174.761 47.8911 175.079 47.8911Z" fill="white" fill-opacity="0.5"/>
<path d="M166.565 48.3523C166.533 48.3523 166.503 48.3388 166.476 48.3118C166.449 48.2849 166.436 48.2552 166.436 48.2228V42.4691C166.436 42.4313 166.449 42.399 166.476 42.372C166.503 42.345 166.533 42.3315 166.565 42.3315H167.002C167.04 42.3315 167.072 42.345 167.099 42.372C167.126 42.399 167.14 42.4313 167.14 42.4691V47.7696H170.029C170.066 47.7696 170.096 47.7831 170.118 47.8101C170.145 47.8371 170.158 47.8694 170.158 47.9072V48.2228C170.158 48.2552 170.145 48.2849 170.118 48.3118C170.096 48.3388 170.066 48.3523 170.029 48.3523H166.565Z" fill="white" fill-opacity="0.5"/>
<path d="M160.694 48.352C160.624 48.352 160.589 48.3223 160.589 48.263C160.589 48.2468 160.592 48.2333 160.597 48.2225L162.806 42.4122C162.828 42.3259 162.884 42.2827 162.976 42.2827H163.332C163.365 42.2827 163.397 42.2962 163.429 42.3232C163.462 42.3448 163.483 42.3744 163.494 42.4122L165.703 48.2225C165.703 48.2279 165.703 48.2333 165.703 48.2387C165.709 48.2441 165.711 48.2495 165.711 48.2549C165.711 48.2819 165.698 48.3062 165.671 48.3277C165.649 48.3439 165.625 48.352 165.598 48.352H165.121C165.083 48.352 165.048 48.3385 165.015 48.3116C164.983 48.2846 164.961 48.2549 164.951 48.2225L164.417 46.774H162.264C162.145 46.774 162.045 46.801 161.965 46.8549C161.884 46.9089 161.819 46.9979 161.77 47.122L161.341 48.2225C161.331 48.2549 161.309 48.2846 161.277 48.3116C161.244 48.3385 161.209 48.352 161.172 48.352H160.694ZM162.029 46.3613C162.056 46.3181 162.099 46.2858 162.159 46.2642C162.218 46.2372 162.302 46.2237 162.41 46.2237H164.23L163.154 43.3105L162.029 46.3613Z" fill="white" fill-opacity="0.5"/>
<path d="M160.155 46.5558C160.106 46.8741 160.015 47.152 159.88 47.3893C159.745 47.6267 159.572 47.8236 159.362 47.9801C159.157 48.1365 158.922 48.2552 158.658 48.3361C158.399 48.4117 158.121 48.4494 157.824 48.4494C157.468 48.4494 157.134 48.382 156.821 48.2471C156.508 48.1123 156.236 47.9153 156.004 47.6564C155.772 47.392 155.588 47.0683 155.453 46.6853C155.318 46.2969 155.251 45.8491 155.251 45.342C155.251 44.8402 155.318 44.3978 155.453 44.0148C155.588 43.6318 155.772 43.3108 156.004 43.0518C156.241 42.7929 156.516 42.5986 156.829 42.4692C157.142 42.3343 157.474 42.2668 157.824 42.2668C158.402 42.2668 158.895 42.4233 159.305 42.7362C159.715 43.0491 159.99 43.4996 160.131 44.0876C160.136 44.0984 160.139 44.1146 160.139 44.1362C160.139 44.1955 160.101 44.2252 160.025 44.2252H159.532C159.489 44.2252 159.462 44.2198 159.451 44.209C159.446 44.1928 159.437 44.1632 159.427 44.12C159.324 43.7316 159.133 43.4187 158.852 43.1813C158.572 42.9439 158.229 42.8252 157.824 42.8252C157.517 42.8252 157.247 42.8954 157.015 43.0356C156.783 43.1759 156.589 43.3647 156.432 43.6021C156.276 43.8341 156.157 44.1038 156.076 44.4113C156.001 44.7134 155.963 45.0264 155.963 45.35C155.963 45.6791 156.001 45.9974 156.076 46.305C156.157 46.6071 156.273 46.8768 156.424 47.1142C156.581 47.3462 156.775 47.535 157.007 47.6807C157.239 47.8209 157.511 47.8911 157.824 47.8911C158.035 47.8911 158.232 47.8587 158.415 47.794C158.604 47.7292 158.768 47.6375 158.909 47.5188C159.054 47.4001 159.173 47.2572 159.265 47.0899C159.362 46.9173 159.427 46.7285 159.459 46.5234C159.464 46.4803 159.472 46.4533 159.483 46.4425C159.494 46.4263 159.521 46.4182 159.564 46.4182H160.05C160.125 46.4182 160.163 46.4452 160.163 46.4992C160.163 46.5261 160.16 46.545 160.155 46.5558Z" fill="white" fill-opacity="0.5"/>
<path d="M153.502 42.4691C153.502 42.4313 153.515 42.399 153.542 42.372C153.569 42.345 153.599 42.3315 153.631 42.3315H154.068C154.106 42.3315 154.139 42.345 154.166 42.372C154.193 42.399 154.206 42.4313 154.206 42.4691V48.2228C154.206 48.2552 154.193 48.2849 154.166 48.3118C154.139 48.3388 154.106 48.3523 154.068 48.3523H153.631C153.599 48.3523 153.569 48.3388 153.542 48.3118C153.515 48.2849 153.502 48.2552 153.502 48.2228V42.4691Z" fill="white" fill-opacity="0.5"/>
<path d="M147.311 42.3315C147.414 42.3315 147.489 42.3855 147.538 42.4934L149.407 46.4991L151.341 42.4934C151.39 42.3855 151.471 42.3315 151.584 42.3315H151.973C152.005 42.3315 152.035 42.345 152.062 42.372C152.089 42.399 152.102 42.4313 152.102 42.4691V48.2228C152.102 48.2552 152.089 48.2849 152.062 48.3118C152.035 48.3388 152.005 48.3523 151.973 48.3523H151.536C151.498 48.3523 151.466 48.3388 151.439 48.3118C151.412 48.2849 151.398 48.2552 151.398 48.2228V43.8853L149.731 47.3003C149.704 47.3596 149.653 47.3893 149.577 47.3893H149.302C149.221 47.3893 149.167 47.3596 149.14 47.3003L147.481 43.8853V48.2228C147.481 48.2552 147.468 48.2849 147.441 48.3118C147.414 48.3388 147.382 48.3523 147.344 48.3523H146.907C146.874 48.3523 146.845 48.3388 146.818 48.3118C146.791 48.2849 146.777 48.2552 146.777 48.2228V42.4691C146.777 42.4313 146.791 42.399 146.818 42.372C146.845 42.345 146.874 42.3315 146.907 42.3315H147.311Z" fill="white" fill-opacity="0.5"/>
<path d="M143.066 48.4494C142.71 48.4494 142.37 48.382 142.046 48.2471C141.722 48.1123 141.439 47.9126 141.196 47.6483C140.954 47.3839 140.759 47.0602 140.614 46.6772C140.473 46.2888 140.403 45.8437 140.403 45.342C140.403 44.8402 140.476 44.3978 140.622 44.0148C140.767 43.6318 140.962 43.3108 141.204 43.0518C141.447 42.7929 141.728 42.5986 142.046 42.4692C142.37 42.3343 142.71 42.2668 143.066 42.2668C143.416 42.2668 143.751 42.3316 144.069 42.4611C144.393 42.5905 144.676 42.7848 144.919 43.0437C145.167 43.3027 145.364 43.6237 145.51 44.0067C145.655 44.3898 145.728 44.8348 145.728 45.342C145.728 45.8491 145.655 46.2969 145.51 46.6853C145.364 47.0737 145.17 47.4001 144.927 47.6645C144.684 47.9234 144.401 48.1203 144.077 48.2552C143.759 48.3847 143.422 48.4494 143.066 48.4494ZM143.066 47.8911C143.379 47.8911 143.656 47.8209 143.899 47.6807C144.142 47.535 144.347 47.3462 144.514 47.1142C144.681 46.8768 144.806 46.6071 144.886 46.305C144.973 45.9974 145.016 45.6791 145.016 45.35C145.016 45.0264 144.973 44.7134 144.886 44.4113C144.8 44.1092 144.673 43.8422 144.506 43.6102C144.344 43.3728 144.142 43.184 143.899 43.0437C143.656 42.8981 143.379 42.8252 143.066 42.8252C142.753 42.8252 142.475 42.8981 142.232 43.0437C141.989 43.184 141.784 43.3728 141.617 43.6102C141.455 43.8422 141.331 44.1092 141.245 44.4113C141.159 44.7134 141.115 45.0264 141.115 45.35C141.115 45.6791 141.156 45.9974 141.237 46.305C141.323 46.6071 141.45 46.8768 141.617 47.1142C141.784 47.3462 141.987 47.535 142.224 47.6807C142.467 47.8209 142.747 47.8911 143.066 47.8911Z" fill="white" fill-opacity="0.5"/>
<path d="M138.727 42.4691C138.727 42.4313 138.738 42.399 138.759 42.372C138.786 42.345 138.819 42.3315 138.857 42.3315H139.294C139.326 42.3315 139.356 42.345 139.383 42.372C139.41 42.399 139.423 42.4313 139.423 42.4691V48.2228C139.423 48.2552 139.41 48.2849 139.383 48.3118C139.356 48.3388 139.326 48.3523 139.294 48.3523H139.107C139.032 48.3523 138.973 48.3361 138.929 48.3037C138.886 48.2714 138.843 48.2228 138.8 48.1581L135.603 43.5049V48.2228C135.603 48.2552 135.59 48.2849 135.563 48.3118C135.536 48.3388 135.504 48.3523 135.466 48.3523H135.029C134.997 48.3523 134.967 48.3388 134.94 48.3118C134.913 48.2849 134.899 48.2552 134.899 48.2228V42.4691C134.899 42.4313 134.913 42.399 134.94 42.372C134.967 42.345 134.997 42.3315 135.029 42.3315H135.377C135.452 42.3315 135.512 42.3504 135.555 42.3882C135.598 42.4206 135.641 42.4691 135.684 42.5339L138.727 46.9442V42.4691Z" fill="white" fill-opacity="0.5"/>
<path d="M131.219 48.4494C130.863 48.4494 130.523 48.382 130.199 48.2471C129.876 48.1123 129.592 47.9126 129.35 47.6483C129.107 47.3839 128.913 47.0602 128.767 46.6772C128.627 46.2888 128.557 45.8437 128.557 45.342C128.557 44.8402 128.629 44.3978 128.775 44.0148C128.921 43.6318 129.115 43.3108 129.358 43.0518C129.601 42.7929 129.881 42.5986 130.199 42.4692C130.523 42.3343 130.863 42.2668 131.219 42.2668C131.57 42.2668 131.904 42.3316 132.222 42.4611C132.546 42.5905 132.829 42.7848 133.072 43.0437C133.32 43.3027 133.517 43.6237 133.663 44.0067C133.809 44.3898 133.881 44.8348 133.881 45.342C133.881 45.8491 133.809 46.2969 133.663 46.6853C133.517 47.0737 133.323 47.4001 133.08 47.6645C132.838 47.9234 132.554 48.1203 132.231 48.2552C131.912 48.3847 131.575 48.4494 131.219 48.4494ZM131.219 47.8911C131.532 47.8911 131.81 47.8209 132.053 47.6807C132.295 47.535 132.5 47.3462 132.668 47.1142C132.835 46.8768 132.959 46.6071 133.04 46.305C133.126 45.9974 133.169 45.6791 133.169 45.35C133.169 45.0264 133.126 44.7134 133.04 44.4113C132.953 44.1092 132.827 43.8422 132.659 43.6102C132.498 43.3728 132.295 43.184 132.053 43.0437C131.81 42.8981 131.532 42.8252 131.219 42.8252C130.906 42.8252 130.628 42.8981 130.386 43.0437C130.143 43.184 129.938 43.3728 129.77 43.6102C129.609 43.8422 129.485 44.1092 129.398 44.4113C129.312 44.7134 129.269 45.0264 129.269 45.35C129.269 45.6791 129.309 45.9974 129.39 46.305C129.476 46.6071 129.603 46.8768 129.77 47.1142C129.938 47.3462 130.14 47.535 130.377 47.6807C130.62 47.8209 130.901 47.8911 131.219 47.8911Z" fill="white" fill-opacity="0.5"/>
<path d="M127.897 48.2066C127.908 48.239 127.913 48.2633 127.913 48.2795C127.913 48.328 127.886 48.3523 127.832 48.3523H127.323C127.225 48.3523 127.166 48.3091 127.145 48.2228L126.416 46.3777C126.346 46.2051 126.238 46.0729 126.092 45.9812C125.952 45.8841 125.728 45.8356 125.421 45.8356H124.15V48.2228C124.15 48.2552 124.137 48.2849 124.11 48.3118C124.083 48.3388 124.051 48.3523 124.013 48.3523H123.576C123.543 48.3523 123.514 48.3388 123.487 48.3118C123.46 48.2849 123.446 48.2552 123.446 48.2228V42.4691C123.446 42.4313 123.46 42.399 123.487 42.372C123.514 42.345 123.543 42.3315 123.576 42.3315H125.388C125.712 42.3315 126.006 42.3639 126.271 42.4287C126.54 42.4934 126.77 42.5959 126.958 42.7362C127.153 42.8764 127.304 43.0572 127.412 43.2784C127.519 43.4942 127.573 43.7558 127.573 44.0633C127.573 44.3924 127.492 44.6918 127.331 44.9616C127.169 45.2259 126.923 45.4444 126.594 45.6171C126.783 45.698 126.956 45.9219 127.112 46.2887L127.897 48.2066ZM126.861 44.0633C126.861 43.6587 126.737 43.362 126.489 43.1732C126.241 42.9789 125.898 42.8818 125.461 42.8818H124.15V45.2853H125.477C125.914 45.2853 126.254 45.1882 126.497 44.9939C126.74 44.7943 126.861 44.4841 126.861 44.0633Z" fill="white" fill-opacity="0.5"/>
<path d="M122.321 42.3477C122.359 42.3477 122.391 42.3611 122.418 42.3881C122.445 42.4151 122.458 42.4475 122.458 42.4852V42.8008C122.458 42.8386 122.445 42.871 122.418 42.8979C122.391 42.9195 122.359 42.9303 122.321 42.9303H120.532V48.2227C120.532 48.2551 120.519 48.2848 120.492 48.3118C120.465 48.3387 120.433 48.3522 120.395 48.3522H119.966C119.928 48.3522 119.896 48.3387 119.869 48.3118C119.842 48.2848 119.828 48.2551 119.828 48.2227V42.9303H118.04C118.002 42.9303 117.97 42.9195 117.943 42.8979C117.916 42.871 117.902 42.8386 117.902 42.8008V42.4852C117.902 42.4475 117.916 42.4151 117.943 42.3881C117.97 42.3611 118.002 42.3477 118.04 42.3477H122.321Z" fill="white" fill-opacity="0.5"/>
<path d="M115.06 47.891C115.497 47.891 115.834 47.7885 116.071 47.5835C116.314 47.3731 116.435 47.098 116.435 46.7581C116.435 46.5962 116.4 46.4533 116.33 46.3292C116.26 46.1997 116.155 46.0837 116.015 45.9812C115.88 45.8733 115.712 45.7762 115.513 45.6899C115.319 45.5982 115.092 45.5092 114.833 45.4228C114.606 45.3473 114.385 45.2637 114.169 45.172C113.959 45.0749 113.773 44.9616 113.611 44.8321C113.449 44.7026 113.32 44.5543 113.223 44.387C113.126 44.2198 113.077 44.0256 113.077 43.8044C113.077 43.5724 113.123 43.362 113.215 43.1732C113.312 42.9843 113.441 42.8252 113.603 42.6957C113.77 42.5608 113.97 42.4583 114.202 42.3882C114.434 42.3127 114.687 42.2749 114.963 42.2749C115.189 42.2749 115.416 42.3073 115.642 42.372C115.869 42.4314 116.074 42.5231 116.257 42.6472C116.441 42.7658 116.589 42.9169 116.702 43.1003C116.821 43.2838 116.88 43.4942 116.88 43.7315C116.88 43.7585 116.875 43.7801 116.864 43.7963C116.853 43.8071 116.826 43.8125 116.783 43.8125H116.322C116.279 43.8125 116.249 43.8071 116.233 43.7963C116.222 43.7801 116.211 43.7504 116.201 43.7073C116.136 43.4051 115.985 43.1839 115.748 43.0437C115.516 42.898 115.254 42.8252 114.963 42.8252C114.623 42.8252 114.345 42.9061 114.129 43.068C113.913 43.2244 113.805 43.4402 113.805 43.7153C113.805 43.8772 113.843 44.0175 113.919 44.1362C114 44.2548 114.107 44.36 114.242 44.4518C114.383 44.5435 114.55 44.6271 114.744 44.7026C114.938 44.7782 115.154 44.8564 115.391 44.9373C115.65 45.029 115.888 45.1261 116.104 45.2286C116.319 45.3311 116.505 45.4498 116.662 45.5847C116.818 45.7196 116.94 45.876 117.026 46.0541C117.112 46.2321 117.156 46.4371 117.156 46.6691C117.156 46.9496 117.104 47.2005 117.002 47.4217C116.899 47.6375 116.756 47.8209 116.573 47.972C116.395 48.123 116.176 48.239 115.917 48.3199C115.664 48.4008 115.383 48.4413 115.076 48.4413C114.795 48.4413 114.534 48.4062 114.291 48.3361C114.048 48.2606 113.835 48.1554 113.652 48.0205C113.468 47.8802 113.314 47.7076 113.19 47.5026C113.072 47.2976 112.993 47.0629 112.956 46.7986C112.945 46.7662 112.939 46.7446 112.939 46.7338C112.939 46.6853 112.975 46.661 113.045 46.661H113.514C113.557 46.661 113.584 46.6691 113.595 46.6853C113.611 46.6961 113.625 46.723 113.635 46.7662C113.727 47.1438 113.897 47.4271 114.145 47.6159C114.399 47.7993 114.704 47.891 115.06 47.891Z" fill="white" fill-opacity="0.5"/>
<path d="M107.343 48.352C107.273 48.352 107.238 48.3223 107.238 48.263C107.238 48.2468 107.241 48.2333 107.246 48.2225L109.456 42.4122C109.477 42.3259 109.534 42.2827 109.626 42.2827H109.982C110.014 42.2827 110.046 42.2962 110.079 42.3232C110.111 42.3448 110.133 42.3744 110.143 42.4122L112.353 48.2225C112.353 48.2279 112.353 48.2333 112.353 48.2387C112.358 48.2441 112.361 48.2495 112.361 48.2549C112.361 48.2819 112.347 48.3062 112.32 48.3277C112.299 48.3439 112.274 48.352 112.247 48.352H111.77C111.732 48.352 111.697 48.3385 111.665 48.3116C111.632 48.2846 111.611 48.2549 111.6 48.2225L111.066 46.774H108.913C108.795 46.774 108.695 46.801 108.614 46.8549C108.533 46.9089 108.468 46.9979 108.42 47.122L107.991 48.2225C107.98 48.2549 107.959 48.2846 107.926 48.3116C107.894 48.3385 107.859 48.352 107.821 48.352H107.343ZM108.679 46.3613C108.706 46.3181 108.749 46.2858 108.808 46.2642C108.868 46.2372 108.951 46.2237 109.059 46.2237H110.88L109.804 43.3105L108.679 46.3613Z" fill="white" fill-opacity="0.5"/>
<path d="M234.39 33.3656C234.412 33.3278 234.436 33.2955 234.463 33.2685C234.49 33.2415 234.528 33.228 234.576 33.228H235.102C235.172 33.228 235.207 33.2604 235.207 33.3251C235.207 33.3413 235.205 33.3548 235.199 33.3656L233.184 36.9748V39.1193C233.184 39.1517 233.171 39.1813 233.144 39.2083C233.122 39.2353 233.093 39.2488 233.055 39.2488H232.577C232.54 39.2488 232.507 39.2353 232.48 39.2083C232.453 39.1813 232.44 39.1517 232.44 39.1193V36.9343L230.441 33.3656C230.43 33.344 230.425 33.3305 230.425 33.3251C230.425 33.2982 230.436 33.2766 230.457 33.2604C230.484 33.2388 230.511 33.228 230.538 33.228H231.064C231.113 33.228 231.15 33.2415 231.177 33.2685C231.204 33.2955 231.229 33.3278 231.25 33.3656L232.82 36.287L234.39 33.3656Z" fill="white" fill-opacity="0.5"/>
<path d="M229.712 33.2439C229.75 33.2439 229.783 33.2574 229.809 33.2844C229.836 33.3113 229.85 33.3437 229.85 33.3815V33.6971C229.85 33.7348 229.836 33.7672 229.809 33.7942C229.783 33.8158 229.75 33.8265 229.712 33.8265H227.924V39.119C227.924 39.1513 227.91 39.181 227.884 39.208C227.857 39.235 227.824 39.2485 227.786 39.2485H227.358C227.32 39.2485 227.287 39.235 227.26 39.208C227.233 39.181 227.22 39.1513 227.22 39.119V33.8265H225.432C225.394 33.8265 225.361 33.8158 225.334 33.7942C225.307 33.7672 225.294 33.7348 225.294 33.6971V33.3815C225.294 33.3437 225.307 33.3113 225.334 33.2844C225.361 33.2574 225.394 33.2439 225.432 33.2439H229.712Z" fill="white" fill-opacity="0.5"/>
<path d="M223.536 33.3656C223.536 33.3278 223.55 33.2955 223.577 33.2685C223.604 33.2415 223.633 33.228 223.666 33.228H224.103C224.14 33.228 224.173 33.2415 224.2 33.2685C224.227 33.2955 224.24 33.3278 224.24 33.3656V39.1193C224.24 39.1517 224.227 39.1813 224.2 39.2083C224.173 39.2353 224.14 39.2488 224.103 39.2488H223.666C223.633 39.2488 223.604 39.2353 223.577 39.2083C223.55 39.1813 223.536 39.1517 223.536 39.1193V33.3656Z" fill="white" fill-opacity="0.5"/>
<path d="M220.474 38.787C220.911 38.787 221.248 38.6845 221.485 38.4795C221.728 38.2691 221.849 37.994 221.849 37.6541C221.849 37.4922 221.814 37.3493 221.744 37.2252C221.674 37.0957 221.569 36.9797 221.429 36.8772C221.294 36.7693 221.127 36.6722 220.927 36.5859C220.733 36.4942 220.506 36.4052 220.247 36.3188C220.021 36.2433 219.799 36.1597 219.584 36.068C219.373 35.9709 219.187 35.8576 219.025 35.7281C218.863 35.5986 218.734 35.4503 218.637 35.283C218.54 35.1158 218.491 34.9216 218.491 34.7004C218.491 34.4684 218.537 34.258 218.629 34.0692C218.726 33.8803 218.855 33.7212 219.017 33.5917C219.184 33.4568 219.384 33.3543 219.616 33.2842C219.848 33.2087 220.101 33.1709 220.377 33.1709C220.603 33.1709 220.83 33.2033 221.056 33.268C221.283 33.3274 221.488 33.4191 221.671 33.5431C221.855 33.6618 222.003 33.8129 222.116 33.9963C222.235 34.1798 222.294 34.3902 222.294 34.6275C222.294 34.6545 222.289 34.6761 222.278 34.6923C222.268 34.7031 222.241 34.7085 222.197 34.7085H221.736C221.693 34.7085 221.663 34.7031 221.647 34.6923C221.636 34.6761 221.626 34.6464 221.615 34.6033C221.55 34.3011 221.399 34.0799 221.162 33.9397C220.93 33.794 220.668 33.7212 220.377 33.7212C220.037 33.7212 219.759 33.8021 219.543 33.964C219.327 34.1204 219.219 34.3362 219.219 34.6113C219.219 34.7732 219.257 34.9135 219.333 35.0322C219.414 35.1508 219.522 35.256 219.656 35.3478C219.797 35.4395 219.964 35.5231 220.158 35.5986C220.352 35.6741 220.568 35.7524 220.805 35.8333C221.064 35.925 221.302 36.0221 221.518 36.1246C221.733 36.2271 221.92 36.3458 222.076 36.4807C222.232 36.6156 222.354 36.772 222.44 36.95C222.526 37.1281 222.57 37.3331 222.57 37.5651C222.57 37.8456 222.518 38.0965 222.416 38.3177C222.313 38.5335 222.17 38.7169 221.987 38.8679C221.809 39.019 221.59 39.135 221.332 39.2159C221.078 39.2968 220.797 39.3373 220.49 39.3373C220.209 39.3373 219.948 39.3022 219.705 39.2321C219.462 39.1566 219.249 39.0514 219.066 38.9165C218.882 38.7762 218.728 38.6036 218.604 38.3986C218.486 38.1936 218.407 37.9589 218.37 37.6946C218.359 37.6622 218.354 37.6406 218.354 37.6298C218.354 37.5813 218.389 37.557 218.459 37.557H218.928C218.971 37.557 218.998 37.5651 219.009 37.5813C219.025 37.592 219.039 37.619 219.049 37.6622C219.141 38.0398 219.311 38.3231 219.559 38.5119C219.813 38.6953 220.118 38.787 220.474 38.787Z" fill="white" fill-opacity="0.5"/>
<path d="M217.753 39.1031C217.763 39.1355 217.769 39.1598 217.769 39.1759C217.769 39.2245 217.742 39.2488 217.688 39.2488H217.178C217.081 39.2488 217.022 39.2056 217 39.1193L216.272 37.2742C216.202 37.1016 216.094 36.9694 215.948 36.8777C215.808 36.7806 215.584 36.732 215.276 36.732H214.006V39.1193C214.006 39.1517 213.992 39.1813 213.965 39.2083C213.938 39.2353 213.906 39.2488 213.868 39.2488H213.431C213.399 39.2488 213.369 39.2353 213.342 39.2083C213.315 39.1813 213.302 39.1517 213.302 39.1193V33.3656C213.302 33.3278 213.315 33.2955 213.342 33.2685C213.369 33.2415 213.399 33.228 213.431 33.228H215.244C215.568 33.228 215.862 33.2604 216.126 33.3251C216.396 33.3899 216.625 33.4924 216.814 33.6326C217.008 33.7729 217.159 33.9536 217.267 34.1748C217.375 34.3906 217.429 34.6523 217.429 34.9598C217.429 35.2889 217.348 35.5883 217.186 35.8581C217.024 36.1224 216.779 36.3409 216.45 36.5135C216.639 36.5945 216.811 36.8184 216.968 37.1852L217.753 39.1031ZM216.717 34.9598C216.717 34.5552 216.593 34.2585 216.344 34.0696C216.096 33.8754 215.754 33.7783 215.317 33.7783H214.006V36.1818H215.333C215.77 36.1818 216.11 36.0846 216.353 35.8904C216.595 35.6908 216.717 35.3806 216.717 34.9598Z" fill="white" fill-opacity="0.5"/>
<path d="M208.428 39.2488C208.396 39.2488 208.366 39.2353 208.339 39.2083C208.312 39.1813 208.299 39.1517 208.299 39.1193V33.3656C208.299 33.3278 208.312 33.2955 208.339 33.2685C208.366 33.2415 208.396 33.228 208.428 33.228H211.884C211.916 33.228 211.946 33.2415 211.973 33.2685C212 33.2955 212.013 33.3278 212.013 33.3656V33.665C212.013 33.6974 212 33.7271 211.973 33.754C211.946 33.781 211.916 33.7945 211.884 33.7945H209.003V35.8095H211.641C211.673 35.8095 211.703 35.823 211.73 35.85C211.757 35.8769 211.77 35.9093 211.77 35.9471V36.2384C211.77 36.2708 211.757 36.3004 211.73 36.3274C211.703 36.3544 211.673 36.3679 211.641 36.3679H209.003V38.6823H212.086C212.118 38.6823 212.148 38.6958 212.175 38.7228C212.202 38.7497 212.216 38.7821 212.216 38.8199V39.1193C212.216 39.1517 212.202 39.1813 212.175 39.2083C212.148 39.2353 212.118 39.2488 212.086 39.2488H208.428Z" fill="white" fill-opacity="0.5"/>
<path d="M204.742 39.3054C204.704 39.3054 204.669 39.2919 204.637 39.265C204.604 39.238 204.583 39.2056 204.572 39.1678L202.363 33.3656C202.357 33.3548 202.354 33.3413 202.354 33.3251C202.354 33.2604 202.39 33.228 202.46 33.228H202.937C202.986 33.228 203.023 33.2415 203.05 33.2685C203.077 33.2955 203.096 33.3278 203.107 33.3656L204.928 38.3586L206.741 33.3656C206.757 33.3278 206.776 33.2955 206.797 33.2685C206.824 33.2415 206.862 33.228 206.91 33.228H207.388C207.415 33.228 207.439 33.2388 207.461 33.2604C207.488 33.282 207.501 33.3063 207.501 33.3332C207.501 33.3386 207.499 33.344 207.493 33.3494C207.493 33.3548 207.493 33.3602 207.493 33.3656L205.276 39.1678C205.265 39.2056 205.243 39.238 205.211 39.265C205.179 39.2919 205.146 39.3054 205.114 39.3054H204.742Z" fill="white" fill-opacity="0.5"/>
<path d="M200.785 33.3656C200.785 33.3278 200.799 33.2955 200.826 33.2685C200.853 33.2415 200.882 33.228 200.915 33.228H201.352C201.389 33.228 201.422 33.2415 201.449 33.2685C201.476 33.2955 201.489 33.3278 201.489 33.3656V39.1193C201.489 39.1517 201.476 39.1813 201.449 39.2083C201.422 39.2353 201.389 39.2488 201.352 39.2488H200.915C200.882 39.2488 200.853 39.2353 200.826 39.2083C200.799 39.1813 200.785 39.1517 200.785 39.1193V33.3656Z" fill="white" fill-opacity="0.5"/>
<path d="M198.914 33.3656C198.914 33.3278 198.924 33.2955 198.946 33.2685C198.973 33.2415 199.005 33.228 199.043 33.228H199.48C199.512 33.228 199.542 33.2415 199.569 33.2685C199.596 33.2955 199.61 33.3278 199.61 33.3656V39.1193C199.61 39.1517 199.596 39.1813 199.569 39.2083C199.542 39.2353 199.512 39.2488 199.48 39.2488H199.294C199.218 39.2488 199.159 39.2326 199.116 39.2002C199.073 39.1678 199.03 39.1193 198.986 39.0546L195.79 34.4014V39.1193C195.79 39.1517 195.776 39.1813 195.75 39.2083C195.723 39.2353 195.69 39.2488 195.652 39.2488H195.215C195.183 39.2488 195.153 39.2353 195.126 39.2083C195.099 39.1813 195.086 39.1517 195.086 39.1193V33.3656C195.086 33.3278 195.099 33.2955 195.126 33.2685C195.153 33.2415 195.183 33.228 195.215 33.228H195.563C195.639 33.228 195.698 33.2469 195.741 33.2847C195.785 33.317 195.828 33.3656 195.871 33.4303L198.914 37.8407V33.3656Z" fill="white" fill-opacity="0.5"/>
<path d="M190.225 37.2014C190.225 37.6923 190.346 38.0781 190.589 38.3586C190.831 38.6338 191.212 38.7713 191.73 38.7713C192.248 38.7713 192.628 38.6338 192.871 38.3586C193.119 38.0781 193.243 37.6923 193.243 37.2014V33.3656C193.243 33.3278 193.254 33.2955 193.275 33.2685C193.302 33.2415 193.335 33.228 193.372 33.228H193.801C193.839 33.228 193.872 33.2415 193.898 33.2685C193.925 33.2955 193.939 33.3278 193.939 33.3656V37.2095C193.939 37.5602 193.885 37.8704 193.777 38.1401C193.675 38.4045 193.526 38.6257 193.332 38.8037C193.138 38.9817 192.903 39.1166 192.628 39.2083C192.358 39.2946 192.059 39.3378 191.73 39.3378C191.045 39.3378 190.505 39.1571 190.111 38.7956C189.717 38.4287 189.521 37.9 189.521 37.2095V33.3656C189.521 33.3278 189.534 33.2955 189.561 33.2685C189.588 33.2415 189.618 33.228 189.65 33.228H190.087C190.125 33.228 190.157 33.2415 190.184 33.2685C190.211 33.2955 190.225 33.3278 190.225 33.3656V37.2014Z" fill="white" fill-opacity="0.5"/>
<path d="M183.581 39.2488C183.548 39.2488 183.519 39.2353 183.492 39.2083C183.465 39.1813 183.451 39.1517 183.451 39.1193V33.3656C183.451 33.3278 183.465 33.2955 183.492 33.2685C183.519 33.2415 183.548 33.228 183.581 33.228H184.018C184.055 33.228 184.088 33.2415 184.115 33.2685C184.142 33.2955 184.155 33.3278 184.155 33.3656V38.6661H187.044C187.082 38.6661 187.112 38.6796 187.133 38.7066C187.16 38.7336 187.174 38.7659 187.174 38.8037V39.1193C187.174 39.1517 187.16 39.1813 187.133 39.2083C187.112 39.2353 187.082 39.2488 187.044 39.2488H183.581Z" fill="white" fill-opacity="0.5"/>
<path d="M177.71 39.2483C177.64 39.2483 177.604 39.2186 177.604 39.1592C177.604 39.1431 177.607 39.1296 177.613 39.1188L179.822 33.3084C179.843 33.2221 179.9 33.179 179.992 33.179H180.348C180.38 33.179 180.413 33.1924 180.445 33.2194C180.477 33.241 180.499 33.2707 180.51 33.3084L182.719 39.1188C182.719 39.1242 182.719 39.1296 182.719 39.135C182.724 39.1404 182.727 39.1458 182.727 39.1511C182.727 39.1781 182.713 39.2024 182.686 39.224C182.665 39.2402 182.641 39.2483 182.614 39.2483H182.136C182.098 39.2483 182.063 39.2348 182.031 39.2078C181.999 39.1808 181.977 39.1511 181.966 39.1188L181.432 37.6702H179.28C179.161 37.6702 179.061 37.6972 178.98 37.7512C178.899 37.8051 178.835 37.8941 178.786 38.0182L178.357 39.1188C178.346 39.1511 178.325 39.1808 178.292 39.2078C178.26 39.2348 178.225 39.2483 178.187 39.2483H177.71ZM179.045 37.2575C179.072 37.2144 179.115 37.182 179.174 37.1604C179.234 37.1334 179.317 37.12 179.425 37.12H181.246L180.17 34.2067L179.045 37.2575Z" fill="white" fill-opacity="0.5"/>
<path d="M176.13 33.3656C176.13 33.3278 176.141 33.2955 176.163 33.2685C176.19 33.2415 176.222 33.228 176.26 33.228H176.697C176.729 33.228 176.759 33.2415 176.786 33.2685C176.813 33.2955 176.826 33.3278 176.826 33.3656V39.1193C176.826 39.1517 176.813 39.1813 176.786 39.2083C176.759 39.2353 176.729 39.2488 176.697 39.2488H176.511C176.435 39.2488 176.376 39.2326 176.333 39.2002C176.29 39.1678 176.246 39.1193 176.203 39.0546L173.007 34.4014V39.1193C173.007 39.1517 172.993 39.1813 172.966 39.2083C172.939 39.2353 172.907 39.2488 172.869 39.2488H172.432C172.4 39.2488 172.37 39.2353 172.343 39.2083C172.316 39.1813 172.303 39.1517 172.303 39.1193V33.3656C172.303 33.3278 172.316 33.2955 172.343 33.2685C172.37 33.2415 172.4 33.228 172.432 33.228H172.78C172.856 33.228 172.915 33.2469 172.958 33.2847C173.001 33.317 173.045 33.3656 173.088 33.4303L176.13 37.8407V33.3656Z" fill="white" fill-opacity="0.5"/>
<path d="M168.622 39.3454C168.266 39.3454 167.926 39.278 167.603 39.1431C167.279 39.0083 166.996 38.8086 166.753 38.5443C166.51 38.2799 166.316 37.9562 166.17 37.5732C166.03 37.1848 165.96 36.7397 165.96 36.238C165.96 35.7362 166.033 35.2938 166.178 34.9108C166.324 34.5278 166.518 34.2068 166.761 33.9478C167.004 33.6888 167.284 33.4946 167.603 33.3652C167.926 33.2303 168.266 33.1628 168.622 33.1628C168.973 33.1628 169.308 33.2276 169.626 33.3571C169.95 33.4865 170.233 33.6808 170.476 33.9397C170.724 34.1987 170.921 34.5197 171.066 34.9027C171.212 35.2857 171.285 35.7308 171.285 36.238C171.285 36.7451 171.212 37.1929 171.066 37.5813C170.921 37.9697 170.726 38.2961 170.484 38.5605C170.241 38.8194 169.958 39.0163 169.634 39.1512C169.316 39.2807 168.978 39.3454 168.622 39.3454ZM168.622 38.7871C168.935 38.7871 169.213 38.7169 169.456 38.5767C169.699 38.431 169.904 38.2422 170.071 38.0102C170.238 37.7728 170.362 37.5031 170.443 37.2009C170.529 36.8934 170.573 36.5751 170.573 36.246C170.573 35.9223 170.529 35.6094 170.443 35.3073C170.357 35.0052 170.23 34.7382 170.063 34.5062C169.901 34.2688 169.699 34.08 169.456 33.9397C169.213 33.794 168.935 33.7212 168.622 33.7212C168.309 33.7212 168.032 33.794 167.789 33.9397C167.546 34.08 167.341 34.2688 167.174 34.5062C167.012 34.7382 166.888 35.0052 166.802 35.3073C166.715 35.6094 166.672 35.9223 166.672 36.246C166.672 36.5751 166.713 36.8934 166.793 37.2009C166.88 37.5031 167.007 37.7728 167.174 38.0102C167.341 38.2422 167.543 38.431 167.781 38.5767C168.024 38.7169 168.304 38.7871 168.622 38.7871Z" fill="white" fill-opacity="0.5"/>
<path d="M164.18 33.3656C164.18 33.3278 164.193 33.2955 164.22 33.2685C164.247 33.2415 164.277 33.228 164.309 33.228H164.746C164.784 33.228 164.816 33.2415 164.843 33.2685C164.87 33.2955 164.884 33.3278 164.884 33.3656V39.1193C164.884 39.1517 164.87 39.1813 164.843 39.2083C164.816 39.2353 164.784 39.2488 164.746 39.2488H164.309C164.277 39.2488 164.247 39.2353 164.22 39.2083C164.193 39.1813 164.18 39.1517 164.18 39.1193V33.3656Z" fill="white" fill-opacity="0.5"/>
<path d="M163.036 33.2439C163.073 33.2439 163.106 33.2574 163.133 33.2844C163.16 33.3113 163.173 33.3437 163.173 33.3815V33.6971C163.173 33.7348 163.16 33.7672 163.133 33.7942C163.106 33.8158 163.073 33.8265 163.036 33.8265H161.247V39.119C161.247 39.1513 161.234 39.181 161.207 39.208C161.18 39.235 161.147 39.2485 161.11 39.2485H160.681C160.643 39.2485 160.611 39.235 160.584 39.208C160.557 39.181 160.543 39.1513 160.543 39.119V33.8265H158.755C158.717 33.8265 158.685 33.8158 158.658 33.7942C158.631 33.7672 158.617 33.7348 158.617 33.6971V33.3815C158.617 33.3437 158.631 33.3113 158.658 33.2844C158.685 33.2574 158.717 33.2439 158.755 33.2439H163.036Z" fill="white" fill-opacity="0.5"/>
<path d="M153.883 39.2483C153.812 39.2483 153.777 39.2186 153.777 39.1592C153.777 39.1431 153.78 39.1296 153.785 39.1188L155.995 33.3084C156.016 33.2221 156.073 33.179 156.165 33.179H156.521C156.553 33.179 156.585 33.1924 156.618 33.2194C156.65 33.241 156.672 33.2707 156.683 33.3084L158.892 39.1188C158.892 39.1242 158.892 39.1296 158.892 39.135C158.897 39.1404 158.9 39.1458 158.9 39.1511C158.9 39.1781 158.886 39.2024 158.859 39.224C158.838 39.2402 158.813 39.2483 158.787 39.2483H158.309C158.271 39.2483 158.236 39.2348 158.204 39.2078C158.172 39.1808 158.15 39.1511 158.139 39.1188L157.605 37.6702H155.452C155.334 37.6702 155.234 37.6972 155.153 37.7512C155.072 37.8051 155.007 37.8941 154.959 38.0182L154.53 39.1188C154.519 39.1511 154.498 39.1808 154.465 39.2078C154.433 39.2348 154.398 39.2483 154.36 39.2483H153.883ZM155.218 37.2575C155.245 37.2144 155.288 37.182 155.347 37.1604C155.407 37.1334 155.49 37.12 155.598 37.12H157.419L156.343 34.2067L155.218 37.2575Z" fill="white" fill-opacity="0.5"/>
<path d="M152.301 33.3656C152.301 33.3278 152.312 33.2955 152.334 33.2685C152.361 33.2415 152.393 33.228 152.431 33.228H152.868C152.9 33.228 152.93 33.2415 152.957 33.2685C152.984 33.2955 152.997 33.3278 152.997 33.3656V39.1193C152.997 39.1517 152.984 39.1813 152.957 39.2083C152.93 39.2353 152.9 39.2488 152.868 39.2488H152.682C152.606 39.2488 152.547 39.2326 152.504 39.2002C152.46 39.1678 152.417 39.1193 152.374 39.0546L149.178 34.4014V39.1193C149.178 39.1517 149.164 39.1813 149.137 39.2083C149.11 39.2353 149.078 39.2488 149.04 39.2488H148.603C148.571 39.2488 148.541 39.2353 148.514 39.2083C148.487 39.1813 148.474 39.1517 148.474 39.1193V33.3656C148.474 33.3278 148.487 33.2955 148.514 33.2685C148.541 33.2415 148.571 33.228 148.603 33.228H148.951C149.027 33.228 149.086 33.2469 149.129 33.2847C149.172 33.317 149.215 33.3656 149.259 33.4303L152.301 37.8407V33.3656Z" fill="white" fill-opacity="0.5"/>
<path d="M141.52 33.3656C141.52 33.3278 141.533 33.2955 141.56 33.2685C141.587 33.2415 141.617 33.228 141.649 33.228H142.086C142.124 33.228 142.156 33.2415 142.183 33.2685C142.21 33.2955 142.224 33.3278 142.224 33.3656V36.7968L144.943 33.3413C144.964 33.3143 144.991 33.2901 145.024 33.2685C145.061 33.2415 145.099 33.228 145.137 33.228H145.711C145.733 33.228 145.749 33.2388 145.76 33.2604C145.771 33.2766 145.776 33.2955 145.776 33.317C145.776 33.3386 145.771 33.3548 145.76 33.3656L143.688 35.9147C143.742 35.8769 143.804 35.8581 143.874 35.8581C143.972 35.8581 144.071 35.8877 144.174 35.9471C144.276 36.0064 144.36 36.09 144.425 36.1979L146.156 39.1193C146.167 39.1409 146.173 39.1598 146.173 39.1759C146.173 39.2245 146.151 39.2488 146.108 39.2488H145.533C145.463 39.2488 145.409 39.2083 145.371 39.1274L143.931 36.6187C143.877 36.527 143.812 36.4596 143.737 36.4164C143.667 36.3679 143.594 36.3436 143.518 36.3436C143.416 36.3436 143.327 36.3895 143.251 36.4812L142.224 37.7112V39.1193C142.224 39.1517 142.21 39.1813 142.183 39.2083C142.156 39.2353 142.124 39.2488 142.086 39.2488H141.649C141.617 39.2488 141.587 39.2353 141.56 39.2083C141.533 39.1813 141.52 39.1517 141.52 39.1193V33.3656Z" fill="white" fill-opacity="0.5"/>
<path d="M136.747 37.2014C136.747 37.6923 136.868 38.0781 137.111 38.3586C137.354 38.6338 137.734 38.7713 138.252 38.7713C138.77 38.7713 139.15 38.6338 139.393 38.3586C139.641 38.0781 139.765 37.6923 139.765 37.2014V33.3656C139.765 33.3278 139.776 33.2955 139.798 33.2685C139.825 33.2415 139.857 33.228 139.895 33.228H140.324C140.362 33.228 140.394 33.2415 140.421 33.2685C140.448 33.2955 140.461 33.3278 140.461 33.3656V37.2095C140.461 37.5602 140.407 37.8704 140.3 38.1401C140.197 38.4045 140.049 38.6257 139.854 38.8037C139.66 38.9817 139.426 39.1166 139.15 39.2083C138.881 39.2946 138.581 39.3378 138.252 39.3378C137.567 39.3378 137.028 39.1571 136.634 38.7956C136.24 38.4287 136.043 37.9 136.043 37.2095V33.3656C136.043 33.3278 136.056 33.2955 136.083 33.2685C136.11 33.2415 136.14 33.228 136.172 33.228H136.609C136.647 33.228 136.68 33.2415 136.707 33.2685C136.734 33.2955 136.747 33.3278 136.747 33.3656V37.2014Z" fill="white" fill-opacity="0.5"/>
<path d="M132.956 33.228C133.252 33.228 133.525 33.2604 133.773 33.3251C134.021 33.3845 134.234 33.4789 134.412 33.6084C134.596 33.7378 134.739 33.8997 134.841 34.0939C134.944 34.2881 134.995 34.5147 134.995 34.7737C134.995 35.065 134.933 35.3267 134.809 35.5586C134.685 35.7852 134.52 35.9498 134.315 36.0523C134.59 36.171 134.817 36.349 134.995 36.5864C135.173 36.8184 135.262 37.1205 135.262 37.4927C135.262 38.0322 135.081 38.4611 134.72 38.7794C134.358 39.0923 133.784 39.2488 132.996 39.2488H130.981C130.949 39.2488 130.919 39.2353 130.892 39.2083C130.865 39.1813 130.852 39.1517 130.852 39.1193V33.3656C130.852 33.3278 130.865 33.2955 130.892 33.2685C130.919 33.2415 130.949 33.228 130.981 33.228H132.956ZM134.283 34.806C134.283 34.4985 134.164 34.2531 133.927 34.0696C133.695 33.8808 133.36 33.7864 132.923 33.7864H131.556V35.85H132.972C133.376 35.85 133.695 35.7663 133.927 35.5991C134.164 35.4265 134.283 35.1621 134.283 34.806ZM134.542 37.5089C134.542 37.1528 134.41 36.8804 134.145 36.6916C133.881 36.4974 133.463 36.4002 132.891 36.4002H131.556V38.6904H133.126C133.627 38.6904 133.989 38.5798 134.21 38.3586C134.431 38.1374 134.542 37.8542 134.542 37.5089Z" fill="white" fill-opacity="0.5"/>
<path d="M129.772 38.342C129.545 38.6495 129.262 38.895 128.922 39.0784C128.588 39.2564 128.172 39.3454 127.676 39.3454C127.309 39.3454 126.969 39.278 126.656 39.1431C126.343 39.0083 126.071 38.8113 125.839 38.5524C125.607 38.288 125.426 37.9643 125.297 37.5813C125.167 37.1929 125.103 36.7451 125.103 36.238C125.103 35.7362 125.167 35.2938 125.297 34.9108C125.432 34.5278 125.612 34.2068 125.839 33.9478C126.066 33.6888 126.33 33.4946 126.632 33.3652C126.934 33.2303 127.255 33.1628 127.595 33.1628C127.87 33.1628 128.126 33.1979 128.364 33.268C128.607 33.3328 128.825 33.438 129.019 33.5836C129.213 33.7239 129.381 33.9046 129.521 34.1258C129.661 34.3416 129.766 34.6006 129.837 34.9027C129.842 34.9189 129.845 34.9378 129.845 34.9594C129.845 35.0133 129.807 35.0403 129.731 35.0403H129.213C129.17 35.0403 129.143 35.0349 129.133 35.0241C129.127 35.0079 129.119 34.9782 129.108 34.9351C129.06 34.757 128.99 34.5952 128.898 34.4495C128.806 34.2985 128.696 34.169 128.566 34.0611C128.442 33.9532 128.296 33.8696 128.129 33.8102C127.967 33.7509 127.789 33.7212 127.595 33.7212C127.298 33.7212 127.039 33.7967 126.818 33.9478C126.597 34.0935 126.411 34.2877 126.26 34.5305C126.114 34.7678 126.003 35.0376 125.928 35.3397C125.852 35.6364 125.815 35.9385 125.815 36.246C125.815 36.559 125.852 36.8692 125.928 37.1767C126.003 37.4788 126.117 37.7485 126.268 37.9859C126.424 38.2233 126.619 38.4175 126.85 38.5686C127.088 38.7142 127.363 38.7871 127.676 38.7871C128.016 38.7871 128.318 38.7115 128.582 38.5605C128.852 38.404 129.052 38.2125 129.181 37.9859V36.7235H127.894C127.857 36.7235 127.824 36.71 127.797 36.683C127.77 36.6561 127.757 36.6237 127.757 36.5859V36.2056C127.757 36.1678 127.77 36.1381 127.797 36.1166C127.824 36.0896 127.857 36.0761 127.894 36.0761H129.731C129.769 36.0761 129.802 36.0896 129.828 36.1166C129.855 36.1381 129.869 36.1678 129.869 36.2056V38.083C129.869 38.1693 129.837 38.2557 129.772 38.342Z" fill="white" fill-opacity="0.5"/>
<path d="M123.459 33.3656C123.459 33.3278 123.469 33.2955 123.491 33.2685C123.518 33.2415 123.55 33.228 123.588 33.228H124.025C124.057 33.228 124.087 33.2415 124.114 33.2685C124.141 33.2955 124.154 33.3278 124.154 33.3656V39.1193C124.154 39.1517 124.141 39.1813 124.114 39.2083C124.087 39.2353 124.057 39.2488 124.025 39.2488H123.839C123.763 39.2488 123.704 39.2326 123.661 39.2002C123.618 39.1678 123.575 39.1193 123.531 39.0546L120.335 34.4014V39.1193C120.335 39.1517 120.321 39.1813 120.294 39.2083C120.267 39.2353 120.235 39.2488 120.197 39.2488H119.76C119.728 39.2488 119.698 39.2353 119.671 39.2083C119.644 39.1813 119.631 39.1517 119.631 39.1193V33.3656C119.631 33.3278 119.644 33.2955 119.671 33.2685C119.698 33.2415 119.728 33.228 119.76 33.228H120.108C120.184 33.228 120.243 33.2469 120.286 33.2847C120.33 33.317 120.373 33.3656 120.416 33.4303L123.459 37.8407V33.3656Z" fill="white" fill-opacity="0.5"/>
<path d="M114.769 37.2014C114.769 37.6923 114.891 38.0781 115.134 38.3586C115.376 38.6338 115.757 38.7713 116.275 38.7713C116.793 38.7713 117.173 38.6338 117.416 38.3586C117.664 38.0781 117.788 37.6923 117.788 37.2014V33.3656C117.788 33.3278 117.799 33.2955 117.82 33.2685C117.847 33.2415 117.88 33.228 117.917 33.228H118.346C118.384 33.228 118.416 33.2415 118.443 33.2685C118.47 33.2955 118.484 33.3278 118.484 33.3656V37.2095C118.484 37.5602 118.43 37.8704 118.322 38.1401C118.22 38.4045 118.071 38.6257 117.877 38.8037C117.683 38.9817 117.448 39.1166 117.173 39.2083C116.903 39.2946 116.604 39.3378 116.275 39.3378C115.589 39.3378 115.05 39.1571 114.656 38.7956C114.262 38.4287 114.065 37.9 114.065 37.2095V33.3656C114.065 33.3278 114.079 33.2955 114.106 33.2685C114.133 33.2415 114.163 33.228 114.195 33.228H114.632C114.67 33.228 114.702 33.2415 114.729 33.2685C114.756 33.2955 114.769 33.3278 114.769 33.3656V37.2014Z" fill="white" fill-opacity="0.5"/>
<path d="M109.173 39.1193C109.173 39.1517 109.159 39.1813 109.132 39.2083C109.105 39.2353 109.073 39.2488 109.035 39.2488H108.598C108.566 39.2488 108.536 39.2353 108.509 39.2083C108.482 39.1813 108.469 39.1517 108.469 39.1193V33.3656C108.469 33.3278 108.482 33.2955 108.509 33.2685C108.536 33.2415 108.566 33.228 108.598 33.228H109.035C109.073 33.228 109.105 33.2415 109.132 33.2685C109.159 33.2955 109.173 33.3278 109.173 33.3656V35.9147H112.296V33.3656C112.296 33.3278 112.307 33.2955 112.329 33.2685C112.356 33.2415 112.388 33.228 112.426 33.228H112.863C112.895 33.228 112.925 33.2415 112.952 33.2685C112.979 33.2955 112.992 33.3278 112.992 33.3656V39.1193C112.992 39.1517 112.979 39.1813 112.952 39.2083C112.925 39.2353 112.895 39.2488 112.863 39.2488H112.426C112.388 39.2488 112.356 39.2353 112.329 39.2083C112.307 39.1813 112.296 39.1517 112.296 39.1193V36.4812H109.173V39.1193Z" fill="white" fill-opacity="0.5"/>
<path d="M107.744 37.4523C107.695 37.7706 107.604 38.0484 107.469 38.2858C107.334 38.5232 107.161 38.7201 106.951 38.8766C106.746 39.033 106.511 39.1517 106.247 39.2326C105.988 39.3082 105.71 39.3459 105.413 39.3459C105.057 39.3459 104.723 39.2785 104.41 39.1436C104.097 39.0087 103.824 38.8118 103.592 38.5529C103.36 38.2885 103.177 37.9648 103.042 37.5818C102.907 37.1933 102.84 36.7456 102.84 36.2384C102.84 35.7367 102.907 35.2943 103.042 34.9113C103.177 34.5282 103.36 34.2072 103.592 33.9483C103.83 33.6893 104.105 33.4951 104.418 33.3656C104.731 33.2308 105.063 33.1633 105.413 33.1633C105.99 33.1633 106.484 33.3198 106.894 33.6327C107.304 33.9456 107.579 34.3961 107.72 34.9841C107.725 34.9949 107.728 35.0111 107.728 35.0327C107.728 35.092 107.69 35.1217 107.614 35.1217H107.121C107.078 35.1217 107.051 35.1163 107.04 35.1055C107.034 35.0893 107.026 35.0596 107.016 35.0165C106.913 34.6281 106.721 34.3151 106.441 34.0778C106.16 33.8404 105.818 33.7217 105.413 33.7217C105.106 33.7217 104.836 33.7918 104.604 33.9321C104.372 34.0724 104.178 34.2612 104.021 34.4986C103.865 34.7306 103.746 35.0003 103.665 35.3078C103.59 35.6099 103.552 35.9228 103.552 36.2465C103.552 36.5756 103.59 36.8939 103.665 37.2014C103.746 37.5036 103.862 37.7733 104.013 38.0107C104.17 38.2427 104.364 38.4315 104.596 38.5771C104.828 38.7174 105.1 38.7875 105.413 38.7875C105.624 38.7875 105.821 38.7552 106.004 38.6904C106.193 38.6257 106.357 38.534 106.498 38.4153C106.643 38.2966 106.762 38.1536 106.854 37.9864C106.951 37.8138 107.016 37.6249 107.048 37.4199C107.053 37.3768 107.061 37.3498 107.072 37.339C107.083 37.3228 107.11 37.3147 107.153 37.3147H107.639C107.714 37.3147 107.752 37.3417 107.752 37.3957C107.752 37.4226 107.749 37.4415 107.744 37.4523Z" fill="white" fill-opacity="0.5"/>
<path d="M21.8634 30.6904L27.7644 27.7974C28.2709 27.5519 28.4704 26.9226 28.1865 26.4392C26.5597 23.6613 24.0043 21.4973 20.9502 20.3616V25.7255C20.9502 27.4675 21.2725 29.1403 21.8557 30.6827C21.8557 30.6827 21.8557 30.6827 21.8557 30.6981L21.8634 30.6904Z" fill="white" fill-opacity="0.5"/>
<path d="M48.1139 20.7833C48.1139 20.7833 48.1139 20.7833 48.1139 20.7756C43.2948 22.9933 39.9414 27.8662 39.9414 33.5294V38.8703C45.2516 36.8675 49.0347 31.7414 49.0347 25.7252C49.0347 23.9833 48.7125 22.3181 48.1369 20.7756C48.1369 20.7756 48.1216 20.7756 48.1216 20.7833H48.1139Z" fill="white" fill-opacity="0.5"/>
<path d="M19.8147 20.0009C18.6253 19.6709 17.3668 19.4944 16.0699 19.4944C8.12762 19.4944 1.72775 26.0861 2.04237 34.0898C2.31863 41.3031 8.15832 47.2042 15.3639 47.5572C20.0756 47.7874 24.3038 45.7002 27.0126 42.3314C27.3886 41.8633 27.2582 41.1573 26.7287 40.8734C25.1019 39.9833 23.6285 38.8399 22.37 37.4893C22.0247 37.1133 21.4338 37.144 21.1192 37.543C19.8147 39.1852 17.7428 40.1751 15.4407 39.9602C12.4326 39.6763 9.98466 37.2744 9.65469 34.274C9.22496 30.3834 12.2638 27.0837 16.0699 27.0837C17.5816 27.0837 18.9706 27.6132 20.0679 28.488C19.8991 27.5825 19.8147 26.6617 19.8147 25.7255V20.0009Z" fill="white" fill-opacity="0.5"/>
<path d="M66.4922 24.9735V15.8264C66.4922 15.2048 66.1392 14.6369 65.579 14.3684L60.3379 11.7977C59.6933 11.483 58.9336 11.9511 58.9336 12.6725V19.1798L59.3326 19.3333C62.2947 20.4536 64.7656 22.4565 66.4922 24.9811V24.9735Z" fill="white" fill-opacity="0.5"/>
<path d="M58.9336 20.3921V25.733C58.9336 31.7415 62.7091 36.8676 68.0193 38.8704V33.5372C68.0193 27.5287 64.2438 22.4026 58.9336 20.3998V20.3921Z" fill="white" fill-opacity="0.5"/>
<path d="M47.6537 19.7321C45.5204 15.2583 41.1004 12.0431 35.9129 11.7054C33.2425 11.5289 30.7178 12.1121 28.5308 13.2478V0.97753C28.5308 0.256199 27.7711 -0.219572 27.1266 0.102724L21.8547 2.68877C21.2945 2.96503 20.9415 3.52521 20.9415 4.14678V18.2281C19.3531 17.7216 17.7109 17.4607 16.0611 17.4607C11.948 17.4607 7.83485 19.0262 4.69631 22.157C-1.56544 28.4265 -1.56544 38.6172 4.69631 44.8866C7.82718 48.0175 11.948 49.583 16.0611 49.583C20.1742 49.583 24.2873 48.0175 27.4258 44.8866C28.1395 44.173 28.7687 43.3979 29.3136 42.5922C29.4747 42.3543 29.3749 42.032 29.1064 41.9323C29.1064 41.9323 29.1064 41.9323 29.0987 41.9323C28.9069 41.8632 28.6997 41.9322 28.5846 42.0934C28.0627 42.8531 27.4642 43.5821 26.7889 44.2574C23.8269 47.2195 19.944 48.6928 16.0534 48.7005C12.1628 48.7005 8.27993 47.2195 5.31788 44.2574C-0.598549 38.3409 -0.598549 28.7027 5.31788 22.7863C8.27993 19.8242 12.1628 18.3509 16.0534 18.3432C17.9028 18.3432 19.7598 18.6885 21.5094 19.3638C21.7243 19.4482 21.9315 19.5326 22.1386 19.6247C22.3228 19.7014 22.4993 19.7859 22.6758 19.8779C22.9137 19.993 23.1516 20.1082 23.3741 20.2386C23.4739 20.2923 23.5736 20.3614 23.6734 20.4151C24.5559 20.9292 25.3846 21.5278 26.1366 22.2108C26.198 22.2645 26.2671 22.3259 26.3285 22.3796C27.1496 23.1393 27.8939 23.9911 28.5385 24.9196C28.9299 21.712 31.654 19.2333 34.9691 19.2333C38.2841 19.2333 41.062 21.7657 41.415 25.0117C42.9421 22.7556 45.0677 20.9062 47.6384 19.7245L47.6537 19.7321Z" fill="white" fill-opacity="0.5"/>
<path d="M60.4619 34.2745V43.4216C60.4619 44.0432 60.8149 44.611 61.3751 44.8796L66.6162 47.4503C67.2608 47.7649 68.0205 47.2968 68.0205 46.5755V40.0682L67.6215 39.9147C64.6594 38.7943 62.1885 36.7915 60.4619 34.2668V34.2745Z" fill="white" fill-opacity="0.5"/>
<path d="M28.9991 28.204C28.7996 28.4572 28.554 28.6721 28.2624 28.8102L22.3537 31.7109L22.3076 31.7339C24.556 36.4839 29.3828 39.7683 34.9846 39.7683C36.3121 39.7683 37.586 39.5764 38.7984 39.2234V33.5219C38.7984 32.5857 38.8982 31.6571 39.067 30.7516C37.9543 31.6571 36.5347 32.202 34.9846 32.202C32.2834 32.202 29.966 30.5521 28.9991 28.1963V28.204Z" fill="white" fill-opacity="0.5"/>
<path d="M85.6076 11.7975L80.3664 14.3682C79.8063 14.6445 79.4533 15.2047 79.4533 15.8263V25.7254C79.4533 29.3013 76.5449 32.202 72.969 32.202C71.4189 32.202 69.9916 31.6572 68.8789 30.744C69.0477 31.6495 69.1475 32.578 69.1475 33.5219V39.2158C70.3599 39.5611 71.6414 39.7606 72.969 39.7606C80.7271 39.7606 87.0119 33.4758 87.0119 25.7254V12.6724C87.0119 11.951 86.2522 11.4753 85.6076 11.7975Z" fill="white" fill-opacity="0.5"/>
<path d="M57.7992 20.3921V20.0314C56.5868 19.6861 55.3053 19.4866 53.9777 19.4866C52.2895 19.4866 50.678 19.7935 49.1816 20.346V20.3614C49.8339 22.0803 50.1639 23.8759 50.1639 25.7176C50.1639 26.6615 50.0641 27.59 49.8953 28.4955C51.008 27.59 52.4276 27.0452 53.9777 27.0452C55.5278 27.0452 56.9551 27.59 58.0678 28.5032C57.899 27.5977 57.7992 26.6692 57.7992 25.7253V20.3844V20.3921Z" fill="white" fill-opacity="0.5"/>
<path d="M40.3404 39.9293L39.9414 40.0827V46.5824C39.9414 47.3037 40.7011 47.7795 41.3457 47.4572L46.5868 44.8865C47.147 44.6102 47.5 44.0501 47.5 43.4285V34.2891C45.7734 36.806 43.3025 38.8166 40.3404 39.9293Z" fill="white" fill-opacity="0.5"/>
</svg>
